<svg width="11" height="16" viewBox="0 0 11 16" fill="none" xmlns="http://www.w3.org/2000/svg">
<path d="M4.584 0.888888C4.584 0.397969 4.99441 0 5.50067 0C6.00693 0 6.41734 0.397969 6.41734 0.888888L6.41734 15.1111C6.41734 15.602 6.00693 16 5.50067 16C4.99441 16 4.584 15.602 4.584 15.1111L4.584 0.888888ZM9.43582 10.4063C9.7938 10.0592 10.3742 10.0592 10.7322 10.4063C11.0902 10.7534 11.0902 11.3163 10.7322 11.6634L6.79703 15.4793C6.08107 16.1736 4.92027 16.1736 4.20431 15.4793L0.269157 11.6634C-0.0888236 11.3163 -0.0888236 10.7534 0.269157 10.4063C0.627138 10.0592 1.20754 10.0592 1.56552 10.4063L5.50067 14.2222L9.43582 10.4063Z" fill="black" fill-opacity="0.2"/>
</svg>
