<svg width="20" height="20" viewBox="0 0 20 20" fill="none" xmlns="http://www.w3.org/2000/svg"><path fill-rule="evenodd" clip-rule="evenodd" d="M8.185 9.895l-7.14-7.183c-.316-.278-.316-.794 0-1.111L2.152.489a.762.762 0 0 1 1.107 0l7.137 7.18L17.533.49a.762.762 0 0 1 1.107 0l1.147 1.112c.276.317.276.833 0 1.11l-7.168 7.195 7.128 7.171a.77.77 0 0 1 0 1.111L18.64 19.3a.763.763 0 0 1-1.107 0l-7.128-7.172L3.259 19.3a.763.763 0 0 1-1.107 0l-1.107-1.112a.77.77 0 0 1 0-1.11l7.14-7.183z" fill="#FF6557"/></svg>