<svg width="22" height="22" viewBox="0 0 22 22" fill="none" xmlns="http://www.w3.org/2000/svg">
<path fill-rule="evenodd" clip-rule="evenodd" d="M11.7996 2.2001H18.9996C19.4414 2.2001 19.7996 2.55827 19.7996 3.0001V7.0001H11.7996V2.2001ZM10.1996 7.0001V2.2001H2.99961C2.55779 2.2001 2.19961 2.55827 2.19961 3.0001V7.0001H10.1996ZM2.19961 8.6001V13.4001H10.1996V8.6001H2.19961ZM11.7996 8.6001H19.7996V13.4001H11.7996V8.6001ZM11.7996 15.0001H19.7996V19.0001C19.7996 19.4419 19.4414 19.8001 18.9996 19.8001H11.7996V15.0001ZM2.19961 19.0001V15.0001H10.1996V19.8001H2.99961C2.55779 19.8001 2.19961 19.4419 2.19961 19.0001ZM0.599609 3.0001C0.599609 1.67461 1.67412 0.600098 2.99961 0.600098H18.9996C20.325 0.600098 21.3996 1.67461 21.3996 3.0001V19.0001C21.3996 20.3255 20.325 21.4001 18.9996 21.4001H2.99961C1.67412 21.4001 0.599609 20.3255 0.599609 19.0001V3.0001Z" fill="#3C78E6"/>
</svg>
