<svg width="20" height="20" viewBox="0 0 20 20" fill="none" xmlns="http://www.w3.org/2000/svg">
<path d="M7.8335 13.3333H2.50016C2.05814 13.3333 1.63421 13.1577 1.32165 12.8452C1.00909 12.5326 0.833497 12.1087 0.833497 11.6667V9.91333C0.833272 9.69553 0.875739 9.4798 0.958497 9.27833L3.5385 3.01667C3.60123 2.86396 3.70791 2.73333 3.845 2.64134C3.98209 2.54936 4.14341 2.50016 4.3085 2.5H18.3335C18.5545 2.5 18.7665 2.5878 18.9228 2.74408C19.079 2.90036 19.1668 3.11232 19.1668 3.33333V11.6667C19.1668 11.8877 19.079 12.0996 18.9228 12.2559C18.7665 12.4122 18.5545 12.5 18.3335 12.5H15.4318C15.2984 12.5 15.1669 12.532 15.0485 12.5933C14.93 12.6546 14.828 12.7435 14.751 12.8525L10.2068 19.2908C10.1494 19.3722 10.0647 19.4304 9.96805 19.4547C9.87143 19.479 9.76929 19.4679 9.68016 19.4233L8.1685 18.6667C7.74308 18.454 7.40322 18.1022 7.20539 17.6697C7.00756 17.2372 6.96366 16.7501 7.081 16.2892L7.8335 13.3333ZM14.1668 11.1767V4.16667H4.86683L2.50016 9.91333V11.6667H7.8335C8.08733 11.6667 8.3378 11.7247 8.56581 11.8363C8.79381 11.9479 8.99331 12.11 9.1491 12.3104C9.30489 12.5108 9.41285 12.7442 9.46473 12.9926C9.51662 13.2411 9.51107 13.4982 9.4485 13.7442L8.696 16.7008C8.67245 16.7931 8.68118 16.8906 8.72075 16.9771C8.76032 17.0637 8.82834 17.1341 8.9135 17.1767L9.46433 17.4517L13.3893 11.8917C13.5977 11.5967 13.8643 11.355 14.1668 11.1767ZM15.8335 10.8333H17.5002V4.16667H15.8335V10.8333Z" fill="#B8B8B8"/>
</svg>
