<svg width="48" height="48" viewBox="0 0 48 48" fill="none" xmlns="http://www.w3.org/2000/svg">
<path d="M0 19.2C0 12.4794 0 9.11905 1.30792 6.55211C2.4584 4.29417 4.29417 2.4584 6.55211 1.30792C9.11905 0 12.4794 0 19.2 0H28.8C35.5206 0 38.8809 0 41.4479 1.30792C43.7058 2.4584 45.5416 4.29417 46.6921 6.55211C48 9.11905 48 12.4794 48 19.2V28.8C48 35.5206 48 38.8809 46.6921 41.4479C45.5416 43.7058 43.7058 45.5416 41.4479 46.6921C38.8809 48 35.5206 48 28.8 48H19.2C12.4794 48 9.11905 48 6.55211 46.6921C4.29417 45.5416 2.4584 43.7058 1.30792 41.4479C0 38.8809 0 35.5206 0 28.8V19.2Z" fill="#1877F2"/>
<path d="M31.3195 25.6923L32.1925 20H26.731V16.3062C26.731 14.7488 27.4941 13.2308 29.9402 13.2308H32.4233V8.38462C32.4233 8.38462 30.1698 8 28.0152 8C23.5171 8 20.5771 10.7262 20.5771 15.6615V20H15.5771V25.6923H20.5771V40C21.3207 40 22.6071 40 23.6541 40C24.701 40 25.4233 40 26.731 40V25.6923H31.3195Z" fill="white"/>
</svg>

