<svg width="85" height="15" viewBox="0 0 85 15" fill="none" xmlns="http://www.w3.org/2000/svg">
    <path fill-rule="evenodd" clip-rule="evenodd" d="M85 0H0V14H85V0ZM9.29806 0.894456C9.02458 0.358586 8.25889 0.358586 7.98542 0.894456L6.41397 3.97373C6.3069 4.18353 6.10599 4.32949 5.87338 4.36649L2.45921 4.90948C1.86506 5.00398 1.62845 5.73219 2.05358 6.15787L4.49654 8.60396C4.66298 8.77062 4.73972 9.0068 4.70303 9.23946L4.16441 12.6543C4.07068 13.2486 4.69013 13.6987 5.22635 13.4259L8.30764 11.8584C8.51757 11.7516 8.76591 11.7516 8.97584 11.8584L12.0571 13.4259C12.5933 13.6987 13.2128 13.2486 13.1191 12.6543L12.5805 9.23946C12.5438 9.0068 12.6205 8.77062 12.7869 8.60396L15.2299 6.15787C15.655 5.73219 15.4184 5.00398 14.8243 4.90948L11.4101 4.36649C11.1775 4.32949 10.9766 4.18353 10.8695 3.97373L9.29806 0.894456ZM24.9146 0.894456C25.188 0.358586 25.9537 0.358586 26.2272 0.894456L27.7987 3.97373C27.9057 4.18353 28.1066 4.32949 28.3392 4.36649L31.7534 4.90948C32.3476 5.00398 32.5842 5.73219 32.159 6.15787L29.7161 8.60396C29.5496 8.77062 29.4729 9.0068 29.5096 9.23946L30.0482 12.6543C30.1419 13.2486 29.5225 13.6987 28.9863 13.4259L25.905 11.8584C25.695 11.7516 25.4467 11.7516 25.2368 11.8584L22.1555 13.4259C21.6193 13.6987 20.9998 13.2486 21.0935 12.6543L21.6322 9.23946C21.6689 9.0068 21.5921 8.77062 21.4257 8.60396L18.9827 6.15787C18.5576 5.73219 18.7942 5.00398 19.3883 4.90948L22.8025 4.36649C23.0351 4.32949 23.236 4.18353 23.3431 3.97373L24.9146 0.894456ZM43.1563 0.894456C42.8829 0.358586 42.1172 0.358586 41.8437 0.894456L40.2722 3.97373C40.1652 4.18353 39.9643 4.32949 39.7317 4.36649L36.3175 4.90948C35.7233 5.00398 35.4867 5.73219 35.9119 6.15787L38.3548 8.60396C38.5213 8.77062 38.598 9.0068 38.5613 9.23946L38.0227 12.6543C37.929 13.2486 38.5484 13.6987 39.0846 13.4259L42.1659 11.8584C42.3758 11.7516 42.6242 11.7516 42.8341 11.8584L45.9154 13.4259C46.4516 13.6987 47.0711 13.2486 46.9773 12.6543L46.4387 9.23946C46.402 9.0068 46.4788 8.77062 46.6452 8.60396L49.0882 6.15787C49.5133 5.73219 49.2767 5.00398 48.6825 4.90948L45.2684 4.36649C45.0358 4.32949 44.8349 4.18353 44.7278 3.97373L43.1563 0.894456ZM58.7728 0.894456C59.0463 0.358586 59.812 0.358586 60.0855 0.894456L61.6569 3.97373C61.764 4.18353 61.9649 4.32949 62.1975 4.36649L65.6117 4.90948C66.2058 5.00398 66.4424 5.73219 66.0173 6.15787L63.5743 8.60396C63.4079 8.77062 63.3312 9.0068 63.3679 9.23946L63.9065 12.6543C64.0002 13.2486 63.3808 13.6987 62.8445 13.4259L59.7633 11.8584C59.5533 11.7516 59.305 11.7516 59.0951 11.8584L56.0138 13.4259C55.4775 13.6987 54.8581 13.2486 54.9518 12.6543L55.4904 9.23946C55.5271 9.0068 55.4504 8.77062 55.284 8.60396L52.841 6.15787C52.4159 5.73219 52.6525 5.00398 53.2466 4.90948L56.6608 4.36649C56.8934 4.32949 57.0943 4.18353 57.2014 3.97373L58.7728 0.894456ZM75.702 0.894456C75.9754 0.358586 76.7411 0.358586 77.0146 0.894456L78.5861 3.97373C78.6931 4.18353 78.894 4.32949 79.1266 4.36649L82.5408 4.90948C83.135 5.00398 83.3716 5.73219 82.9464 6.15787L80.5035 8.60396C80.337 8.77062 80.2603 9.0068 80.297 9.23946L80.8356 12.6543C80.9294 13.2486 80.3099 13.6987 79.7737 13.4259L76.6924 11.8584C76.4825 11.7516 76.2341 11.7516 76.0242 11.8584L72.9429 13.4259C72.4067 13.6987 71.7872 13.2486 71.881 12.6543L72.4196 9.23946C72.4563 9.0068 72.3795 8.77062 72.2131 8.60396L69.7701 6.15787C69.345 5.73219 69.5816 5.00398 70.1758 4.90948L73.5899 4.36649C73.8225 4.32949 74.0235 4.18353 74.1305 3.97373L75.702 0.894456Z" fill="#F9F9F9"/>
</svg>
