<?xml version="1.0" encoding="utf-8"?>
<svg width="30" height="30" viewBox="0 0 63 62" fill="none" xmlns="http://www.w3.org/2000/svg">
	<g clip-path="url(#clip0)">
		<path d="M2 12.9894H61C62.1 12.9894 63 12.0894 63 10.9894V8.98944C63 7.88944 62.1 6.98944 61 6.98944H2C0.9 6.98944 0 7.88944 0 8.98944V10.9894C0 12.0894 0.9 12.9894 2 12.9894Z" fill="#A6CEFF"></path>
		<path d="M2 34.9894H61C62.1 34.9894 63 34.0894 63 32.9894V30.9894C63 29.8894 62.1 28.9894 61 28.9894H2C0.9 28.9894 0 29.8894 0 30.9894V32.9894C0 34.0894 0.9 34.9894 2 34.9894Z" fill="#A6CEFF"></path>
		<path d="M2 55.9894H61C62.1 55.9894 63 55.0894 63 53.9894V51.9894C63 50.8894 62.1 49.9894 61 49.9894H2C0.9 49.9894 0 50.8894 0 51.9894V53.9894C0 55.0894 0.9 55.9894 2 55.9894Z" fill="#A6CEFF"></path>
		<path d="M18 16.9894C21.866 16.9894 25 13.8554 25 9.98944C25 6.12345 21.866 2.98944 18 2.98944C14.134 2.98944 11 6.12345 11 9.98944C11 13.8554 14.134 16.9894 18 16.9894Z" fill="white"></path>
		<path d="M18 4.98944C20.8 4.98944 23 7.18944 23 9.98944C23 12.7894 20.8 14.9894 18 14.9894C15.2 14.9894 13 12.7894 13 9.98944C13 7.18944 15.2 4.98944 18 4.98944ZM18 0.989441C13 0.989441 9 4.98944 9 9.98944C9 14.9894 13 18.9894 18 18.9894C23 18.9894 27 14.9894 27 9.98944C27 4.98944 23 0.989441 18 0.989441Z" fill="#A6CEFF"></path>
		<path d="M45 38.9894C48.866 38.9894 52 35.8554 52 31.9894C52 28.1234 48.866 24.9894 45 24.9894C41.134 24.9894 38 28.1234 38 31.9894C38 35.8554 41.134 38.9894 45 38.9894Z" fill="white"></path>
		<path d="M45 26.9894C47.8 26.9894 50 29.1894 50 31.9894C50 34.7894 47.8 36.9894 45 36.9894C42.2 36.9894 40 34.7894 40 31.9894C40 29.1894 42.3 26.9894 45 26.9894ZM45 22.9894C40 22.9894 36 26.9894 36 31.9894C36 36.9894 40 40.9894 45 40.9894C50 40.9894 54 36.9894 54 31.9894C54 26.9894 50 22.9894 45 22.9894Z" fill="#A6CEFF"></path>
		<path d="M25 59.9894C28.866 59.9894 32 56.8554 32 52.9894C32 49.1234 28.866 45.9894 25 45.9894C21.134 45.9894 18 49.1234 18 52.9894C18 56.8554 21.134 59.9894 25 59.9894Z" fill="white"></path>
		<path d="M25 47.9894C27.8 47.9894 30 50.1894 30 52.9894C30 55.7894 27.8 57.9894 25 57.9894C22.2 57.9894 20 55.7894 20 52.9894C20 50.1894 22.2 47.9894 25 47.9894ZM25 43.9894C20 43.9894 16 47.9894 16 52.9894C16 57.9894 20 61.9894 25 61.9894C30 61.9894 34 57.9894 34 52.9894C34 47.9894 30 43.9894 25 43.9894Z" fill="#A6CEFF"></path>
	</g>
	<defs>
		<clipPath id="clip0">
			<rect width="63" height="61" fill="white" transform="translate(0 0.989441)"></rect>
		</clipPath>
	</defs>
</svg>