<svg width="120" height="87" viewBox="0 0 120 87" fill="none" xmlns="http://www.w3.org/2000/svg">
<path d="M109.592 79.7684C109.731 79.2972 109.802 78.8087 109.803 78.3175C109.803 74.1765 104.766 70.8213 98.529 70.8213C92.2922 70.8213 87.2544 74.1765 87.2544 78.3175C87.2554 78.8091 87.3284 79.2979 87.471 79.7684H109.592Z" fill="white"/>
<path d="M109.592 80.272H87.471C87.3586 80.2765 87.2479 80.2432 87.1566 80.1775C87.0653 80.1118 86.9987 80.0174 86.9672 79.9093C86.8127 79.3927 86.7329 78.8566 86.7305 78.3174C86.7305 73.9043 92.0151 70.3174 98.5088 70.3174C105.003 70.3174 110.287 73.9043 110.287 78.3174C110.287 78.8568 110.207 79.3933 110.05 79.9093C110.021 80.01 109.961 80.099 109.879 80.164C109.797 80.229 109.697 80.2668 109.592 80.272ZM87.8589 79.2645H109.199C109.265 78.953 109.298 78.6357 109.3 78.3174C109.3 74.4584 104.469 71.3249 98.529 71.3249C92.5894 71.3249 87.7582 74.4584 87.7582 78.3174C87.7596 78.6357 87.7933 78.953 87.8589 79.2645Z" fill="#333333"/>
<path d="M98.5292 75.7985C98.3956 75.7985 98.2674 75.7454 98.1729 75.6509C98.0785 75.5565 98.0254 75.4283 98.0254 75.2947V70.8212C98.0254 70.6876 98.0785 70.5594 98.1729 70.4649C98.2674 70.3705 98.3956 70.3174 98.5292 70.3174C98.6628 70.3174 98.7909 70.3705 98.8854 70.4649C98.9799 70.5594 99.0329 70.6876 99.0329 70.8212V75.2947C99.0329 75.4283 98.9799 75.5565 98.8854 75.6509C98.7909 75.7454 98.6628 75.7985 98.5292 75.7985Z" fill="#E0E0E0"/>
<path d="M116.59 79.7683H3.41071C1.80532 79.7683 0.503906 81.0697 0.503906 82.6751V83.1487C0.503906 84.754 1.80532 86.0555 3.41071 86.0555H116.59C118.195 86.0555 119.496 84.754 119.496 83.1487V82.6751C119.496 81.0697 118.195 79.7683 116.59 79.7683Z" fill="#E0E0E0"/>
<path d="M116.589 86.5594H3.41058C2.50644 86.558 1.63973 86.1983 1.00041 85.559C0.361089 84.9196 0.00133255 84.0529 0 83.1488V82.6752C0.00133255 81.7711 0.361089 80.9044 1.00041 80.2651C1.63973 79.6257 2.50644 79.266 3.41058 79.2646H116.589C117.494 79.266 118.36 79.6257 119 80.2651C119.639 80.9044 119.999 81.7711 120 82.6752V83.1488C119.999 84.0529 119.639 84.9196 119 85.559C118.36 86.1983 117.494 86.558 116.589 86.5594ZM3.41058 80.2722C2.77367 80.2735 2.16322 80.5271 1.71285 80.9775C1.26249 81.4279 1.00889 82.0383 1.00756 82.6752V83.1488C1.00889 83.7857 1.26249 84.3961 1.71285 84.8465C2.16322 85.2969 2.77367 85.5505 3.41058 85.5518H116.589C117.226 85.5505 117.837 85.2969 118.287 84.8465C118.738 84.3961 118.991 83.7857 118.992 83.1488V82.6752C118.991 82.0383 118.738 81.4279 118.287 80.9775C117.837 80.5271 117.226 80.2735 116.589 80.2722H3.41058Z" fill="#333333"/>
<path d="M95.9189 4.54395H24.0801C21.3006 4.54395 19.0474 6.79718 19.0474 9.57669V61.4205C19.0474 64.2 21.3006 66.4533 24.0801 66.4533H95.9189C98.6984 66.4533 100.952 64.2 100.952 61.4205V9.57669C100.952 6.79718 98.6984 4.54395 95.9189 4.54395Z" fill="#00BBF9"/>
<path d="M95.9194 66.9571H24.0806C22.6109 66.9571 21.2014 66.3732 20.1621 65.334C19.1229 64.2947 18.5391 62.8852 18.5391 61.4155V9.57672C18.5391 8.107 19.1229 6.69749 20.1621 5.65824C21.2014 4.619 22.6109 4.03516 24.0806 4.03516H95.9194C97.3891 4.03516 98.7986 4.619 99.8379 5.65824C100.877 6.69749 101.461 8.107 101.461 9.57672V61.4155C101.461 62.8852 100.877 64.2947 99.8379 65.334C98.7986 66.3732 97.3891 66.9571 95.9194 66.9571ZM24.0806 5.04775C22.8781 5.04775 21.7249 5.52544 20.8746 6.37573C20.0243 7.22602 19.5466 8.37926 19.5466 9.58176V61.4155C19.5466 62.618 20.0243 63.7712 20.8746 64.6215C21.7249 65.4718 22.8781 65.9495 24.0806 65.9495H95.9194C97.1219 65.9495 98.2751 65.4718 99.1254 64.6215C99.9757 63.7712 100.453 62.618 100.453 61.4155V9.57672C100.453 8.37422 99.9757 7.22098 99.1254 6.37069C98.2751 5.5204 97.1219 5.04271 95.9194 5.04271L24.0806 5.04775Z" fill="#333333"/>
<path d="M74.5183 79.7682H45.4805L48.5132 66.4534H71.4855L74.5183 79.7682Z" fill="#00BBF9"/>
<path d="M74.5189 80.272H45.4811C45.4054 80.2717 45.3308 80.2543 45.2628 80.2211C45.1947 80.188 45.1351 80.14 45.0881 80.0806C45.0417 80.0216 45.009 79.9531 44.9924 79.8798C44.9758 79.8066 44.9758 79.7306 44.9924 79.6574L48.0151 66.3426C48.0407 66.2289 48.1049 66.1277 48.1967 66.056C48.2886 65.9844 48.4024 65.9468 48.5189 65.9496H71.4912C71.6076 65.9468 71.7215 65.9844 71.8133 66.056C71.9052 66.1277 71.9693 66.2289 71.9949 66.3426L75.0176 79.6574C75.0342 79.7306 75.0342 79.8066 75.0176 79.8798C75.0011 79.9531 74.9684 80.0216 74.9219 80.0806C74.8739 80.1413 74.8126 80.1902 74.7427 80.2234C74.6728 80.2566 74.5962 80.2732 74.5189 80.272ZM46.1158 79.2645H73.8841L71.0831 66.9572H48.9169L46.1158 79.2645Z" fill="#333333"/>
<path d="M95.3649 9.70288H24.6294V55.6525H95.3649V9.70288Z" fill="white"/>
<path d="M95.3698 56.1562H24.6293C24.4957 56.1562 24.3675 56.1031 24.273 56.0086C24.1786 55.9141 24.1255 55.786 24.1255 55.6524V9.70275C24.1255 9.56914 24.1786 9.441 24.273 9.34653C24.3675 9.25205 24.4957 9.19897 24.6293 9.19897H95.3698C95.5034 9.19897 95.6316 9.25205 95.7261 9.34653C95.8205 9.441 95.8736 9.56914 95.8736 9.70275V55.6524C95.8736 55.786 95.8205 55.9141 95.7261 56.0086C95.6316 56.1031 95.5034 56.1562 95.3698 56.1562ZM25.133 55.1486H94.866V10.2065H25.133V55.1486Z" fill="#333333"/>
<path d="M45.4808 9.70288H24.6294V55.6525H45.4808V9.70288Z" fill="white"/>
<path d="M45.4806 56.1562H24.6293C24.4957 56.1562 24.3675 56.1031 24.273 56.0086C24.1786 55.9141 24.1255 55.786 24.1255 55.6524V9.70275C24.1255 9.56914 24.1786 9.441 24.273 9.34653C24.3675 9.25205 24.4957 9.19897 24.6293 9.19897H45.4806C45.6143 9.19897 45.7424 9.25205 45.8369 9.34653C45.9314 9.441 45.9844 9.56914 45.9844 9.70275V55.6524C45.9844 55.786 45.9314 55.9141 45.8369 56.0086C45.7424 56.1031 45.6143 56.1562 45.4806 56.1562ZM25.133 55.1486H44.9769V10.2065H25.133V55.1486Z" fill="#333333"/>
<path d="M95.3646 9.70288H45.4805V55.6525H95.3646V9.70288Z" fill="#333333"/>
<path d="M95.3705 56.1562H45.4965C45.3628 56.1562 45.2347 56.1031 45.1402 56.0086C45.0458 55.9141 44.9927 55.786 44.9927 55.6524V9.70275C44.9927 9.56914 45.0458 9.441 45.1402 9.34653C45.2347 9.25205 45.3628 9.19897 45.4965 9.19897H95.3705C95.5041 9.19897 95.6323 9.25205 95.7267 9.34653C95.8212 9.441 95.8743 9.56914 95.8743 9.70275V55.6524C95.8743 55.786 95.8212 55.9141 95.7267 56.0086C95.6323 56.1031 95.5041 56.1562 95.3705 56.1562ZM46.0002 55.1486H94.8667V10.2065H46.0002V55.1486Z" fill="#333333"/>
<path d="M39.2036 16.02H30.7401C30.6065 16.02 30.4784 15.9669 30.3839 15.8725C30.2894 15.778 30.2363 15.6498 30.2363 15.5162C30.2363 15.3826 30.2894 15.2545 30.3839 15.16C30.4784 15.0655 30.6065 15.0125 30.7401 15.0125H39.2036C39.3372 15.0125 39.4653 15.0655 39.5598 15.16C39.6543 15.2545 39.7074 15.3826 39.7074 15.5162C39.7074 15.6498 39.6543 15.778 39.5598 15.8725C39.4653 15.9669 39.3372 16.02 39.2036 16.02Z" fill="#333333"/>
<path d="M40.6553 20.9773H33.5218C33.3882 20.9773 33.2601 20.9242 33.1656 20.8297C33.0711 20.7352 33.0181 20.6071 33.0181 20.4735C33.0181 20.3399 33.0711 20.2118 33.1656 20.1173C33.2601 20.0228 33.3882 19.9697 33.5218 19.9697H40.6553C40.789 19.9697 40.9171 20.0228 41.0116 20.1173C41.106 20.2118 41.1591 20.3399 41.1591 20.4735C41.1591 20.6071 41.106 20.7352 41.0116 20.8297C40.9171 20.9242 40.789 20.9773 40.6553 20.9773Z" fill="#333333"/>
<path d="M41.623 25.9343H35.6986C35.565 25.9343 35.4369 25.8812 35.3424 25.7868C35.2479 25.6923 35.1948 25.5641 35.1948 25.4305C35.1948 25.2969 35.2479 25.1688 35.3424 25.0743C35.4369 24.9798 35.565 24.9268 35.6986 24.9268H41.623C41.7567 24.9268 41.8848 24.9798 41.9793 25.0743C42.0737 25.1688 42.1268 25.2969 42.1268 25.4305C42.1268 25.5641 42.0737 25.6923 41.9793 25.7868C41.8848 25.8812 41.7567 25.9343 41.623 25.9343Z" fill="#333333"/>
<path d="M39.6875 30.8916H32.1913C32.0577 30.8916 31.9295 30.8385 31.8351 30.744C31.7406 30.6496 31.6875 30.5214 31.6875 30.3878C31.6875 30.2542 31.7406 30.1261 31.8351 30.0316C31.9295 29.9371 32.0577 29.884 32.1913 29.884H39.6875C39.8211 29.884 39.9492 29.9371 40.0437 30.0316C40.1382 30.1261 40.1913 30.2542 40.1913 30.3878C40.1913 30.5214 40.1382 30.6496 40.0437 30.744C39.9492 30.8385 39.8211 30.8916 39.6875 30.8916Z" fill="#333333"/>
<path d="M37.6721 35.8486H30.7401C30.6065 35.8486 30.4784 35.7955 30.3839 35.7011C30.2894 35.6066 30.2363 35.4785 30.2363 35.3448C30.2363 35.2112 30.2894 35.0831 30.3839 34.9886C30.4784 34.8941 30.6065 34.8411 30.7401 34.8411H37.6721C37.8057 34.8411 37.9338 34.8941 38.0283 34.9886C38.1228 35.0831 38.1759 35.2112 38.1759 35.3448C38.1759 35.4785 38.1228 35.6066 38.0283 35.7011C37.9338 35.7955 37.8057 35.8486 37.6721 35.8486Z" fill="#333333"/>
<path d="M39.2035 40.8061H33.0775C32.9439 40.8061 32.8158 40.7531 32.7213 40.6586C32.6268 40.5641 32.5737 40.436 32.5737 40.3024C32.5737 40.1688 32.6268 40.0406 32.7213 39.9461C32.8158 39.8517 32.9439 39.7986 33.0775 39.7986H39.2035C39.3371 39.7986 39.4652 39.8517 39.5597 39.9461C39.6542 40.0406 39.7072 40.1688 39.7072 40.3024C39.7072 40.436 39.6542 40.5641 39.5597 40.6586C39.4652 40.7531 39.3371 40.8061 39.2035 40.8061Z" fill="#333333"/>
<path d="M37.0877 45.7634H30.7401C30.6065 45.7634 30.4784 45.7103 30.3839 45.6159C30.2894 45.5214 30.2363 45.3932 30.2363 45.2596C30.2363 45.126 30.2894 44.9979 30.3839 44.9034C30.4784 44.8089 30.6065 44.7559 30.7401 44.7559H37.0877C37.2213 44.7559 37.3495 44.8089 37.4439 44.9034C37.5384 44.9979 37.5915 45.126 37.5915 45.2596C37.5915 45.3932 37.5384 45.5214 37.4439 45.6159C37.3495 45.7103 37.2213 45.7634 37.0877 45.7634Z" fill="#333333"/>
<path d="M39.2035 50.7204H33.0775C32.9439 50.7204 32.8158 50.6674 32.7213 50.5729C32.6268 50.4784 32.5737 50.3503 32.5737 50.2167C32.5737 50.0831 32.6268 49.9549 32.7213 49.8604C32.8158 49.766 32.9439 49.7129 33.0775 49.7129H39.2035C39.3371 49.7129 39.4652 49.766 39.5597 49.8604C39.6542 49.9549 39.7072 50.0831 39.7072 50.2167C39.7072 50.3503 39.6542 50.4784 39.5597 50.5729C39.4652 50.6674 39.3371 50.7204 39.2035 50.7204Z" fill="#333333"/>
<path d="M60.5044 16.02H52.0409C51.9073 16.02 51.7791 15.9669 51.6847 15.8725C51.5902 15.778 51.5371 15.6498 51.5371 15.5162C51.5371 15.3826 51.5902 15.2545 51.6847 15.16C51.7791 15.0655 51.9073 15.0125 52.0409 15.0125H60.5044C60.638 15.0125 60.7661 15.0655 60.8606 15.16C60.9551 15.2545 61.0081 15.3826 61.0081 15.5162C61.0081 15.6498 60.9551 15.778 60.8606 15.8725C60.7661 15.9669 60.638 16.02 60.5044 16.02Z" fill="white"/>
<path d="M72.1714 20.9773H54.8011C54.6675 20.9773 54.5394 20.9242 54.4449 20.8297C54.3504 20.7352 54.2974 20.6071 54.2974 20.4735C54.2974 20.3399 54.3504 20.2118 54.4449 20.1173C54.5394 20.0228 54.6675 19.9697 54.8011 19.9697H72.1714C72.305 19.9697 72.4332 20.0228 72.5276 20.1173C72.6221 20.2118 72.6752 20.3399 72.6752 20.4735C72.6752 20.6071 72.6221 20.7352 72.5276 20.8297C72.4332 20.9242 72.305 20.9773 72.1714 20.9773Z" fill="#FEE440"/>
<path d="M67.8591 25.9343H54.8011C54.6675 25.9343 54.5394 25.8812 54.4449 25.7868C54.3504 25.6923 54.2974 25.5641 54.2974 25.4305C54.2974 25.2969 54.3504 25.1688 54.4449 25.0743C54.5394 24.9798 54.6675 24.9268 54.8011 24.9268H67.8591C67.9927 24.9268 68.1208 24.9798 68.2153 25.0743C68.3098 25.1688 68.3629 25.2969 68.3629 25.4305C68.3629 25.5641 68.3098 25.6923 68.2153 25.7868C68.1208 25.8812 67.9927 25.9343 67.8591 25.9343Z" fill="#FEE440"/>
<path d="M60.9674 30.8916H53.451C53.3174 30.8916 53.1893 30.8385 53.0948 30.744C53.0003 30.6496 52.9473 30.5214 52.9473 30.3878C52.9473 30.2542 53.0003 30.1261 53.0948 30.0316C53.1893 29.9371 53.3174 29.884 53.451 29.884H60.9473C61.0809 29.884 61.209 29.9371 61.3035 30.0316C61.398 30.1261 61.451 30.2542 61.451 30.3878C61.451 30.5214 61.398 30.6496 61.3035 30.744C61.209 30.8385 61.0809 30.8916 60.9473 30.8916H60.9674Z" fill="white"/>
<path d="M63.9493 35.8486H55.4657C55.3321 35.8486 55.2039 35.7955 55.1095 35.7011C55.015 35.6066 54.9619 35.4785 54.9619 35.3448C54.9619 35.2112 55.015 35.0831 55.1095 34.9886C55.2039 34.8941 55.3321 34.8411 55.4657 34.8411H63.9292C64.0628 34.8411 64.1909 34.8941 64.2854 34.9886C64.3799 35.0831 64.4329 35.2112 64.4329 35.3448C64.4329 35.4785 64.3799 35.6066 64.2854 35.7011C64.1909 35.7955 64.0628 35.8486 63.9292 35.8486H63.9493Z" fill="#F15BB5"/>
<path d="M68.2622 40.8061H55.1942C55.0606 40.8061 54.9325 40.7531 54.838 40.6586C54.7435 40.5641 54.6904 40.436 54.6904 40.3024C54.6904 40.1688 54.7435 40.0406 54.838 39.9461C54.9325 39.8517 55.0606 39.7986 55.1942 39.7986H68.2622C68.3958 39.7986 68.524 39.8517 68.6184 39.9461C68.7129 40.0406 68.766 40.1688 68.766 40.3024C68.766 40.436 68.7129 40.5641 68.6184 40.6586C68.524 40.7531 68.3958 40.8061 68.2622 40.8061Z" fill="white"/>
<path d="M58.368 45.7634H52.0204C51.8868 45.7634 51.7586 45.7103 51.6642 45.6159C51.5697 45.5214 51.5166 45.3932 51.5166 45.2596C51.5166 45.126 51.5697 44.9979 51.6642 44.9034C51.7586 44.8089 51.8868 44.7559 52.0204 44.7559H58.368C58.5016 44.7559 58.6297 44.8089 58.7242 44.9034C58.8187 44.9979 58.8718 45.126 58.8718 45.2596C58.8718 45.3932 58.8187 45.5214 58.7242 45.6159C58.6297 45.7103 58.5016 45.7634 58.368 45.7634Z" fill="white"/>
<path d="M68.2621 50.7204H54.3578C54.2242 50.7204 54.096 50.6674 54.0016 50.5729C53.9071 50.4784 53.854 50.3503 53.854 50.2167C53.854 50.0831 53.9071 49.9549 54.0016 49.8604C54.096 49.766 54.2242 49.7129 54.3578 49.7129H68.2621C68.3957 49.7129 68.5238 49.766 68.6183 49.8604C68.7128 49.9549 68.7658 50.0831 68.7658 50.2167C68.7658 50.3503 68.7128 50.4784 68.6183 50.5729C68.5238 50.6674 68.3957 50.7204 68.2621 50.7204Z" fill="#9B5DE5"/>
<path d="M81.5819 50.7204H72.4535C72.3199 50.7204 72.1917 50.6674 72.0973 50.5729C72.0028 50.4784 71.9497 50.3503 71.9497 50.2167C71.9497 50.0831 72.0028 49.9549 72.0973 49.8604C72.1917 49.766 72.3199 49.7129 72.4535 49.7129H81.5819C81.7156 49.7129 81.8437 49.766 81.9382 49.8604C82.0326 49.9549 82.0857 50.0831 82.0857 50.2167C82.0857 50.3503 82.0326 50.4784 81.9382 50.5729C81.8437 50.6674 81.7156 50.7204 81.5819 50.7204Z" fill="#FEE440"/>
<path d="M78.6401 25.9343H72.1918C72.0582 25.9343 71.93 25.8812 71.8355 25.7868C71.7411 25.6923 71.688 25.5641 71.688 25.4305C71.688 25.2969 71.7411 25.1688 71.8355 25.0743C71.93 24.9798 72.0582 24.9268 72.1918 24.9268H78.6401C78.7737 24.9268 78.9019 24.9798 78.9964 25.0743C79.0908 25.1688 79.1439 25.2969 79.1439 25.4305C79.1439 25.5641 79.0908 25.6923 78.9964 25.7868C78.9019 25.8812 78.7737 25.9343 78.6401 25.9343Z" fill="white"/>
<path d="M87.813 20.9773H75.3949C75.2613 20.9773 75.1331 20.9242 75.0387 20.8297C74.9442 20.7352 74.8911 20.6071 74.8911 20.4735C74.8911 20.3399 74.9442 20.2118 75.0387 20.1173C75.1331 20.0228 75.2613 19.9697 75.3949 19.9697H87.813C87.9466 19.9697 88.0748 20.0228 88.1693 20.1173C88.2637 20.2118 88.3168 20.3399 88.3168 20.4735C88.3168 20.6071 88.2637 20.7352 88.1693 20.8297C88.0748 20.9242 87.9466 20.9773 87.813 20.9773Z" fill="#00BBF9"/>
<path d="M85.7531 25.9343H82.1258C81.9922 25.9343 81.8641 25.8812 81.7696 25.7868C81.6751 25.6923 81.6221 25.5641 81.6221 25.4305C81.6221 25.2969 81.6751 25.1688 81.7696 25.0743C81.8641 24.9798 81.9922 24.9268 82.1258 24.9268H85.7531C85.8867 24.9268 86.0148 24.9798 86.1093 25.0743C86.2038 25.1688 86.2568 25.2969 86.2568 25.4305C86.2568 25.5641 86.2038 25.6923 86.1093 25.7868C86.0148 25.8812 85.8867 25.9343 85.7531 25.9343Z" fill="#F15BB5"/>
<path d="M70.0758 35.8486H66.4486C66.315 35.8486 66.1869 35.7955 66.0924 35.7011C65.9979 35.6066 65.9448 35.4785 65.9448 35.3448C65.9448 35.2112 65.9979 35.0831 66.0924 34.9886C66.1869 34.8941 66.315 34.8411 66.4486 34.8411H70.0758C70.2094 34.8411 70.3376 34.8941 70.432 34.9886C70.5265 35.0831 70.5796 35.2112 70.5796 35.3448C70.5796 35.4785 70.5265 35.6066 70.432 35.7011C70.3376 35.7955 70.2094 35.8486 70.0758 35.8486Z" fill="#F15BB5"/>
<path d="M87.8136 35.8486H73.058C72.9244 35.8486 72.7962 35.7955 72.7018 35.7011C72.6073 35.6066 72.5542 35.4785 72.5542 35.3448C72.5542 35.2112 72.6073 35.0831 72.7018 34.9886C72.7962 34.8941 72.9244 34.8411 73.058 34.8411H87.8136C87.9473 34.8411 88.0754 34.8941 88.1699 34.9886C88.2643 35.0831 88.3174 35.2112 88.3174 35.3448C88.3174 35.4785 88.2643 35.6066 88.1699 35.7011C88.0754 35.7955 87.9473 35.8486 87.8136 35.8486Z" fill="#FEE440"/>
<path d="M75.3954 40.8061H72.1713C72.0376 40.8061 71.9095 40.7531 71.815 40.6586C71.7206 40.5641 71.6675 40.436 71.6675 40.3024C71.6675 40.1688 71.7206 40.0406 71.815 39.9461C71.9095 39.8517 72.0376 39.7986 72.1713 39.7986H75.3954C75.529 39.7986 75.6572 39.8517 75.7517 39.9461C75.8461 40.0406 75.8992 40.1688 75.8992 40.3024C75.8992 40.436 75.8461 40.5641 75.7517 40.6586C75.6572 40.7531 75.529 40.8061 75.3954 40.8061Z" fill="#00BBF9"/>
<path d="M87.8137 50.7204H85.7533C85.6197 50.7204 85.4915 50.6674 85.3971 50.5729C85.3026 50.4784 85.2495 50.3503 85.2495 50.2167C85.2495 50.0831 85.3026 49.9549 85.3971 49.8604C85.4915 49.766 85.6197 49.7129 85.7533 49.7129H87.8137C87.9474 49.7129 88.0755 49.766 88.17 49.8604C88.2645 49.9549 88.3175 50.0831 88.3175 50.2167C88.3175 50.3503 88.2645 50.4784 88.17 50.5729C88.0755 50.6674 87.9474 50.7204 87.8137 50.7204Z" fill="white"/>
<path d="M114.901 0.503662H84.0349C82.8218 0.503662 81.8384 1.48706 81.8384 2.70014V26.1762C81.8384 27.3893 82.8218 28.3727 84.0349 28.3727H114.901C116.114 28.3727 117.098 27.3893 117.098 26.1762V2.70014C117.098 1.48706 116.114 0.503662 114.901 0.503662Z" fill="white"/>
<path d="M114.912 28.8766H84.0357C83.32 28.8752 82.6339 28.5903 82.1278 28.0842C81.6217 27.5781 81.3368 26.8921 81.3354 26.1763V2.70025C81.3368 1.98451 81.6217 1.29846 82.1278 0.792358C82.6339 0.286251 83.32 0.00133162 84.0357 0H114.912C115.628 0.00133162 116.314 0.286251 116.82 0.792358C117.326 1.29846 117.611 1.98451 117.613 2.70025V26.1763C117.611 26.8921 117.326 27.5781 116.82 28.0842C116.314 28.5903 115.628 28.8752 114.912 28.8766ZM84.0357 1.00756C83.5872 1.00889 83.1574 1.18765 82.8403 1.5048C82.5231 1.82196 82.3443 2.25173 82.343 2.70025V26.1763C82.3443 26.6248 82.5231 27.0546 82.8403 27.3718C83.1574 27.6889 83.5872 27.8677 84.0357 27.869H114.912C115.361 27.8677 115.791 27.6889 116.108 27.3718C116.425 27.0546 116.604 26.6248 116.605 26.1763V2.70025C116.604 2.25173 116.425 1.82196 116.108 1.5048C115.791 1.18765 115.361 1.00889 114.912 1.00756H84.0357Z" fill="#333333"/>
<path d="M117.098 7.37548H81.8339C81.7002 7.37548 81.5721 7.3224 81.4776 7.22792C81.3832 7.13344 81.3301 7.00531 81.3301 6.8717C81.3301 6.73809 81.3832 6.60995 81.4776 6.51547C81.5721 6.421 81.7002 6.36792 81.8339 6.36792H117.098C117.232 6.36792 117.36 6.421 117.455 6.51547C117.549 6.60995 117.602 6.73809 117.602 6.8717C117.602 7.00531 117.549 7.13344 117.455 7.22792C117.36 7.3224 117.232 7.37548 117.098 7.37548Z" fill="#333333"/>
<path d="M85.2138 4.61454C85.773 4.61454 86.2264 4.16119 86.2264 3.60195C86.2264 3.04271 85.773 2.58936 85.2138 2.58936C84.6545 2.58936 84.2012 3.04271 84.2012 3.60195C84.2012 4.16119 84.6545 4.61454 85.2138 4.61454Z" fill="#00BBF9"/>
<path d="M88.3983 4.61454C88.9576 4.61454 89.4109 4.16119 89.4109 3.60195C89.4109 3.04271 88.9576 2.58936 88.3983 2.58936C87.8391 2.58936 87.3857 3.04271 87.3857 3.60195C87.3857 4.16119 87.8391 4.61454 88.3983 4.61454Z" fill="#333333"/>
<path d="M91.577 4.61454C92.1363 4.61454 92.5896 4.16119 92.5896 3.60195C92.5896 3.04271 92.1363 2.58936 91.577 2.58936C91.0178 2.58936 90.5645 3.04271 90.5645 3.60195C90.5645 4.16119 91.0178 4.61454 91.577 4.61454Z" fill="#333333"/>
<path d="M95.1281 21.7129C95.0117 21.7146 94.8987 21.6734 94.8107 21.597L90.0651 17.6676C90.0081 17.6203 89.9622 17.561 89.9307 17.494C89.8992 17.4269 89.8828 17.3538 89.8828 17.2797C89.8828 17.2056 89.8992 17.1324 89.9307 17.0654C89.9622 16.9983 90.0081 16.939 90.0651 16.8918L94.8107 12.9572C94.9145 12.882 95.0431 12.8492 95.1702 12.8654C95.2974 12.8816 95.4136 12.9457 95.4951 13.0446C95.5767 13.1435 95.6175 13.2697 95.6092 13.3977C95.6009 13.5256 95.5442 13.6455 95.4505 13.7331L91.1785 17.2595L95.4505 20.786C95.5016 20.8283 95.5437 20.8802 95.5746 20.9388C95.6055 20.9974 95.6246 21.0616 95.6307 21.1275C95.6367 21.1935 95.6297 21.2601 95.6101 21.3233C95.5904 21.3866 95.5585 21.4454 95.516 21.4963C95.4722 21.5597 95.4145 21.6121 95.3473 21.6497C95.28 21.6872 95.205 21.7089 95.1281 21.7129Z" fill="#00BBF9"/>
<path d="M103.829 21.7129C103.755 21.713 103.682 21.6968 103.615 21.6655C103.548 21.6341 103.488 21.5884 103.441 21.5315C103.399 21.4806 103.367 21.4218 103.347 21.3586C103.327 21.2953 103.32 21.2288 103.326 21.1628C103.332 21.0968 103.351 21.0326 103.382 20.974C103.413 20.9154 103.455 20.8635 103.506 20.8212L107.779 17.2947L103.506 13.7683C103.456 13.726 103.413 13.674 103.383 13.6154C103.352 13.5568 103.333 13.4927 103.327 13.4267C103.321 13.3607 103.327 13.2942 103.347 13.231C103.367 13.1677 103.399 13.1089 103.441 13.058C103.483 13.007 103.535 12.9649 103.594 12.9341C103.652 12.9032 103.717 12.8842 103.783 12.8781C103.849 12.872 103.915 12.879 103.978 12.8986C104.042 12.9182 104.1 12.9501 104.151 12.9925L108.867 16.8917C108.924 16.939 108.97 16.9983 109.001 17.0653C109.033 17.1324 109.049 17.2055 109.049 17.2796C109.049 17.3537 109.033 17.4269 109.001 17.4939C108.97 17.561 108.924 17.6203 108.867 17.6675L104.131 21.6172C104.043 21.6808 103.937 21.7143 103.829 21.7129Z" fill="#00BBF9"/>
<path d="M96.9216 24.0553C96.8526 24.0541 96.7843 24.0404 96.7201 24.015C96.6595 23.9882 96.6048 23.9498 96.5591 23.9019C96.5134 23.854 96.4776 23.7975 96.4538 23.7358C96.4299 23.674 96.4185 23.6081 96.4201 23.542C96.4217 23.4758 96.4363 23.4105 96.4632 23.35L102.005 10.8009C102.031 10.7403 102.07 10.6856 102.118 10.6399C102.166 10.5943 102.222 10.5585 102.284 10.5346C102.346 10.5107 102.412 10.4993 102.478 10.5009C102.544 10.5025 102.609 10.5171 102.67 10.544C102.73 10.5707 102.785 10.6092 102.831 10.6571C102.876 10.705 102.912 10.7614 102.936 10.8232C102.96 10.885 102.971 10.9508 102.97 11.017C102.968 11.0832 102.953 11.1484 102.927 11.209L97.3851 23.7581C97.345 23.8472 97.2798 23.9228 97.1975 23.9756C97.1152 24.0284 97.0194 24.0561 96.9216 24.0553Z" fill="#00BBF9"/>
<path d="M36.9015 58.5037H13.4456C12.38 58.5037 11.5161 59.3675 11.5161 60.4331V71.1787C11.5161 72.2443 12.38 73.1082 13.4456 73.1082H36.9015C37.9671 73.1082 38.831 72.2443 38.831 71.1787V60.4331C38.831 59.3675 37.9671 58.5037 36.9015 58.5037Z" fill="white"/>
<path d="M36.9014 73.6171H13.4455C12.8005 73.6158 12.1824 73.359 11.7264 72.903C11.2703 72.4469 11.0135 71.8288 11.0122 71.1839V60.4332C11.0135 59.7883 11.2703 59.1702 11.7264 58.7141C12.1824 58.2581 12.8005 58.0013 13.4455 58H36.9014C37.2209 58 37.5373 58.0629 37.8325 58.1852C38.1278 58.3075 38.396 58.4867 38.6219 58.7127C38.8479 58.9386 39.0271 59.2069 39.1494 59.5021C39.2717 59.7973 39.3346 60.1137 39.3346 60.4332V71.1839C39.3346 71.8292 39.0783 72.4481 38.6219 72.9044C38.1656 73.3608 37.5467 73.6171 36.9014 73.6171ZM13.4455 59.0076C13.0673 59.0076 12.7047 59.1578 12.4373 59.4251C12.17 59.6925 12.0198 60.0551 12.0198 60.4332V71.1839C12.0198 71.562 12.17 71.9246 12.4373 72.192C12.7047 72.4594 13.0673 72.6096 13.4455 72.6096H36.9014C37.0886 72.6096 37.274 72.5727 37.447 72.501C37.6199 72.4294 37.7771 72.3244 37.9095 72.192C38.0419 72.0596 38.1469 71.9024 38.2185 71.7295C38.2902 71.5565 38.3271 71.3711 38.3271 71.1839V60.4332C38.3271 60.246 38.2902 60.0606 38.2185 59.8877C38.1469 59.7147 38.0419 59.5575 37.9095 59.4251C37.7771 59.2927 37.6199 59.1877 37.447 59.1161C37.274 59.0444 37.0886 59.0076 36.9014 59.0076H13.4455Z" fill="white"/>
<path d="M17.103 63.5869H17.8637V65.2897H19.8788V63.5869H20.6396V67.869H19.8788V65.9799H17.8637V67.869H17.103V63.5869Z" fill="#333333"/>
<path d="M22.4589 64.2771H21.144V63.5869H24.5294V64.2771H23.2246V67.869H22.4639L22.4589 64.2771Z" fill="#333333"/>
<path d="M25.0684 63.5869H26.2472L27.3908 66.5844L28.5444 63.5869H29.693V67.869H28.9676V64.3124L27.6679 67.869H27.1036L25.8089 64.3124V67.869H25.0835L25.0684 63.5869Z" fill="#333333"/>
<path d="M30.6499 63.5869H31.4106V67.1789H33.2292V67.869H30.6499V63.5869Z" fill="#333333"/>
</svg>
