<svg width="110" height="92" viewBox="0 0 110 92" fill="none" xmlns="http://www.w3.org/2000/svg">
<path d="M0.643555 81.5725H109.355V85.353C109.355 86.7075 108.817 88.0065 107.86 88.9643C106.902 89.922 105.603 90.4601 104.248 90.4601H5.7507C4.3962 90.4601 3.09718 89.922 2.1394 88.9643C1.18163 88.0065 0.643555 86.7075 0.643555 85.353V81.5725Z" fill="white"/>
<path d="M104.249 91.1041H5.75117C4.2275 91.1024 2.76663 90.4968 1.68863 89.42C0.610633 88.3432 0.00340771 86.883 0 85.3594V81.5725C0 81.4017 0.0678523 81.2379 0.188631 81.1171C0.30941 80.9963 0.473221 80.9285 0.644028 80.9285H109.356C109.527 80.9285 109.691 80.9963 109.811 81.1171C109.932 81.2379 110 81.4017 110 81.5725V85.3594C109.997 86.883 109.389 88.3432 108.311 89.42C107.233 90.4968 105.772 91.1024 104.249 91.1041ZM1.28806 82.2165V85.3594C1.28976 86.542 1.76074 87.6755 2.59755 88.5111C3.43436 89.3467 4.56859 89.8161 5.75117 89.8161H104.249C105.431 89.8161 106.566 89.3467 107.402 88.5111C108.239 87.6755 108.71 86.542 108.712 85.3594V82.2165H1.28806Z" fill="#333333"/>
<path d="M12.4941 19.9651H97.5058C98.7015 19.9651 99.8481 20.4401 100.694 21.2855C101.539 22.131 102.014 23.2776 102.014 24.4733V81.5471H7.98591V24.499C7.98252 23.9049 8.09662 23.3159 8.32166 22.7659C8.54669 22.216 8.87823 21.716 9.29719 21.2946C9.71615 20.8732 10.2143 20.5389 10.7629 20.3107C11.3116 20.0825 11.8999 19.9651 12.4941 19.9651Z" fill="#00BBF9"/>
<path d="M102.014 82.2167H7.98631C7.81551 82.2167 7.65169 82.1489 7.53092 82.0281C7.41014 81.9073 7.34229 81.7435 7.34229 81.5727V24.4989C7.34229 23.1324 7.8851 21.822 8.85133 20.8557C9.81756 19.8895 11.1281 19.3467 12.4945 19.3467H97.5062C98.8727 19.3467 100.183 19.8895 101.149 20.8557C102.116 21.822 102.658 23.1324 102.658 24.4989V81.5727C102.658 81.7435 102.591 81.9073 102.47 82.0281C102.349 82.1489 102.185 82.2167 102.014 82.2167ZM8.63034 80.9286H101.37V24.4989C101.37 23.4741 100.963 22.4912 100.239 21.7665C99.5139 21.0419 98.5311 20.6347 97.5062 20.6347H12.4945C11.4697 20.6347 10.4868 21.0419 9.76213 21.7665C9.03746 22.4912 8.63034 23.4741 8.63034 24.4989V80.9286Z" fill="#333333"/>
<path d="M95.0006 27.2231H15.0059V74.6945H95.0006V27.2231Z" fill="white"/>
<path d="M94.9946 75.332H15.0063C14.8355 75.332 14.6717 75.2642 14.5509 75.1434C14.4302 75.0226 14.3623 74.8588 14.3623 74.688V27.2231C14.3623 27.0523 14.4302 26.8885 14.5509 26.7677C14.6717 26.647 14.8355 26.5791 15.0063 26.5791H94.9946C95.1654 26.5791 95.3292 26.647 95.45 26.7677C95.5708 26.8885 95.6387 27.0523 95.6387 27.2231V74.688C95.6387 74.8588 95.5708 75.0226 95.45 75.1434C95.3292 75.2642 95.1654 75.332 94.9946 75.332ZM15.6504 74.044H94.3506V27.8672H15.6504V74.044Z" fill="#333333"/>
<path d="M46.7242 81.5725H63.2822V82.5128C63.2822 83.3139 62.9639 84.0822 62.3975 84.6486C61.831 85.2151 61.0628 85.5333 60.2617 85.5333H49.7383C48.9372 85.5333 48.1689 85.2151 47.6025 84.6486C47.036 84.0822 46.7178 83.3139 46.7178 82.5128V81.5725H46.7242Z" fill="#333333"/>
<path d="M60.2621 86.1773H49.7387C48.7684 86.1739 47.839 85.7865 47.1535 85.0998C46.468 84.4132 46.0823 83.483 46.0806 82.5128V81.5725C46.0806 81.4017 46.1484 81.2379 46.2692 81.1171C46.39 80.9963 46.5538 80.9285 46.7246 80.9285H63.2761C63.4469 80.9285 63.6107 80.9963 63.7315 81.1171C63.8523 81.2379 63.9202 81.4017 63.9202 81.5725V82.5128C63.9185 83.483 63.5327 84.4132 62.8472 85.0998C62.1618 85.7865 61.2323 86.1739 60.2621 86.1773ZM47.3815 82.2165V82.5128C47.3815 83.1419 47.631 83.7454 48.0753 84.1909C48.5196 84.6364 49.1224 84.8875 49.7515 84.8892H60.275C60.9041 84.8875 61.5069 84.6364 61.9512 84.1909C62.3955 83.7454 62.645 83.1419 62.645 82.5128V82.2165H47.3815Z" fill="#333333"/>
<path d="M55.0003 23.7581C55.3489 23.7581 55.6314 23.4756 55.6314 23.127C55.6314 22.7784 55.3489 22.4958 55.0003 22.4958C54.6517 22.4958 54.3691 22.7784 54.3691 23.127C54.3691 23.4756 54.6517 23.7581 55.0003 23.7581Z" fill="#00BBF9"/>
<path d="M55 24.4023C54.7452 24.4023 54.4962 24.3267 54.2844 24.1852C54.0725 24.0437 53.9074 23.8425 53.81 23.6071C53.7125 23.3718 53.687 23.1128 53.7367 22.8629C53.7864 22.6131 53.909 22.3836 54.0892 22.2034C54.2693 22.0233 54.4988 21.9006 54.7487 21.8509C54.9985 21.8012 55.2575 21.8267 55.4929 21.9242C55.7282 22.0217 55.9294 22.1868 56.0709 22.3986C56.2125 22.6104 56.288 22.8595 56.288 23.1142C56.288 23.4558 56.1523 23.7835 55.9108 24.025C55.6692 24.2666 55.3416 24.4023 55 24.4023ZM55 23.1142H55.644H55Z" fill="#333333"/>
<path d="M86.1906 5.59009H23.8101V74.6879H86.1906V5.59009Z" fill="white"/>
<path d="M86.1901 75.3319H23.8096C23.6387 75.3319 23.4749 75.2641 23.3542 75.1433C23.2334 75.0225 23.1655 74.8587 23.1655 74.6879V5.6223C23.1655 5.45149 23.2334 5.28768 23.3542 5.1669C23.4749 5.04612 23.6387 4.97827 23.8096 4.97827H86.1901C86.3609 4.97827 86.5247 5.04612 86.6455 5.1669C86.7663 5.28768 86.8341 5.45149 86.8341 5.6223V74.6879C86.8341 74.8587 86.7663 75.0225 86.6455 75.1433C86.5247 75.2641 86.3609 75.3319 86.1901 75.3319ZM24.4536 74.0439H85.5461V6.26633H24.4536V74.0439Z" fill="#333333"/>
<path d="M73.8439 31.4929C73.8487 33.2349 73.6102 34.9691 73.1355 36.6451C72.7662 37.9888 72.2432 39.2854 71.5769 40.5093C69.9522 43.4867 67.5552 45.9712 64.6381 47.7018C61.721 49.4323 58.3915 50.3449 54.9996 50.3436C54.5553 50.3436 54.1173 50.3436 53.7116 50.2921C50.3484 50.0593 47.1093 48.9283 44.3322 47.017C41.5552 45.1058 39.3419 42.4843 37.9233 39.426C36.5047 36.3678 35.9328 32.9849 36.2673 29.6303C36.6017 26.2757 37.8303 23.0724 39.8247 20.3544C41.8192 17.6365 44.5065 15.5036 47.6063 14.1782C50.7061 12.8529 54.1047 12.3836 57.4476 12.8195C60.7906 13.2553 63.9553 14.5803 66.6116 16.6562C69.2679 18.732 71.3185 21.4826 72.5494 24.6211C73.4107 26.8095 73.85 29.1411 73.8439 31.4929Z" fill="#15E2C6"/>
<path d="M54.9997 50.9877C54.4716 50.9877 54.0401 50.9877 53.6279 50.9362C50.1508 50.6921 46.8028 49.5196 43.9332 47.5409C41.0635 45.5623 38.7773 42.8499 37.3129 39.6868C35.8485 36.5236 35.2596 33.0255 35.6076 29.5572C35.9556 26.089 37.2277 22.7776 39.2913 19.9684C41.3549 17.1592 44.1344 14.9551 47.34 13.586C50.5455 12.2169 54.0597 11.7329 57.516 12.1844C60.9723 12.636 64.2441 14.0066 66.9903 16.1533C69.7365 18.3001 71.8565 21.1443 73.1291 24.3893C74.0171 26.6455 74.4715 29.049 74.4687 31.4736C74.4717 33.2676 74.2268 35.0534 73.7409 36.7804C73.3591 38.1667 72.8188 39.5043 72.1309 40.767C70.4578 43.8532 67.9837 46.4313 64.9689 48.23C61.9541 50.0286 58.5103 50.9813 54.9997 50.9877ZM54.9997 13.3056C50.2846 13.3035 45.7528 15.132 42.3595 18.4058C38.9661 21.6795 36.9763 26.1428 36.8093 30.855C36.6422 35.5671 38.3111 40.1601 41.4642 43.6658C44.6173 47.1716 49.0082 49.3164 53.7117 49.6481C54.1399 49.6871 54.5698 49.7043 54.9997 49.6996C58.2766 49.6942 61.4917 48.807 64.3076 47.131C67.1235 45.4551 69.4365 43.0522 71.0038 40.1744C71.6412 38.9942 72.1425 37.7454 72.498 36.452C73.2632 33.7468 73.3912 30.9011 72.8718 28.1381C72.3524 25.3752 71.1998 22.7702 69.5045 20.5276C67.8091 18.285 65.6171 16.4658 63.1004 15.2128C60.5838 13.9597 57.811 13.3069 54.9997 13.3056Z" fill="#333333"/>
<path d="M73.8441 31.4928C73.8489 33.2348 73.6104 34.9689 73.1356 36.645C72.7664 37.9887 72.2434 39.2853 71.5771 40.5092L55.0127 31.4928V12.6614C60.005 12.6682 64.7909 14.6544 68.321 18.1845C71.8511 21.7146 73.8373 26.5005 73.8441 31.4928Z" fill="#FEE440"/>
<path d="M71.584 41.1277C71.4761 41.1282 71.3698 41.1016 71.2749 41.0504L54.704 32.034C54.6024 31.9784 54.5176 31.8964 54.4587 31.7966C54.3998 31.6969 54.3688 31.5831 54.3691 31.4672V12.6616C54.3691 12.4908 54.437 12.327 54.5578 12.2062C54.6786 12.0854 54.8424 12.0176 55.0132 12.0176C58.0222 12.0224 60.9894 12.7235 63.6824 14.066C66.3754 15.4085 68.7211 17.356 70.5362 19.756C72.3512 22.1561 73.5861 24.9436 74.1445 27.9004C74.7028 30.8572 74.5693 33.9032 73.7544 36.7998C73.3725 38.186 72.8323 39.5237 72.1443 40.7863C72.1049 40.8613 72.051 40.9278 71.9858 40.982C71.9206 41.0361 71.8453 41.0769 71.7643 41.1019C71.706 41.1199 71.6451 41.1286 71.584 41.1277ZM55.6443 31.1066L71.3006 39.6013C72.6434 36.8763 73.2832 33.8586 73.1618 30.8232C73.0404 27.7877 72.1616 24.8308 70.6055 22.2218C69.0494 19.6127 66.8654 17.4343 64.2523 15.8849C61.6392 14.3355 58.6801 13.4643 55.6443 13.3507V31.1066Z" fill="#333333"/>
<path d="M73.8441 31.4931C73.8489 33.2351 73.6104 34.9693 73.1356 36.6453C72.7664 37.989 72.2434 39.2856 71.5771 40.5095L55.0127 31.4931L72.5367 24.6213C73.4024 26.8088 73.846 29.1405 73.8441 31.4931Z" fill="#FE4C40"/>
<path d="M71.5836 41.1277C71.4757 41.1282 71.3694 41.1016 71.2745 41.0504L54.7036 32.034C54.5957 31.9756 54.5068 31.8876 54.4472 31.7803C54.3877 31.6731 54.36 31.551 54.3674 31.4286C54.3748 31.3061 54.4171 31.1883 54.4892 31.0891C54.5614 30.9898 54.6603 30.9132 54.7745 30.8683L72.3049 23.9965C72.463 23.9352 72.6389 23.9386 72.7944 24.0061C72.95 24.0737 73.0726 24.1998 73.1357 24.3572C74.0275 26.6125 74.4843 29.0163 74.4817 31.4415C74.4847 33.2355 74.2398 35.0213 73.754 36.7483C73.3721 38.1345 72.8319 39.4722 72.1439 40.7348C72.1045 40.8098 72.0506 40.8763 71.9854 40.9305C71.9202 40.9846 71.8449 41.0254 71.764 41.0504C71.7087 41.0862 71.6477 41.1123 71.5836 41.1277ZM56.5327 31.5896L71.3453 39.6013C72.4209 37.4146 73.0505 35.0356 73.1976 32.6031C73.3447 30.1706 73.0062 27.7331 72.2019 25.4327L56.5327 31.5896Z" fill="#333333"/>
<path d="M75.6737 55.8567H34.3271C34.1563 55.8567 33.9925 55.7888 33.8717 55.668C33.751 55.5473 33.6831 55.3834 33.6831 55.2126C33.6831 55.0418 33.751 54.878 33.8717 54.7572C33.9925 54.6365 34.1563 54.5686 34.3271 54.5686H75.6737C75.8446 54.5686 76.0084 54.6365 76.1291 54.7572C76.2499 54.878 76.3178 55.0418 76.3178 55.2126C76.3178 55.3834 76.2499 55.5473 76.1291 55.668C76.0084 55.7888 75.8446 55.8567 75.6737 55.8567Z" fill="#DFEAEF"/>
<path d="M75.6737 62.1552H34.3271C34.1563 62.1552 33.9925 62.0874 33.8717 61.9666C33.751 61.8458 33.6831 61.682 33.6831 61.5112C33.6831 61.3404 33.751 61.1766 33.8717 61.0558C33.9925 60.935 34.1563 60.8672 34.3271 60.8672H75.6737C75.8446 60.8672 76.0084 60.935 76.1291 61.0558C76.2499 61.1766 76.3178 61.3404 76.3178 61.5112C76.3178 61.682 76.2499 61.8458 76.1291 61.9666C76.0084 62.0874 75.8446 62.1552 75.6737 62.1552Z" fill="#DFEAEF"/>
<path d="M63.2762 68.4409H34.3271C34.1563 68.4409 33.9925 68.373 33.8717 68.2523C33.751 68.1315 33.6831 67.9677 33.6831 67.7969C33.6831 67.6261 33.751 67.4622 33.8717 67.3415C33.9925 67.2207 34.1563 67.1528 34.3271 67.1528H63.2762C63.447 67.1528 63.6108 67.2207 63.7316 67.3415C63.8524 67.4622 63.9202 67.6261 63.9202 67.7969C63.9202 67.9677 63.8524 68.1315 63.7316 68.2523C63.6108 68.373 63.447 68.4409 63.2762 68.4409Z" fill="#DFEAEF"/>
<path d="M107.765 45.0691H82.1972C81.3186 45.0691 80.6064 45.7813 80.6064 46.6598V66.2061C80.6064 67.0846 81.3186 67.7968 82.1972 67.7968H107.765C108.644 67.7968 109.356 67.0846 109.356 66.2061V46.6598C109.356 45.7813 108.644 45.0691 107.765 45.0691Z" fill="white"/>
<path d="M107.765 68.4409H82.1967C81.604 68.4409 81.0356 68.2054 80.6165 67.7863C80.1974 67.3672 79.9619 66.7988 79.9619 66.2061V46.6598C79.9619 46.0671 80.1974 45.4987 80.6165 45.0796C81.0356 44.6605 81.604 44.425 82.1967 44.425H107.765C108.357 44.4267 108.924 44.6627 109.343 45.0815C109.762 45.5002 109.998 46.0677 109.999 46.6598V66.2061C109.998 66.7983 109.762 67.3657 109.343 67.7844C108.924 68.2032 108.357 68.4392 107.765 68.4409ZM82.1967 45.7131C81.9456 45.7131 81.7048 45.8129 81.5273 45.9904C81.3497 46.1679 81.25 46.4087 81.25 46.6598V66.2061C81.25 66.4572 81.3497 66.698 81.5273 66.8755C81.7048 67.0531 81.9456 67.1528 82.1967 67.1528H107.765C108.016 67.1528 108.257 67.0531 108.434 66.8755C108.612 66.698 108.711 66.4572 108.711 66.2061V46.6598C108.711 46.4087 108.612 46.1679 108.434 45.9904C108.257 45.8129 108.016 45.7131 107.765 45.7131H82.1967Z" fill="#333333"/>
<path d="M86.1906 0.643799H23.8101V5.59638H86.1906V0.643799Z" fill="white"/>
<path d="M86.1901 6.2664H23.8096C23.6387 6.2664 23.4749 6.19854 23.3542 6.07776C23.2334 5.95699 23.1655 5.79317 23.1655 5.62237V0.644028C23.1655 0.473221 23.2334 0.309415 23.3542 0.188636C23.4749 0.0678572 23.6387 0 23.8096 0H86.1901C86.3609 0 86.5247 0.0678572 86.6455 0.188636C86.7663 0.309415 86.8341 0.473221 86.8341 0.644028V5.62237C86.8341 5.79317 86.7663 5.95699 86.6455 6.07776C86.5247 6.19854 86.3609 6.2664 86.1901 6.2664ZM24.4536 4.97834H85.5461V1.28806H24.4536V4.97834Z" fill="#333333"/>
<path d="M27.5317 3.78062C27.9976 3.78062 28.3753 3.40289 28.3753 2.93694C28.3753 2.47099 27.9976 2.09326 27.5317 2.09326C27.0657 2.09326 26.688 2.47099 26.688 2.93694C26.688 3.40289 27.0657 3.78062 27.5317 3.78062Z" fill="#333333"/>
<path d="M30.3276 3.78062C30.7935 3.78062 31.1712 3.40289 31.1712 2.93694C31.1712 2.47099 30.7935 2.09326 30.3276 2.09326C29.8616 2.09326 29.4839 2.47099 29.4839 2.93694C29.4839 3.40289 29.8616 3.78062 30.3276 3.78062Z" fill="#DFEAEF"/>
<path d="M33.1283 3.78062C33.5943 3.78062 33.972 3.40289 33.972 2.93694C33.972 2.47099 33.5943 2.09326 33.1283 2.09326C32.6624 2.09326 32.2847 2.47099 32.2847 2.93694C32.2847 3.40289 32.6624 3.78062 33.1283 3.78062Z" fill="#DFEAEF"/>
<path d="M106.233 63.701H85.3213C85.1505 63.701 84.9867 63.6331 84.8659 63.5124C84.7451 63.3916 84.6772 63.2278 84.6772 63.057V49.8093C84.6772 49.6385 84.7451 49.4747 84.8659 49.3539C84.9867 49.2331 85.1505 49.1653 85.3213 49.1653C85.4921 49.1653 85.6559 49.2331 85.7767 49.3539C85.8975 49.4747 85.9653 49.6385 85.9653 49.8093V62.4129H106.233C106.404 62.4129 106.567 62.4808 106.688 62.6016C106.809 62.7224 106.877 62.8862 106.877 63.057C106.877 63.2278 106.809 63.3916 106.688 63.5124C106.567 63.6331 106.404 63.701 106.233 63.701Z" fill="#333333"/>
<path d="M85.3211 63.7008C85.1654 63.7024 85.0144 63.6475 84.8961 63.5463C84.7672 63.4344 84.688 63.2758 84.6759 63.1056C84.6639 62.9353 84.7199 62.7672 84.8317 62.6382L91.5811 54.8004C91.6895 54.6761 91.8414 54.5982 92.0056 54.5826C92.1697 54.567 92.3336 54.615 92.4634 54.7166L97.0231 58.3361L102.897 51.8443C102.954 51.7809 103.022 51.7294 103.099 51.6927C103.176 51.6561 103.259 51.6351 103.345 51.6309C103.43 51.6267 103.515 51.6394 103.595 51.6683C103.675 51.6972 103.748 51.7417 103.811 51.7992C103.937 51.9138 104.013 52.0737 104.021 52.2439C104.03 52.4141 103.97 52.5807 103.856 52.7073L97.5706 59.6435C97.4607 59.764 97.3091 59.8383 97.1466 59.8515C96.984 59.8646 96.8225 59.8156 96.6947 59.7143L92.1478 56.1142L85.8042 63.4754C85.7444 63.5453 85.6704 63.6016 85.5871 63.6404C85.5037 63.6793 85.4131 63.6999 85.3211 63.7008Z" fill="#333333"/>
<path d="M20.9584 65.0502L19.21 62.3845L13.6254 66.0473L15.3738 68.713L20.9584 65.0502Z" fill="white"/>
<path d="M15.3858 69.3811C15.2787 69.3817 15.1731 69.3554 15.0786 69.3048C14.9841 69.2542 14.9038 69.1808 14.8449 69.0913L13.0995 66.4251C13.0046 66.2832 12.9699 66.1095 13.0029 65.942C13.038 65.7755 13.1376 65.6296 13.2799 65.5363L18.87 61.8718C19.0128 61.7792 19.1864 61.7468 19.3529 61.7818C19.5195 61.8168 19.6654 61.9163 19.7588 62.0585L21.5041 64.7248C21.5967 64.8676 21.629 65.0412 21.594 65.2077C21.559 65.3743 21.4596 65.5202 21.3173 65.6136L15.7143 69.2523C15.6189 69.325 15.5052 69.3696 15.3858 69.3811ZM14.5293 66.2576L15.5662 67.8484L20.0744 64.8923L19.0375 63.3015L14.5293 66.2576Z" fill="#333333"/>
<path d="M25.7951 62.8909L23.1143 58.8035L17.5297 62.4663L20.2106 66.5537L25.7951 62.8909Z" fill="white"/>
<path d="M20.2228 67.2044C20.1156 67.2049 20.01 67.1786 19.9156 67.128C19.8211 67.0774 19.7407 67.0041 19.6818 66.9145L17.0026 62.825C16.9555 62.7544 16.9227 62.6753 16.9063 62.592C16.8898 62.5088 16.89 62.4231 16.9067 62.3399C16.9235 62.2567 16.9565 62.1776 17.0039 62.1073C17.0513 62.0369 17.1122 61.9766 17.183 61.9298L22.7667 58.2717C22.8372 58.2245 22.9164 58.1918 22.9997 58.1753C23.0829 58.1589 23.1686 58.159 23.2518 58.1758C23.335 58.1925 23.414 58.2256 23.4844 58.273C23.5548 58.3204 23.6151 58.3812 23.6619 58.452L26.3411 62.5416C26.436 62.6834 26.4707 62.8572 26.4377 63.0246C26.4004 63.1919 26.3015 63.339 26.1607 63.4368L20.5706 67.0949C20.4676 67.1641 20.3468 67.2021 20.2228 67.2044ZM18.4324 62.6575L20.4031 65.6651L24.9113 62.709L22.9342 59.7208L18.4324 62.6575Z" fill="#333333"/>
<path d="M16.016 67.9719L14.5643 65.7586C14.2249 65.2411 13.5302 65.0967 13.0127 65.4361L2.09127 72.5992C1.57376 72.9387 1.42938 73.6333 1.76881 74.1509L3.2205 76.3642C3.55993 76.8817 4.25462 77.0261 4.77214 76.6867L15.6935 69.5236C16.211 69.1841 16.3554 68.4894 16.016 67.9719Z" fill="white"/>
<path d="M4.16672 77.5154C4.04545 77.5156 3.92453 77.5026 3.80606 77.4767C3.57744 77.4329 3.36016 77.3428 3.16749 77.2122C2.97482 77.0815 2.8108 76.913 2.68545 76.7168L1.23639 74.5335C1.10889 74.3401 1.02089 74.1233 0.977458 73.8957C0.934021 73.6681 0.936004 73.4342 0.983285 73.2073C1.03057 72.9805 1.12222 72.7652 1.25297 72.5739C1.38372 72.3827 1.55099 72.2191 1.74517 72.0927L12.6614 64.8731C12.8549 64.7456 13.0717 64.6576 13.2993 64.6142C13.5269 64.5707 13.7608 64.5727 13.9877 64.62C14.2145 64.6673 14.4297 64.7589 14.621 64.8897C14.8123 65.0204 14.9759 65.1877 15.1023 65.3819L16.5578 67.5973C16.8136 67.9886 16.9037 68.4654 16.8083 68.923C16.7129 69.3806 16.4398 69.7817 16.049 70.0382L5.10056 77.1998C4.8259 77.3922 4.50179 77.5017 4.16672 77.5154ZM13.6275 65.9229C13.5359 65.9226 13.4462 65.9495 13.3699 66.0002L2.4214 73.1618C2.3166 73.2327 2.24288 73.3409 2.21531 73.4644C2.19048 73.5893 2.21594 73.7189 2.28616 73.8251L3.74166 76.0406C3.77503 76.0927 3.81838 76.1378 3.86922 76.1732C3.92006 76.2085 3.97739 76.2335 4.03791 76.2467C4.09973 76.2593 4.16343 76.2596 4.22535 76.2474C4.28726 76.2352 4.34613 76.2109 4.39857 76.1758L15.3148 69.0142C15.4169 68.9458 15.4887 68.8407 15.5151 68.7207C15.5415 68.6007 15.5205 68.4751 15.4565 68.3702L14.001 66.1547C13.9646 66.0845 13.9115 66.0242 13.8464 65.9793C13.7813 65.9344 13.7061 65.9062 13.6275 65.8971V65.9229Z" fill="#333333"/>
<path d="M40.6121 50.2601C39.3671 48.3565 37.5853 46.8649 35.4923 45.9743C33.3993 45.0837 31.0891 44.8339 28.8542 45.2567C26.6192 45.6796 24.5599 46.7559 22.9368 48.3495C21.3138 49.9431 20.2 51.9824 19.7364 54.2093C19.2728 56.4362 19.4803 58.7505 20.3325 60.8595C21.1847 62.9684 22.6434 64.7771 24.524 66.0567C26.4046 67.3363 28.6225 68.0292 30.897 68.0478C33.1716 68.0664 35.4005 67.4098 37.3018 66.1612C39.8456 64.4884 41.6225 61.8754 42.243 58.8948C42.8635 55.9141 42.277 52.8091 40.6121 50.2601ZM28.1308 63.8427C26.688 63.279 25.4449 62.2999 24.5591 61.0292C23.6732 59.7585 23.1844 58.2535 23.1545 56.7048C23.1247 55.1561 23.5552 53.6334 24.3915 52.3296C25.2277 51.0257 26.4322 49.9994 27.8522 49.3807C29.2722 48.7619 30.8439 48.5785 32.3683 48.8537C33.8926 49.1289 35.301 49.8503 36.415 50.9266C37.529 52.0029 38.2985 53.3856 38.626 54.8995C38.9536 56.4135 38.8244 57.9906 38.2549 59.4311C37.4939 61.3559 36.0013 62.9008 34.1039 63.7276C32.2064 64.5544 30.0587 64.5958 28.1308 63.8427Z" fill="white" stroke="#333333" stroke-width="2.03" stroke-linecap="round" stroke-linejoin="round"/>
</svg>
