<svg width="90" height="98" viewBox="0 0 90 98" fill="none" xmlns="http://www.w3.org/2000/svg">
<path d="M35.1554 86.2649H89.4287V35.4701L35.1554 35.4701L35.1554 86.2649Z" fill="white"/>
<path d="M89.4287 86.8418H35.1669C35.0154 86.8418 34.8701 86.7816 34.763 86.6745C34.6559 86.5674 34.5957 86.4221 34.5957 86.2706V35.4701C34.5957 35.3186 34.6559 35.1733 34.763 35.0662C34.8701 34.9591 35.0154 34.8989 35.1669 34.8989H89.4287C89.5802 34.8989 89.7255 34.9591 89.8326 35.0662C89.9398 35.1733 89.9999 35.3186 89.9999 35.4701V86.2706C89.9999 86.4221 89.9398 86.5674 89.8326 86.6745C89.7255 86.7816 89.5802 86.8418 89.4287 86.8418ZM35.7381 85.6995H88.8576V36.0413H35.7381V85.6995Z" fill="#333333"/>
<path d="M89.4286 41.199H45.288C45.1365 41.199 44.9912 41.1388 44.8841 41.0317C44.777 40.9246 44.7168 40.7793 44.7168 40.6278C44.7168 40.4763 44.777 40.3311 44.8841 40.2239C44.9912 40.1168 45.1365 40.0566 45.288 40.0566H89.4286C89.5801 40.0566 89.7254 40.1168 89.8325 40.2239C89.9396 40.3311 89.9998 40.4763 89.9998 40.6278C89.9998 40.7793 89.9396 40.9246 89.8325 41.0317C89.7254 41.1388 89.5801 41.199 89.4286 41.199Z" fill="#333333"/>
<path d="M81.9743 6.28856V88.7894C81.9743 89.8498 81.5531 90.8668 80.8033 91.6166C80.0535 92.3664 79.0365 92.7877 77.9761 92.7877H12.0051C10.9447 92.7877 9.92772 92.3664 9.1779 91.6166C8.42808 90.8668 8.00684 89.8498 8.00684 88.7894V6.28285C8.00684 4.76799 8.60861 3.31518 9.67978 2.24401C10.7509 1.17285 12.2038 0.571071 13.7186 0.571071H76.2454C76.9974 0.568814 77.7425 0.715076 78.4378 1.00147C79.1331 1.28786 79.7651 1.70874 80.2974 2.23995C80.8296 2.77117 81.2518 3.40227 81.5396 4.09703C81.8273 4.7918 81.9751 5.53655 81.9743 6.28856Z" fill="white"/>
<path d="M77.9827 93.3533H12.0059C10.7941 93.3533 9.63181 92.8718 8.77488 92.0149C7.91795 91.158 7.43652 89.9957 7.43652 88.7839V6.28295C7.43652 4.61661 8.09848 3.01852 9.27676 1.84023C10.455 0.661952 12.0531 0 13.7195 0H76.2463C77.9126 0 79.5107 0.661952 80.689 1.84023C81.8673 3.01852 82.5293 4.61661 82.5293 6.28295V88.7896C82.5278 89.9965 82.0488 91.1538 81.197 92.0089C80.3451 92.8639 79.1896 93.3472 77.9827 93.3533ZM13.7309 1.13093C12.3675 1.13093 11.06 1.67253 10.0959 2.63658C9.1319 3.60063 8.5903 4.90816 8.5903 6.27153V88.7896C8.5903 89.6985 8.95137 90.5702 9.59407 91.2129C10.2368 91.8556 11.1085 92.2166 12.0174 92.2166H77.9827C78.8916 92.2166 79.7633 91.8556 80.406 91.2129C81.0487 90.5702 81.4097 89.6985 81.4097 88.7896V6.28866C81.4097 4.92529 80.8681 3.61776 79.9041 2.65371C78.94 1.68966 77.6325 1.14806 76.2691 1.14806L13.7309 1.13093Z" fill="#333333"/>
<path d="M81.9745 6.28285V8.80745H8.0127V6.28285C8.0127 4.76799 8.61447 3.31518 9.68563 2.24401C10.7568 1.17285 12.2096 0.571071 13.7245 0.571071H76.2456C76.9971 0.568816 77.7417 0.714888 78.4366 1.00092C79.1316 1.28696 79.7633 1.70733 80.2955 2.23794C80.8277 2.76855 81.25 3.39897 81.5381 4.09308C81.8262 4.78718 81.9745 5.53132 81.9745 6.28285Z" fill="white"/>
<path d="M81.9744 9.37873H8.01258C7.8611 9.37873 7.71582 9.31856 7.6087 9.21144C7.50158 9.10432 7.44141 8.95904 7.44141 8.80756V6.28295C7.44141 4.61661 8.10335 3.01852 9.28164 1.84023C10.4599 0.661952 12.058 0 13.7244 0H76.2454C77.9118 0 79.5099 0.661952 80.6882 1.84023C81.8665 3.01852 82.5284 4.61661 82.5284 6.28295V8.80756C82.5285 8.95612 82.4706 9.09886 82.3672 9.2055C82.2638 9.31214 82.1229 9.37428 81.9744 9.37873ZM8.58376 8.23638H81.4032V6.28295C81.4032 4.91958 80.8616 3.61205 79.8975 2.648C78.9335 1.68395 77.626 1.14236 76.2626 1.14236H13.7358C12.3724 1.14236 11.0649 1.68395 10.1008 2.648C9.13678 3.61205 8.59518 4.91958 8.59518 6.28295L8.58376 8.23638Z" fill="#333333"/>
<path d="M81.9745 8.80737H8.0127V30.6378H81.9745V8.80737Z" fill="#00BBF9"/>
<path d="M81.9744 31.2091H8.01258C7.8611 31.2091 7.71582 31.1489 7.6087 31.0418C7.50158 30.9347 7.44141 30.7894 7.44141 30.6379V8.80751C7.44141 8.65602 7.50158 8.51074 7.6087 8.40362C7.71582 8.29651 7.8611 8.23633 8.01258 8.23633H81.9744C82.1259 8.23633 82.2711 8.29651 82.3782 8.40362C82.4854 8.51074 82.5455 8.65602 82.5455 8.80751V30.6379C82.5455 30.7894 82.4854 30.9347 82.3782 31.0418C82.2711 31.1489 82.1259 31.2091 81.9744 31.2091ZM8.58376 30.0667H81.4032V9.37868H8.58376V30.0667Z" fill="#333333"/>
<path d="M26.8442 53.4392C31.2795 53.4392 34.875 49.8437 34.875 45.4084C34.875 40.9732 31.2795 37.3777 26.8442 37.3777C22.409 37.3777 18.8135 40.9732 18.8135 45.4084C18.8135 49.8437 22.409 53.4392 26.8442 53.4392Z" fill="#FE4C40"/>
<path d="M26.845 53.9878C25.1423 53.9878 23.4778 53.4824 22.0625 52.5357C20.6472 51.589 19.5447 50.2435 18.8947 48.6697C18.2446 47.0959 18.0763 45.3646 18.411 43.6951C18.7457 42.0255 19.5683 40.4929 20.7748 39.2913C21.9812 38.0896 23.5171 37.2731 25.188 36.9451C26.8589 36.617 28.5895 36.7923 30.1607 37.4486C31.7319 38.1049 33.0729 39.2128 34.014 40.6319C34.955 42.0509 35.4538 43.7174 35.447 45.4201C35.4349 47.6946 34.5237 49.872 32.9121 51.4772C31.3006 53.0823 29.1196 53.9848 26.845 53.9878ZM26.845 37.932C25.3682 37.932 23.9246 38.3704 22.6972 39.1916C21.4697 40.0128 20.5136 41.1798 19.9501 42.5449C19.3865 43.91 19.2408 45.4116 19.5314 46.8595C19.822 48.3075 20.5359 49.6366 21.5826 50.6784C22.6292 51.7203 23.9616 52.428 25.4109 52.712C26.8601 52.9959 28.3611 52.8433 29.7235 52.2735C31.086 51.7036 32.2486 50.7421 33.0641 49.5109C33.8797 48.2797 34.3114 46.8341 34.3046 45.3573C34.2881 43.3893 33.495 41.5074 32.098 40.1211C30.701 38.7348 28.8131 37.9563 26.845 37.9548V37.932Z" fill="#333333"/>
<path d="M71.1676 40.0225H43.1171C42.9656 40.0225 42.8203 39.9623 42.7132 39.8552C42.6061 39.7481 42.5459 39.6028 42.5459 39.4513C42.5459 39.2998 42.6061 39.1545 42.7132 39.0474C42.8203 38.9403 42.9656 38.8801 43.1171 38.8801H71.1676C71.3191 38.8801 71.4644 38.9403 71.5715 39.0474C71.6786 39.1545 71.7388 39.2998 71.7388 39.4513C71.7388 39.6028 71.6786 39.7481 71.5715 39.8552C71.4644 39.9623 71.3191 40.0225 71.1676 40.0225Z" fill="#DFEAEF"/>
<path d="M71.1676 45.9912H43.1171C42.9656 45.9912 42.8203 45.9311 42.7132 45.8239C42.6061 45.7168 42.5459 45.5715 42.5459 45.4201C42.5459 45.2686 42.6061 45.1233 42.7132 45.0162C42.8203 44.9091 42.9656 44.8489 43.1171 44.8489H71.1676C71.3191 44.8489 71.4644 44.9091 71.5715 45.0162C71.6786 45.1233 71.7388 45.2686 71.7388 45.4201C71.7388 45.5715 71.6786 45.7168 71.5715 45.8239C71.4644 45.9311 71.3191 45.9912 71.1676 45.9912Z" fill="#DFEAEF"/>
<path d="M62.2919 51.9373H57.1513C56.9998 51.9373 56.8545 51.8771 56.7474 51.77C56.6403 51.6629 56.5801 51.5176 56.5801 51.3661C56.5801 51.2146 56.6403 51.0693 56.7474 50.9622C56.8545 50.8551 56.9998 50.7949 57.1513 50.7949H62.2919C62.4433 50.7949 62.5886 50.8551 62.6957 50.9622C62.8029 51.0693 62.863 51.2146 62.863 51.3661C62.863 51.5176 62.8029 51.6629 62.6957 51.77C62.5886 51.8771 62.4433 51.9373 62.2919 51.9373Z" fill="#DFEAEF"/>
<path d="M52.7014 51.9373H43.1171C42.9656 51.9373 42.8203 51.8771 42.7132 51.77C42.6061 51.6629 42.5459 51.5176 42.5459 51.3661C42.5459 51.2146 42.6061 51.0693 42.7132 50.9622C42.8203 50.8551 42.9656 50.7949 43.1171 50.7949H52.7014C52.8529 50.7949 52.9982 50.8551 53.1053 50.9622C53.2124 51.0693 53.2726 51.2146 53.2726 51.3661C53.2726 51.5176 53.2124 51.6629 53.1053 51.77C52.9982 51.8771 52.8529 51.9373 52.7014 51.9373Z" fill="#DFEAEF"/>
<path d="M63.1431 79.2681C67.5783 79.2681 71.1738 75.6726 71.1738 71.2373C71.1738 66.802 67.5783 63.2065 63.1431 63.2065C58.7078 63.2065 55.1123 66.802 55.1123 71.2373C55.1123 75.6726 58.7078 79.2681 63.1431 79.2681Z" fill="#FEE440"/>
<path d="M63.1428 79.8391C61.4413 79.8403 59.7776 79.3367 58.3623 78.3922C56.9469 77.4477 55.8435 76.1047 55.1916 74.533C54.5397 72.9613 54.3685 71.2315 54.6997 69.5625C55.031 67.8936 55.8498 66.3603 57.0526 65.1567C58.2554 63.9532 59.7881 63.1333 61.4568 62.801C63.1256 62.4686 64.8555 62.6386 66.4276 63.2895C67.9997 63.9404 69.3435 65.0429 70.2889 66.4576C71.2344 67.8723 71.739 69.5356 71.739 71.2372C71.736 73.5166 70.8296 75.702 69.2183 77.3143C67.607 78.9267 65.4223 79.8346 63.1428 79.8391ZM63.1428 63.7776C61.6672 63.7765 60.2244 64.213 58.9969 65.032C57.7695 65.851 56.8125 67.0156 56.247 68.3786C55.6815 69.7415 55.533 71.2416 55.8202 72.689C56.1073 74.1364 56.8173 75.4661 57.8604 76.5099C58.9034 77.5537 60.2325 78.2647 61.6797 78.553C63.1269 78.8413 64.627 78.6939 65.9904 78.1295C67.3538 77.5651 68.5192 76.6089 69.3391 75.3821C70.159 74.1553 70.5967 72.7128 70.5967 71.2372C70.5937 69.2607 69.8076 67.3659 68.4105 65.9678C67.0134 64.5697 65.1193 63.7821 63.1428 63.7776Z" fill="#333333"/>
<path d="M46.8696 65.8511H18.8134C18.6619 65.8511 18.5166 65.7909 18.4095 65.6838C18.3024 65.5767 18.2422 65.4314 18.2422 65.2799C18.2422 65.1284 18.3024 64.9832 18.4095 64.876C18.5166 64.7689 18.6619 64.7087 18.8134 64.7087H46.8696C47.0211 64.7087 47.1664 64.7689 47.2735 64.876C47.3806 64.9832 47.4408 65.1284 47.4408 65.2799C47.4408 65.4314 47.3806 65.5767 47.2735 65.6838C47.1664 65.7909 47.0211 65.8511 46.8696 65.8511Z" fill="#DFEAEF"/>
<path d="M46.8696 71.8084H18.8134C18.6619 71.8084 18.5166 71.7482 18.4095 71.6411C18.3024 71.534 18.2422 71.3887 18.2422 71.2372C18.2422 71.0857 18.3024 70.9404 18.4095 70.8333C18.5166 70.7262 18.6619 70.666 18.8134 70.666H46.8696C47.0211 70.666 47.1664 70.7262 47.2735 70.8333C47.3806 70.9404 47.4408 71.0857 47.4408 71.2372C47.4408 71.3887 47.3806 71.534 47.2735 71.6411C47.1664 71.7482 47.0211 71.8084 46.8696 71.8084Z" fill="#DFEAEF"/>
<path d="M39.4729 77.7659H18.8134C18.6619 77.7659 18.5166 77.7057 18.4095 77.5986C18.3024 77.4915 18.2422 77.3462 18.2422 77.1947C18.2422 77.0432 18.3024 76.8979 18.4095 76.7908C18.5166 76.6837 18.6619 76.6235 18.8134 76.6235H39.4729C39.6243 76.6235 39.7696 76.6837 39.8767 76.7908C39.9839 76.8979 40.044 77.0432 40.044 77.1947C40.044 77.3462 39.9839 77.4915 39.8767 77.5986C39.7696 77.7057 39.6243 77.7659 39.4729 77.7659Z" fill="#FEE440"/>
<path d="M8.0127 30.6378L32.8418 12.6172L47.9094 25.3202L61.0465 14.6334L81.9745 30.6378H8.0127Z" fill="#FEE440"/>
<path d="M81.9745 31.209H8.01268C7.8918 31.2094 7.7739 31.1715 7.67595 31.1006C7.57799 31.0298 7.50504 30.9297 7.46758 30.8148C7.43012 30.6999 7.43008 30.576 7.46747 30.4611C7.50487 30.3461 7.57776 30.246 7.67568 30.1751L32.5105 12.1545C32.6108 12.0762 32.7345 12.0337 32.8618 12.0337C32.989 12.0337 33.1127 12.0762 33.213 12.1545L47.9151 24.549L60.6867 14.1593C60.7875 14.0796 60.9123 14.0363 61.0408 14.0363C61.1693 14.0363 61.2941 14.0796 61.3949 14.1593L82.3229 30.1523C82.4168 30.2252 82.4857 30.3256 82.5198 30.4395C82.554 30.5535 82.5517 30.6752 82.5133 30.7878C82.475 30.9003 82.4024 30.9981 82.3058 31.0675C82.2092 31.1368 82.0934 31.1743 81.9745 31.1747V31.209ZM9.77191 30.0666H80.2895L61.0579 15.3588L48.2693 25.7656C48.1666 25.8511 48.0373 25.8979 47.9037 25.8979C47.7701 25.8979 47.6408 25.8511 47.5382 25.7656L32.8189 13.3425L9.77191 30.0666Z" fill="#333333"/>
<path d="M51.1541 28.6045C51.0199 28.6031 50.8905 28.5546 50.7885 28.4674L47.5442 25.76C47.4865 25.712 47.4387 25.6531 47.4038 25.5866C47.3688 25.5202 47.3472 25.4475 47.3403 25.3727C47.3334 25.2979 47.3413 25.2225 47.3636 25.1508C47.3858 25.079 47.422 25.0124 47.47 24.9546C47.518 24.8969 47.5769 24.8491 47.6434 24.8141C47.7098 24.7792 47.7825 24.7576 47.8573 24.7507C47.9321 24.7438 48.0075 24.7517 48.0792 24.774C48.1509 24.7962 48.2176 24.8324 48.2753 24.8804L51.5253 27.5935C51.5828 27.6418 51.6301 27.701 51.6646 27.7677C51.6991 27.8343 51.7202 27.9071 51.7266 27.9819C51.7329 28.0567 51.7245 28.1321 51.7017 28.2036C51.6789 28.2751 51.6423 28.3415 51.5939 28.3988C51.5402 28.4633 51.4729 28.5152 51.3969 28.5507C51.3209 28.5862 51.238 28.6046 51.1541 28.6045Z" fill="#333333"/>
<path d="M13.9643 5.45477C14.6015 5.45477 15.1181 4.93821 15.1181 4.301C15.1181 3.66378 14.6015 3.14722 13.9643 3.14722C13.3271 3.14722 12.8105 3.66378 12.8105 4.301C12.8105 4.93821 13.3271 5.45477 13.9643 5.45477Z" fill="#FE4C40"/>
<path d="M13.9644 3.15286C14.1904 3.15286 14.4112 3.21985 14.5991 3.34538C14.7869 3.4709 14.9334 3.64931 15.0198 3.85805C15.1063 4.06679 15.1289 4.29648 15.0848 4.51807C15.0408 4.73967 14.932 4.94322 14.7722 5.10298C14.6124 5.26274 14.4089 5.37154 14.1873 5.41562C13.9657 5.45969 13.736 5.43707 13.5273 5.35061C13.3185 5.26415 13.1401 5.11773 13.0146 4.92987C12.8891 4.74201 12.8221 4.52115 12.8221 4.29521C12.8221 3.99224 12.9424 3.70168 13.1567 3.48744C13.3709 3.27321 13.6615 3.15286 13.9644 3.15286ZM13.9644 2.29609C13.5649 2.2961 13.1744 2.4148 12.8425 2.63712C12.5106 2.85943 12.2522 3.17535 12.1001 3.54477C11.948 3.91419 11.9091 4.32047 11.9883 4.71204C12.0675 5.10362 12.2612 5.46284 12.5449 5.74412C12.8286 6.02541 13.1894 6.21608 13.5817 6.29193C13.9739 6.36778 14.3798 6.3254 14.748 6.17016C15.1161 6.01493 15.4298 5.75383 15.6492 5.42001C15.8687 5.08619 15.9841 4.6947 15.9807 4.29521C15.9792 3.76146 15.7661 3.25008 15.3881 2.87319C15.0102 2.49631 14.4982 2.28467 13.9644 2.28467V2.29609Z" fill="#333333"/>
<path d="M18.8139 5.45477C19.4511 5.45477 19.9677 4.93821 19.9677 4.301C19.9677 3.66378 19.4511 3.14722 18.8139 3.14722C18.1767 3.14722 17.6602 3.66378 17.6602 4.301C17.6602 4.93821 18.1767 5.45477 18.8139 5.45477Z" fill="#FEE440"/>
<path d="M18.814 3.15286C19.04 3.15286 19.2608 3.21985 19.4487 3.34538C19.6366 3.4709 19.783 3.64931 19.8694 3.85805C19.9559 4.06679 19.9785 4.29648 19.9344 4.51807C19.8904 4.73967 19.7816 4.94322 19.6218 5.10298C19.462 5.26274 19.2585 5.37154 19.0369 5.41562C18.8153 5.45969 18.5856 5.43707 18.3769 5.35061C18.1681 5.26415 17.9897 5.11773 17.8642 4.92987C17.7387 4.74201 17.6717 4.52115 17.6717 4.29521C17.6717 3.99224 17.792 3.70168 18.0063 3.48744C18.2205 3.27321 18.5111 3.15286 18.814 3.15286ZM18.814 2.29609C18.4145 2.2961 18.024 2.4148 17.6921 2.63712C17.3602 2.85943 17.1018 3.17535 16.9497 3.54477C16.7976 3.91419 16.7587 4.32047 16.8379 4.71204C16.9171 5.10362 17.1108 5.46284 17.3945 5.74412C17.6782 6.02541 18.0391 6.21608 18.4313 6.29193C18.8235 6.36778 19.2295 6.3254 19.5976 6.17016C19.9657 6.01493 20.2794 5.75383 20.4989 5.42001C20.7183 5.08619 20.8337 4.6947 20.8303 4.29521C20.8288 3.76146 20.6157 3.25008 20.2377 2.87319C19.8598 2.49631 19.3478 2.28467 18.814 2.28467V2.29609Z" fill="#333333"/>
<path d="M23.6626 5.45477C24.2998 5.45477 24.8164 4.93821 24.8164 4.301C24.8164 3.66378 24.2998 3.14722 23.6626 3.14722C23.0254 3.14722 22.5088 3.66378 22.5088 4.301C22.5088 4.93821 23.0254 5.45477 23.6626 5.45477Z" fill="#FEE440"/>
<path d="M23.6627 3.15286C23.8886 3.15286 24.1095 3.21985 24.2973 3.34538C24.4852 3.4709 24.6316 3.64931 24.7181 3.85805C24.8045 4.06679 24.8272 4.29648 24.7831 4.51807C24.739 4.73967 24.6302 4.94322 24.4704 5.10298C24.3107 5.26274 24.1071 5.37154 23.8855 5.41562C23.6639 5.45969 23.4342 5.43707 23.2255 5.35061C23.0168 5.26415 22.8384 5.11773 22.7128 4.92987C22.5873 4.74201 22.5203 4.52115 22.5203 4.29521C22.5203 3.99224 22.6407 3.70168 22.8549 3.48744C23.0691 3.27321 23.3597 3.15286 23.6627 3.15286ZM23.6627 2.29609C23.2632 2.2961 22.8727 2.4148 22.5407 2.63712C22.2088 2.85943 21.9504 3.17535 21.7983 3.54477C21.6462 3.91419 21.6073 4.32047 21.6865 4.71204C21.7657 5.10362 21.9594 5.46284 22.2431 5.74412C22.5268 6.02541 22.8877 6.21608 23.2799 6.29193C23.6722 6.36778 24.0781 6.3254 24.4462 6.17016C24.8143 6.01493 25.128 5.75383 25.3475 5.42001C25.567 5.08619 25.6823 4.6947 25.6789 4.29521C25.6774 3.76146 25.4643 3.25008 25.0864 2.87319C24.7084 2.49631 24.1964 2.28467 23.6627 2.28467V2.29609Z" fill="#333333"/>
<path d="M3.43766 47.002L14.9526 43.9462C15.0189 43.9292 15.0886 43.9297 15.1546 43.9478C15.2207 43.9659 15.2809 44.0008 15.3294 44.0493C15.3778 44.0977 15.4128 44.1579 15.4308 44.224C15.4489 44.2901 15.4494 44.3597 15.4324 44.426L12.3766 55.941C12.36 56.0085 12.3257 56.0703 12.2771 56.12C12.2286 56.1696 12.1675 56.2054 12.1005 56.2235C12.0334 56.2416 11.9627 56.2413 11.8957 56.2228C11.8287 56.2042 11.768 56.1681 11.7197 56.118L9.22369 53.622L4.15735 58.6826C4.12097 58.7221 4.07681 58.7536 4.02766 58.7751C3.97851 58.7967 3.92542 58.8078 3.87175 58.8078C3.81809 58.8078 3.765 58.7967 3.71585 58.7751C3.66669 58.7536 3.62254 58.7221 3.58617 58.6826L0.678874 55.7753C0.639413 55.739 0.607919 55.6948 0.586377 55.6456C0.564834 55.5965 0.553711 55.5434 0.553711 55.4897C0.553711 55.4361 0.564834 55.383 0.586377 55.3338C0.607919 55.2847 0.639413 55.2405 0.678874 55.2042L5.7395 50.1378L3.24346 47.6418C3.19787 47.592 3.16603 47.5312 3.15108 47.4655C3.13612 47.3997 3.13856 47.3311 3.15816 47.2665C3.17776 47.202 3.21384 47.1436 3.26285 47.0972C3.31186 47.0509 3.37211 47.018 3.43766 47.002Z" fill="white"/>
<path d="M3.87735 59.3739C3.75077 59.3738 3.62548 59.3485 3.50879 59.2994C3.39209 59.2504 3.28632 59.1786 3.19764 59.0883L0.284639 56.1753C0.194491 56.0866 0.1229 55.9807 0.0740336 55.8641C0.0251671 55.7474 0 55.6221 0 55.4956C0 55.3691 0.0251671 55.2439 0.0740336 55.1272C0.1229 55.0105 0.194491 54.9047 0.284639 54.8159L4.94545 50.1551L2.84923 48.0589C2.72878 47.9396 2.64207 47.7906 2.59791 47.627C2.55376 47.4633 2.55373 47.2909 2.59783 47.1273C2.64194 46.9636 2.7286 46.8146 2.84901 46.6953C2.96941 46.576 3.11926 46.4907 3.28332 46.4482L14.7983 43.3981C14.961 43.3559 15.1319 43.3569 15.2941 43.4011C15.4563 43.4453 15.6042 43.531 15.723 43.6499C15.8419 43.7688 15.9277 43.9166 15.9719 44.0788C16.016 44.241 16.0171 44.412 15.9749 44.5747L12.9248 56.0896C12.8822 56.2537 12.797 56.4035 12.6777 56.5239C12.5584 56.6444 12.4093 56.731 12.2457 56.7751C12.082 56.8192 11.9096 56.8192 11.746 56.775C11.5823 56.7309 11.4333 56.6442 11.3141 56.5237L9.21786 54.4275L4.55705 59.0883C4.46837 59.1786 4.3626 59.2504 4.24591 59.2994C4.12921 59.3485 4.00392 59.3738 3.87735 59.3739ZM1.21566 55.4956L3.87735 58.1573L8.81232 53.2166C8.86542 53.1631 8.92859 53.1206 8.9982 53.0916C9.0678 53.0626 9.14246 53.0477 9.21786 53.0477C9.29326 53.0477 9.36791 53.0626 9.43752 53.0916C9.50712 53.1206 9.57029 53.1631 9.62339 53.2166L11.9081 55.5013L14.7983 44.5861L3.87735 47.4706L6.16206 49.7553C6.21499 49.8086 6.25688 49.8719 6.2853 49.9415C6.31373 50.0111 6.32813 50.0856 6.32769 50.1608C6.32813 50.236 6.31373 50.3105 6.2853 50.3801C6.25688 50.4497 6.21499 50.513 6.16206 50.5663L1.21566 55.4956Z" fill="#333333"/>
<path d="M29.9627 73.9446H5.36209C4.62709 73.9446 4.03125 74.5404 4.03125 75.2754V95.7978C4.03125 96.5328 4.62709 97.1287 5.36209 97.1287H29.9627C30.6977 97.1287 31.2936 96.5328 31.2936 95.7978V75.2754C31.2936 74.5404 30.6977 73.9446 29.9627 73.9446Z" fill="#00BBF9"/>
<path d="M29.9569 97.7057H5.36199C4.85702 97.7042 4.37324 97.5025 4.0167 97.1449C3.66017 96.7873 3.45996 96.3029 3.45996 95.798V75.2813C3.45996 74.7763 3.66017 74.2919 4.0167 73.9343C4.37324 73.5767 4.85702 73.375 5.36199 73.3735H29.9569C30.4624 73.375 30.9468 73.5765 31.3042 73.934C31.6616 74.2914 31.8631 74.7758 31.8646 75.2813V95.798C31.8631 96.3035 31.6616 96.7878 31.3042 97.1453C30.9468 97.5027 30.4624 97.7042 29.9569 97.7057ZM5.36199 74.5159C5.26174 74.5159 5.16249 74.5357 5.06995 74.5743C4.97741 74.6128 4.8934 74.6693 4.82279 74.7404C4.75217 74.8116 4.69634 74.896 4.6585 74.9888C4.62066 75.0816 4.60157 75.181 4.60232 75.2813V95.798C4.60157 95.8982 4.62066 95.9976 4.6585 96.0904C4.69634 96.1833 4.75217 96.2677 4.82279 96.3388C4.8934 96.41 4.97741 96.4664 5.06995 96.505C5.16249 96.5435 5.26174 96.5633 5.36199 96.5633H29.9569C30.1599 96.5633 30.3546 96.4827 30.4981 96.3392C30.6416 96.1956 30.7223 96.001 30.7223 95.798V75.2813C30.7223 75.0783 30.6416 74.8836 30.4981 74.7401C30.3546 74.5965 30.1599 74.5159 29.9569 74.5159H5.36199Z" fill="#333333"/>
<path d="M30.8657 78.9309H4.0204C3.86891 78.9309 3.72363 78.8708 3.61651 78.7636C3.5094 78.6565 3.44922 78.5112 3.44922 78.3598C3.44922 78.2083 3.5094 78.063 3.61651 77.9559C3.72363 77.8488 3.86891 77.7886 4.0204 77.7886H30.8657C31.0172 77.7886 31.1625 77.8488 31.2696 77.9559C31.3767 78.063 31.4369 78.2083 31.4369 78.3598C31.4369 78.5112 31.3767 78.6565 31.2696 78.7636C31.1625 78.8708 31.0172 78.9309 30.8657 78.9309Z" fill="#333333"/>
<path d="M26.4044 84.9683H8.91493C8.76344 84.9683 8.61816 84.9081 8.51104 84.801C8.40393 84.6939 8.34375 84.5486 8.34375 84.3971C8.34375 84.2456 8.40393 84.1003 8.51104 83.9932C8.61816 83.8861 8.76344 83.8259 8.91493 83.8259H26.4044C26.5559 83.8259 26.7012 83.8861 26.8083 83.9932C26.9154 84.1003 26.9756 84.2456 26.9756 84.3971C26.9756 84.5486 26.9154 84.6939 26.8083 84.801C26.7012 84.9081 26.5559 84.9683 26.4044 84.9683Z" fill="white"/>
<path d="M22.3719 90.543H8.91493C8.76344 90.543 8.61816 90.4828 8.51104 90.3757C8.40393 90.2686 8.34375 90.1233 8.34375 89.9718C8.34375 89.8203 8.40393 89.675 8.51104 89.5679C8.61816 89.4608 8.76344 89.4006 8.91493 89.4006H22.3719C22.5234 89.4006 22.6686 89.4608 22.7758 89.5679C22.8829 89.675 22.943 89.8203 22.943 89.9718C22.943 90.1233 22.8829 90.2686 22.7758 90.3757C22.6686 90.4828 22.5234 90.543 22.3719 90.543Z" fill="white"/>
</svg>
