<svg width="110" height="78" viewBox="0 0 110 78" fill="none" xmlns="http://www.w3.org/2000/svg">
<path d="M0.643555 68.1255H109.355V71.9059C109.355 73.2604 108.817 74.5595 107.86 75.5172C106.902 76.475 105.603 77.0131 104.248 77.0131H5.7507C4.3962 77.0131 3.09718 76.475 2.1394 75.5172C1.18163 74.5595 0.643555 73.2604 0.643555 71.9059V68.1255Z" fill="white"/>
<path d="M104.249 77.6568H5.75117C4.2275 77.6551 2.76663 77.0496 1.68863 75.9728C0.610633 74.896 0.00340771 73.4358 0 71.9121V68.1252C0 67.9544 0.0678523 67.7906 0.188631 67.6698C0.30941 67.5491 0.473221 67.4812 0.644028 67.4812H109.356C109.527 67.4812 109.691 67.5491 109.811 67.6698C109.932 67.7906 110 67.9544 110 68.1252V71.9121C109.997 73.4358 109.389 74.896 108.311 75.9728C107.233 77.0496 105.772 77.6551 104.249 77.6568ZM1.28806 68.7693V71.9121C1.28976 73.0947 1.76074 74.2282 2.59755 75.0639C3.43436 75.8995 4.56859 76.3688 5.75117 76.3688H104.249C105.431 76.3688 106.566 75.8995 107.402 75.0639C108.239 74.2282 108.71 73.0947 108.712 71.9121V68.7693H1.28806Z" fill="#9B5DE5"/>
<path d="M12.4946 6.51758H97.5063C98.702 6.51758 99.8486 6.99254 100.694 7.83799C101.54 8.68345 102.015 9.83013 102.015 11.0258V68.0995H7.9864V11.0515C7.98301 10.4573 8.09711 9.86835 8.32214 9.31841C8.54718 8.76848 8.87872 8.26845 9.29768 7.84709C9.71664 7.42573 10.2148 7.09136 10.7634 6.86319C11.3121 6.63502 11.9004 6.51757 12.4946 6.51758Z" fill="#00BBF9"/>
<path d="M102.014 68.7692H7.98583C7.81502 68.7692 7.65121 68.7013 7.53043 68.5806C7.40965 68.4598 7.3418 68.296 7.3418 68.1252V11.0514C7.3418 9.68494 7.88462 8.37445 8.85084 7.40822C9.81707 6.44199 11.1276 5.89917 12.494 5.89917H97.5057C98.8722 5.89917 100.183 6.44199 101.149 7.40822C102.115 8.37445 102.658 9.68494 102.658 11.0514V68.1252C102.658 68.296 102.59 68.4598 102.469 68.5806C102.349 68.7013 102.185 68.7692 102.014 68.7692ZM8.62985 67.4811H101.37V11.0514C101.37 10.0266 100.963 9.04368 100.238 8.31901C99.5135 7.59434 98.5306 7.18723 97.5057 7.18723H12.494C11.4692 7.18723 10.4863 7.59434 9.76164 8.31901C9.03697 9.04368 8.62985 10.0266 8.62985 11.0514V67.4811Z" fill="#333333"/>
<path d="M95.0006 13.7756H15.0059V61.247H95.0006V13.7756Z" fill="white"/>
<path d="M94.9946 61.8845H15.0063C14.8355 61.8845 14.6717 61.8167 14.5509 61.6959C14.4302 61.5751 14.3623 61.4113 14.3623 61.2405V13.7756C14.3623 13.6048 14.4302 13.441 14.5509 13.3202C14.6717 13.1994 14.8355 13.1316 15.0063 13.1316H94.9946C95.1654 13.1316 95.3292 13.1994 95.45 13.3202C95.5708 13.441 95.6387 13.6048 95.6387 13.7756V61.2405C95.6387 61.4113 95.5708 61.5751 95.45 61.6959C95.3292 61.8167 95.1654 61.8845 94.9946 61.8845ZM15.6504 60.5965H94.3506V14.4196H15.6504V60.5965Z" fill="#333333"/>
<path d="M46.7242 68.1255H63.2822V69.098C63.2822 69.8991 62.9639 70.6673 62.3975 71.2338C61.831 71.8002 61.0628 72.1185 60.2617 72.1185H49.7383C48.9372 72.1185 48.1689 71.8002 47.6025 71.2338C47.036 70.6673 46.7178 69.8991 46.7178 69.098V68.1577L46.7242 68.1255Z" fill="white"/>
<path d="M60.2616 72.73H49.7382C48.7674 72.7283 47.837 72.3415 47.1511 71.6544C46.4653 70.9674 46.0801 70.0363 46.0801 69.0655V68.1252C46.0801 67.9544 46.1479 67.7906 46.2687 67.6698C46.3895 67.5491 46.5533 67.4812 46.7241 67.4812H63.2756C63.4464 67.4812 63.6103 67.5491 63.731 67.6698C63.8518 67.7906 63.9197 67.9544 63.9197 68.1252V69.0977C63.9112 70.0629 63.5222 70.9858 62.8373 71.6659C62.1524 72.346 61.2268 72.7284 60.2616 72.73ZM47.381 68.7693V69.0977C47.381 69.7269 47.6305 70.3304 48.0748 70.7759C48.5191 71.2213 49.1219 71.4725 49.751 71.4742H60.2745C60.9036 71.4725 61.5064 71.2213 61.9507 70.7759C62.395 70.3304 62.6445 69.7269 62.6445 69.0977V68.8015L47.381 68.7693Z" fill="#333333"/>
<path d="M55.0003 10.3109C55.3489 10.3109 55.6314 10.0283 55.6314 9.67973C55.6314 9.33116 55.3489 9.04858 55.0003 9.04858C54.6517 9.04858 54.3691 9.33116 54.3691 9.67973C54.3691 10.0283 54.6517 10.3109 55.0003 10.3109Z" fill="#00BBF9"/>
<path d="M55 10.9548C54.7452 10.9548 54.4962 10.8792 54.2844 10.7377C54.0725 10.5962 53.9074 10.395 53.81 10.1596C53.7125 9.92428 53.687 9.66529 53.7367 9.41543C53.7864 9.16557 53.909 8.93606 54.0892 8.75593C54.2693 8.57579 54.4988 8.45311 54.7487 8.40341C54.9985 8.35371 55.2575 8.37922 55.4929 8.47671C55.7282 8.5742 55.9294 8.73929 56.0709 8.95111C56.2125 9.16293 56.288 9.41197 56.288 9.66672C56.288 10.0083 56.1523 10.336 55.9108 10.5775C55.6692 10.8191 55.3416 10.9548 55 10.9548ZM55 9.66672H55.644H55Z" fill="#333333"/>
<path d="M86.6411 31.0034H52.25C50.1692 31.0034 48.4824 32.6902 48.4824 34.771V53.2803C48.4824 55.3611 50.1692 57.0479 52.25 57.0479H86.6411C88.7219 57.0479 90.4087 55.3611 90.4087 53.2803V34.771C90.4087 32.6902 88.7219 31.0034 86.6411 31.0034Z" fill="#15E2C6"/>
<path d="M86.6416 57.6919H52.2505C51.081 57.6902 49.9598 57.2249 49.1329 56.3979C48.3059 55.571 47.8406 54.4498 47.8389 53.2803V34.7774C47.8406 33.6073 48.3057 32.4855 49.1325 31.6575C49.9593 30.8295 51.0804 30.3628 52.2505 30.3594H86.6416C87.8122 30.3611 88.9343 30.8273 89.7614 31.6557C90.5886 32.484 91.0532 33.6068 91.0532 34.7774V53.2803C91.0532 54.4504 90.5884 55.5725 89.761 56.3998C88.9337 57.2271 87.8116 57.6919 86.6416 57.6919ZM52.2505 31.6474C51.4214 31.6491 50.627 31.9797 50.0414 32.5665C49.4558 33.1533 49.1269 33.9484 49.1269 34.7774V53.2803C49.1286 54.1082 49.4583 54.9017 50.0437 55.4871C50.6291 56.0725 51.4226 56.4022 52.2505 56.4039H86.6416C87.47 56.4039 88.2645 56.0748 88.8502 55.489C89.436 54.9032 89.7651 54.1087 89.7651 53.2803V34.7774C89.7651 33.9484 89.4362 33.1533 88.8506 32.5665C88.265 31.9797 87.4706 31.6491 86.6416 31.6474H52.2505Z" fill="#333333"/>
<path d="M48.4829 51.7089C48.3829 51.7089 48.2843 51.6856 48.1949 51.6409C48.1055 51.5962 48.0277 51.5313 47.9677 51.4513C47.9169 51.3836 47.88 51.3066 47.859 51.2247C47.838 51.1428 47.8334 51.0575 47.8453 50.9738C47.8573 50.89 47.8856 50.8095 47.9287 50.7367C47.9718 50.6639 48.0288 50.6004 48.0965 50.5496L64.0684 38.5385C64.1826 38.447 64.3246 38.3972 64.4709 38.3972C64.6172 38.3972 64.7592 38.447 64.8734 38.5385L78.8295 50.5561C78.9593 50.6679 79.0394 50.8268 79.052 50.9977C79.0647 51.1686 79.009 51.3376 78.8971 51.4674C78.7852 51.5972 78.6264 51.6772 78.4555 51.6899C78.2846 51.7026 78.1156 51.6469 77.9858 51.535L64.4226 39.8652L48.8629 51.5608C48.7556 51.65 48.6223 51.702 48.4829 51.7089Z" fill="#333333"/>
<path d="M90.4214 48.579C90.2701 48.5775 90.1242 48.5227 90.0092 48.4244L82.2422 41.8939L75.0742 47.9285C75.0106 47.99 74.935 48.0377 74.8521 48.0687C74.7692 48.0997 74.6809 48.1133 74.5925 48.1087C74.5042 48.104 74.4177 48.0812 74.3386 48.0416C74.2594 48.0021 74.1893 47.9467 74.1325 47.8788C74.0757 47.8109 74.0335 47.7321 74.0086 47.6472C73.9836 47.5623 73.9764 47.4732 73.9874 47.3854C73.9984 47.2976 74.0274 47.213 74.0726 47.1369C74.1177 47.0608 74.178 46.9949 74.2498 46.9431L81.83 40.5608C81.9462 40.4627 82.0934 40.4089 82.2454 40.4089C82.3975 40.4089 82.5446 40.4627 82.6608 40.5608L90.84 47.439C90.9047 47.4935 90.9581 47.5603 90.997 47.6355C91.0359 47.7106 91.0597 47.7927 91.0669 47.8771C91.074 47.9614 91.0645 48.0463 91.0388 48.127C91.0132 48.2076 90.9719 48.2824 90.9173 48.3471C90.8567 48.4198 90.7809 48.4783 90.6952 48.5183C90.6095 48.5584 90.516 48.5791 90.4214 48.579Z" fill="#333333"/>
<path d="M76.9936 40.9732C76.4028 40.9719 75.8257 40.7955 75.3351 40.4664C74.8446 40.1373 74.4625 39.6701 74.2373 39.124C74.0122 38.5778 73.9539 37.9772 74.0699 37.3979C74.186 36.8187 74.4711 36.2868 74.8892 35.8696C75.3074 35.4523 75.8399 35.1683 76.4194 35.0535C76.9989 34.9388 77.5994 34.9983 78.1451 35.2247C78.6907 35.451 79.1571 35.834 79.4851 36.3253C79.8132 36.8166 79.9883 37.3941 79.9883 37.9849C79.9883 38.3778 79.9108 38.7669 79.7602 39.1299C79.6096 39.4929 79.3889 39.8226 79.1108 40.1002C78.8326 40.3778 78.5024 40.5977 78.1391 40.7475C77.7758 40.8973 77.3865 40.974 76.9936 40.9732ZM76.9936 36.2846C76.6576 36.2859 76.3295 36.3867 76.0507 36.5743C75.772 36.7619 75.5551 37.0279 75.4274 37.3387C75.2997 37.6495 75.2669 37.9911 75.3332 38.3205C75.3996 38.6499 75.562 38.9522 75.8 39.1894C76.0381 39.4265 76.341 39.5878 76.6707 39.6529C77.0003 39.718 77.3418 39.6839 77.6521 39.555C77.9624 39.4262 78.2276 39.2082 78.4141 38.9288C78.6007 38.6493 78.7002 38.3209 78.7002 37.9849C78.7002 37.761 78.6561 37.5394 78.5702 37.3327C78.4844 37.126 78.3585 36.9383 78.2 36.7803C78.0414 36.6224 77.8532 36.4973 77.6462 36.4122C77.4392 36.3271 77.2174 36.2838 76.9936 36.2846Z" fill="#333333"/>
<path d="M39.3821 19.3015H6.43364C4.66943 19.3015 3.23926 20.7317 3.23926 22.4959V45.9643C3.23926 47.7285 4.66943 49.1587 6.43364 49.1587H39.3821C41.1463 49.1587 42.5765 47.7285 42.5765 45.9643V22.4959C42.5765 20.7317 41.1463 19.3015 39.3821 19.3015Z" fill="#FE4C40"/>
<path d="M39.383 49.777H6.43448C5.40964 49.777 4.42678 49.3699 3.7021 48.6453C2.97743 47.9206 2.57031 46.9377 2.57031 45.9129V22.496C2.57031 21.4712 2.97743 20.4883 3.7021 19.7636C4.42678 19.039 5.40964 18.6318 6.43448 18.6318H39.383C40.4078 18.6318 41.3907 19.039 42.1154 19.7636C42.84 20.4883 43.2471 21.4712 43.2471 22.496V45.9644C43.2336 46.9803 42.8205 47.95 42.0973 48.6635C41.3741 49.3771 40.3989 49.7771 39.383 49.777ZM6.43448 19.9199C5.75125 19.9199 5.09601 20.1913 4.6129 20.6744C4.12978 21.1575 3.85837 21.8128 3.85837 22.496V45.9644C3.85837 46.6476 4.12978 47.3029 4.6129 47.786C5.09601 48.2691 5.75125 48.5405 6.43448 48.5405H39.383C40.0662 48.5405 40.7214 48.2691 41.2046 47.786C41.6877 47.3029 41.9591 46.6476 41.9591 45.9644V22.496C41.9591 21.8128 41.6877 21.1575 41.2046 20.6744C40.7214 20.1913 40.0662 19.9199 39.383 19.9199H6.43448Z" fill="#333333"/>
<path d="M31.2875 34.23L17.2734 42.8407V25.6194L31.2875 34.23Z" fill="white"/>
<path d="M17.273 43.4847C17.1623 43.4843 17.0536 43.4555 16.9574 43.401C16.8579 43.345 16.7751 43.2637 16.7174 43.1652C16.6596 43.0668 16.6291 42.9548 16.6289 42.8406V25.6193C16.628 25.5041 16.6579 25.3908 16.7157 25.2911C16.7735 25.1914 16.8569 25.109 16.9574 25.0526C17.0553 24.9961 17.1663 24.9663 17.2794 24.9663C17.3924 24.9663 17.5035 24.9961 17.6014 25.0526L31.6219 33.6761C31.7151 33.7339 31.792 33.8145 31.8453 33.9103C31.8987 34.0061 31.9267 34.1139 31.9267 34.2236C31.9267 34.3332 31.8987 34.441 31.8453 34.5368C31.792 34.6326 31.7151 34.7132 31.6219 34.771L17.6079 43.3816C17.5079 43.4463 17.392 43.4819 17.273 43.4847ZM17.917 26.7399V41.6621L30.0569 34.2042L17.917 26.7399Z" fill="#333333"/>
<path d="M67.5519 0.64381H49.1005C48.8516 0.642959 48.605 0.691356 48.3749 0.786209C48.1448 0.881062 47.9357 1.0205 47.7597 1.19649C47.5837 1.37248 47.4443 1.58155 47.3494 1.81166C47.2546 2.04176 47.2062 2.28837 47.207 2.53725V15.0572C47.207 15.5593 47.4065 16.0409 47.7616 16.396C48.1167 16.7511 48.5983 16.9506 49.1005 16.9506H51.5542V21.1432L54.8581 16.9506H67.5519C68.0541 16.9506 68.5357 16.7511 68.8908 16.396C69.2458 16.0409 69.4453 15.5593 69.4453 15.0572V2.53725C69.4462 2.28837 69.3978 2.04176 69.3029 1.81166C69.2081 1.58155 69.0686 1.37248 68.8927 1.19649C68.7167 1.0205 68.5076 0.881062 68.2775 0.786209C68.0474 0.691356 67.8008 0.642959 67.5519 0.64381Z" fill="white"/>
<path d="M51.5547 21.7875C51.4827 21.7862 51.4113 21.7754 51.3422 21.7553C51.2155 21.711 51.1058 21.6282 51.0284 21.5185C50.951 21.4088 50.9099 21.2777 50.9107 21.1434V17.5755H49.1009C48.4311 17.5656 47.7914 17.295 47.3177 16.8213C46.844 16.3476 46.5735 15.7079 46.5635 15.0381V2.53747C46.5735 1.8676 46.844 1.22796 47.3177 0.754239C47.7914 0.280516 48.4311 0.00997492 49.1009 0H67.5524C68.2222 0.00997492 68.8619 0.280516 69.3356 0.754239C69.8093 1.22796 70.0799 1.8676 70.0898 2.53747V15.0574C70.0799 15.7272 69.8093 16.3669 69.3356 16.8406C68.8619 17.3143 68.2222 17.5849 67.5524 17.5949H55.1741L52.057 21.5427C51.9971 21.6186 51.9208 21.6801 51.8338 21.7224C51.7468 21.7648 51.6514 21.787 51.5547 21.7875ZM49.1009 1.28806C48.7696 1.28806 48.4518 1.41969 48.2175 1.654C47.9832 1.88831 47.8515 2.20611 47.8515 2.53747V15.0574C47.8515 15.3887 47.9832 15.7065 48.2175 15.9408C48.4518 16.1752 48.7696 16.3068 49.1009 16.3068H51.5547C51.7255 16.3068 51.8893 16.3746 52.0101 16.4954C52.1309 16.6162 52.1987 16.78 52.1987 16.9508V19.2886L54.3562 16.5515C54.4162 16.4756 54.4925 16.4142 54.5795 16.3718C54.6664 16.3295 54.7618 16.3072 54.8586 16.3068H67.5524C67.8837 16.3068 68.2015 16.1752 68.4358 15.9408C68.6701 15.7065 68.8018 15.3887 68.8018 15.0574V2.53747C68.8018 2.20611 68.6701 1.88831 68.4358 1.654C68.2015 1.41969 67.8837 1.28806 67.5524 1.28806H49.1009Z" fill="black"/>
<path d="M64.7888 6.76877H51.8696C51.6988 6.76877 51.535 6.70092 51.4142 6.58014C51.2934 6.45936 51.2256 6.29555 51.2256 6.12474C51.2256 5.95393 51.2934 5.79012 51.4142 5.66934C51.535 5.54857 51.6988 5.48071 51.8696 5.48071H64.7888C64.9596 5.48071 65.1234 5.54857 65.2442 5.66934C65.365 5.79012 65.4328 5.95393 65.4328 6.12474C65.4328 6.29555 65.365 6.45936 65.2442 6.58014C65.1234 6.70092 64.9596 6.76877 64.7888 6.76877Z" fill="#333333"/>
<path d="M61.2917 11.3994H51.8696C51.6988 11.3994 51.535 11.3315 51.4142 11.2107C51.2934 11.09 51.2256 10.9262 51.2256 10.7554C51.2256 10.5845 51.2934 10.4207 51.4142 10.3C51.535 10.1792 51.6988 10.1113 51.8696 10.1113H61.2917C61.4626 10.1113 61.6264 10.1792 61.7471 10.3C61.8679 10.4207 61.9358 10.5845 61.9358 10.7554C61.9358 10.9262 61.8679 11.09 61.7471 11.2107C61.6264 11.3315 61.4626 11.3994 61.2917 11.3994Z" fill="#333333"/>
<path d="M102.916 2.84009H78.134C76.4943 2.84009 75.165 4.16934 75.165 5.80906V23.874C75.165 25.5138 76.4943 26.843 78.134 26.843H102.916C104.556 26.843 105.885 25.5138 105.885 23.874V5.80906C105.885 4.16934 104.556 2.84009 102.916 2.84009Z" fill="#FEE440"/>
<path d="M102.916 27.487H78.1271C77.17 27.4853 76.2526 27.1039 75.5765 26.4265C74.9003 25.7491 74.5205 24.8311 74.5205 23.874V5.8026C74.5205 4.84608 74.9005 3.92874 75.5768 3.25238C76.2532 2.57602 77.1706 2.19604 78.1271 2.19604H102.916C103.872 2.19604 104.79 2.57602 105.466 3.25238C106.142 3.92874 106.522 4.84608 106.522 5.8026V23.874C106.522 24.8311 106.143 25.7491 105.466 26.4265C104.79 27.1039 103.873 27.4853 102.916 27.487ZM78.1271 3.4841C77.5127 3.4858 76.9239 3.73061 76.4895 4.16505C76.0551 4.59949 75.8103 5.18822 75.8086 5.8026V23.874C75.8086 24.4895 76.0526 25.0799 76.4872 25.5157C76.9219 25.9516 77.5116 26.1973 78.1271 26.199H102.916C103.531 26.1973 104.121 25.9516 104.556 25.5157C104.99 25.0799 105.234 24.4895 105.234 23.874V5.8026C105.234 5.49813 105.174 5.19664 105.058 4.91535C104.941 4.63405 104.77 4.37847 104.555 4.16317C104.34 3.94788 104.084 3.7771 103.803 3.66059C103.522 3.54407 103.22 3.4841 102.916 3.4841H78.1271Z" fill="#333333"/>
<path d="M94.9302 16.4033V11.5666C94.9302 11.1415 94.7177 10.9677 94.2862 11.09C93.7194 11.2575 93.1527 11.4378 92.5859 11.6181L90.1644 12.3781C89.5204 12.5713 88.8763 12.7645 88.2323 12.977C88.0519 13.0498 87.8861 13.1545 87.7428 13.2862C87.6549 13.3669 87.5875 13.4675 87.5461 13.5794C87.5046 13.6914 87.4904 13.8116 87.5046 13.9302C87.5046 15.8623 87.5046 17.7557 87.5046 19.6685C87.5295 20.1639 87.4177 20.6566 87.1815 21.0928C86.9452 21.529 86.5936 21.8918 86.165 22.1415C85.725 22.4358 85.224 22.6264 84.6996 22.699C84.1753 22.7715 83.6414 22.724 83.138 22.5602C82.871 22.4904 82.6231 22.361 82.4132 22.1818C82.2032 22.0026 82.0365 21.7782 81.9256 21.5254C81.8147 21.2726 81.7624 20.998 81.7728 20.7221C81.7831 20.4463 81.8557 20.1763 81.9852 19.9325C82.3312 19.2291 82.9187 18.6736 83.6404 18.3675C84.1724 18.1281 84.7508 18.0093 85.3342 18.0198C85.663 18.0193 85.9881 18.0896 86.2873 18.2259V18.0455C86.2873 15.7721 86.2873 13.4922 86.2873 11.2188C86.2898 10.7485 86.4423 10.2913 86.7226 9.91369C87.0029 9.53607 87.3964 9.25777 87.8459 9.1193C89.2821 8.6878 90.7118 8.23698 92.148 7.83124L94.4794 7.12281C94.7476 7.02405 95.0393 7.00834 95.3166 7.07772C95.5103 7.12713 95.6848 7.23319 95.8179 7.38233C95.951 7.53147 96.0366 7.71692 96.0637 7.91496C96.0699 8.02866 96.0699 8.1426 96.0637 8.2563C96.0637 11.5215 96.0637 14.7803 96.0637 18.0391C96.065 18.409 95.9836 18.7744 95.8253 19.1087C95.6671 19.443 95.4361 19.7377 95.1492 19.9712C94.7668 20.3103 94.3178 20.5657 93.8309 20.721C93.344 20.8763 92.83 20.928 92.3219 20.8728C91.7682 20.844 91.24 20.6309 90.8213 20.2674C90.5905 20.0705 90.4159 19.8161 90.3153 19.5299C90.2146 19.2438 90.1914 18.936 90.2481 18.638C90.3678 17.9753 90.7424 17.3858 91.2914 16.9958C92.0599 16.3953 93.0342 16.1222 94.0028 16.2358C94.2509 16.2785 94.4961 16.3365 94.737 16.4097L94.9302 16.4033Z" fill="white"/>
</svg>
