<svg width="122" height="89" viewBox="0 0 122 89" fill="none" xmlns="http://www.w3.org/2000/svg">
<path d="M97.8714 15.4668H16.1279V85.4002H97.8714V15.4668Z" fill="white"/>
<path d="M97.8712 86.0242H16.1278C15.9639 86.0242 15.8067 85.9591 15.6908 85.8432C15.5749 85.7273 15.5098 85.5701 15.5098 85.4062V15.4666C15.5098 15.3027 15.5749 15.1455 15.6908 15.0296C15.8067 14.9137 15.9639 14.8486 16.1278 14.8486H97.8712C98.0351 14.8486 98.1924 14.9137 98.3083 15.0296C98.4241 15.1455 98.4893 15.3027 98.4893 15.4666V85.4062C98.4893 85.5701 98.4241 85.7273 98.3083 85.8432C98.1924 85.9591 98.0351 86.0242 97.8712 86.0242ZM16.7458 84.7882H97.2532V16.0846H16.7458V84.7882Z" fill="#333333"/>
<path d="M88.5272 28.797H79.0037C78.8398 28.797 78.6826 28.7319 78.5668 28.616C78.4509 28.5001 78.3857 28.3429 78.3857 28.179C78.3857 28.0151 78.4509 27.8579 78.5668 27.742C78.6826 27.6261 78.8398 27.561 79.0037 27.561H88.5272C88.6911 27.561 88.8483 27.6261 88.9642 27.742C89.0801 27.8579 89.1452 28.0151 89.1452 28.179C89.1452 28.3429 89.0801 28.5001 88.9642 28.616C88.8483 28.7319 88.6911 28.797 88.5272 28.797Z" fill="#DFEAEF"/>
<path d="M54.0972 66.3717C51.5304 66.3717 49.0212 65.6106 46.887 64.1845C44.7528 62.7585 43.0893 60.7316 42.107 58.3601C41.1248 55.9887 40.8678 53.3792 41.3685 50.8617C41.8693 48.3442 43.1053 46.0317 44.9203 44.2167C46.7354 42.4017 49.0478 41.1657 51.5653 40.6649C54.0828 40.1641 56.6923 40.4212 59.0637 41.4034C61.4352 42.3857 63.4621 44.0492 64.8881 46.1834C66.3142 48.3176 67.0753 50.8268 67.0753 53.3936C67.0753 56.8356 65.708 60.1367 63.2741 62.5705C60.8403 65.0044 57.5392 66.3717 54.0972 66.3717ZM54.0972 41.7072C51.7749 41.7072 49.5047 42.3958 47.5737 43.6861C45.6427 44.9763 44.1377 46.8102 43.249 48.9557C42.3602 51.1013 42.1277 53.4623 42.5808 55.74C43.0338 58.0178 44.1522 60.11 45.7943 61.7522C47.4365 63.3943 49.5287 64.5126 51.8065 64.9657C54.0842 65.4188 56.4452 65.1863 58.5907 64.2975C60.7363 63.4088 62.5702 61.9038 63.8604 59.9728C65.1507 58.0418 65.8393 55.7716 65.8393 53.4493C65.8377 50.3361 64.5999 47.3511 62.398 45.1503C60.1961 42.9496 57.2104 41.7133 54.0972 41.7133V41.7072Z" fill="#DFEAEF"/>
<path d="M72.7181 25.0273H58.4422C58.2783 25.0273 58.1211 24.9622 58.0052 24.8463C57.8893 24.7304 57.8242 24.5732 57.8242 24.4093C57.8242 24.2454 57.8893 24.0882 58.0052 23.9723C58.1211 23.8564 58.2783 23.7913 58.4422 23.7913H72.7181C72.882 23.7913 73.0392 23.8564 73.1551 23.9723C73.271 24.0882 73.3361 24.2454 73.3361 24.4093C73.3361 24.5732 73.271 24.7304 73.1551 24.8463C73.0392 24.9622 72.882 25.0273 72.7181 25.0273Z" fill="#DFEAEF"/>
<path d="M72.7181 29.9714H58.4422C58.2783 29.9714 58.1211 29.9063 58.0052 29.7904C57.8893 29.6745 57.8242 29.5173 57.8242 29.3534C57.8242 29.1895 57.8893 29.0323 58.0052 28.9164C58.1211 28.8005 58.2783 28.7354 58.4422 28.7354H72.7181C72.882 28.7354 73.0392 28.8005 73.1551 28.9164C73.271 29.0323 73.3361 29.1895 73.3361 29.3534C73.3361 29.5173 73.271 29.6745 73.1551 29.7904C73.0392 29.9063 72.882 29.9714 72.7181 29.9714Z" fill="#DFEAEF"/>
<path d="M67.6258 34.8349H58.4422C58.2783 34.8349 58.1211 34.7698 58.0052 34.6539C57.8893 34.538 57.8242 34.3808 57.8242 34.2169C57.8242 34.053 57.8893 33.8958 58.0052 33.7799C58.1211 33.664 58.2783 33.5989 58.4422 33.5989H67.6258C67.7897 33.5989 67.9469 33.664 68.0628 33.7799C68.1787 33.8958 68.2438 34.053 68.2438 34.2169C68.2438 34.3808 68.1787 34.538 68.0628 34.6539C67.9469 34.7698 67.7897 34.8349 67.6258 34.8349Z" fill="#DFEAEF"/>
<path d="M82.5691 80.8082H60.8524C60.6885 80.8082 60.5313 80.7431 60.4154 80.6272C60.2995 80.5113 60.2344 80.3541 60.2344 80.1902V70.7904C60.2344 70.6265 60.2995 70.4693 60.4154 70.3534C60.5313 70.2375 60.6885 70.1724 60.8524 70.1724H82.5691C82.733 70.1724 82.8902 70.2375 83.0061 70.3534C83.122 70.4693 83.1871 70.6265 83.1871 70.7904V80.1902C83.1871 80.3541 83.122 80.5113 83.0061 80.6272C82.8902 80.7431 82.733 80.8082 82.5691 80.8082ZM61.4704 79.5722H81.9511V71.4084H61.4704V79.5722Z" fill="#DFEAEF"/>
<path d="M35.5392 67.8425C35.4039 67.8405 35.2724 67.7974 35.1622 67.7189C35.032 67.6197 34.9466 67.4728 34.9246 67.3106C34.9025 67.1484 34.9458 66.9841 35.0448 66.8537C37.0808 64.164 39.4763 61.7664 42.1642 59.7281C42.2964 59.633 42.4608 59.594 42.6217 59.6194C42.7825 59.6449 42.9269 59.7328 43.0232 59.8641C43.0713 59.9298 43.1059 60.0043 43.1251 60.0834C43.1442 60.1624 43.1476 60.2445 43.135 60.3249C43.1223 60.4053 43.094 60.4824 43.0515 60.5518C43.0089 60.6212 42.9532 60.6815 42.8873 60.7293C40.3082 62.7038 38.0034 65.0127 36.0336 67.5953C35.976 67.6721 35.9014 67.7344 35.8156 67.7773C35.7298 67.8202 35.6351 67.8425 35.5392 67.8425Z" fill="#DFEAEF"/>
<path d="M42.3749 35.0326H31.2508C31.0869 35.0326 30.9297 34.9675 30.8138 34.8516C30.6979 34.7357 30.6328 34.5785 30.6328 34.4146C30.6328 34.2507 30.6979 34.0935 30.8138 33.9776C30.9297 33.8617 31.0869 33.7966 31.2508 33.7966H42.3749C42.5388 33.7966 42.696 33.8617 42.8119 33.9776C42.9278 34.0935 42.9929 34.2507 42.9929 34.4146C42.9929 34.5785 42.9278 34.7357 42.8119 34.8516C42.696 34.9675 42.5388 35.0326 42.3749 35.0326Z" fill="#DFEAEF"/>
<path d="M42.3749 40.7802H31.2508C31.0869 40.7802 30.9297 40.7151 30.8138 40.5992C30.6979 40.4833 30.6328 40.3261 30.6328 40.1622C30.6328 39.9983 30.6979 39.8411 30.8138 39.7252C30.9297 39.6093 31.0869 39.5442 31.2508 39.5442H42.3749C42.5388 39.5442 42.696 39.6093 42.8119 39.7252C42.9278 39.8411 42.9929 39.9983 42.9929 40.1622C42.9929 40.3261 42.9278 40.4833 42.8119 40.5992C42.696 40.7151 42.5388 40.7802 42.3749 40.7802Z" fill="#DFEAEF"/>
<path d="M39.902 43.8703H36.4041C36.2402 43.8703 36.083 43.8052 35.9671 43.6893C35.8512 43.5734 35.7861 43.4162 35.7861 43.2523C35.7861 43.0884 35.8512 42.9312 35.9671 42.8153C36.083 42.6994 36.2402 42.6343 36.4041 42.6343H39.902C40.0659 42.6343 40.2231 42.6994 40.339 42.8153C40.4549 42.9312 40.52 43.0884 40.52 43.2523C40.52 43.4162 40.4549 43.5734 40.339 43.6893C40.2231 43.8052 40.0659 43.8703 39.902 43.8703Z" fill="#DFEAEF"/>
<path d="M34.7422 46.5278H31.2567C31.0928 46.5278 30.9356 46.4626 30.8197 46.3467C30.7038 46.2309 30.6387 46.0737 30.6387 45.9098C30.6387 45.7458 30.7038 45.5887 30.8197 45.4728C30.9356 45.3569 31.0928 45.2917 31.2567 45.2917H34.7422C34.9061 45.2917 35.0633 45.3569 35.1792 45.4728C35.2951 45.5887 35.3602 45.7458 35.3602 45.9098C35.3602 46.0737 35.2951 46.2309 35.1792 46.3467C35.0633 46.4626 34.9061 46.5278 34.7422 46.5278Z" fill="#DFEAEF"/>
<path d="M65.5809 44.3213C65.4335 44.3225 65.2905 44.2709 65.1778 44.1759C65.0651 44.081 64.99 43.9489 64.9662 43.8034C64.9423 43.658 64.9712 43.5088 65.0477 43.3828C65.1241 43.2568 65.2431 43.1622 65.3831 43.1162C65.5747 43.0544 70.1665 41.4229 71.0996 35.558C71.1124 35.4776 71.141 35.4004 71.1836 35.3311C71.2263 35.2617 71.2823 35.2014 71.3483 35.1538C71.4144 35.1061 71.4892 35.0719 71.5685 35.0533C71.6478 35.0346 71.73 35.0318 71.8103 35.0451C71.9716 35.0709 72.116 35.1595 72.2121 35.2915C72.3083 35.4235 72.3482 35.5882 72.3233 35.7496C71.2665 42.3808 66.0011 44.2163 65.7724 44.2904C65.7103 44.3097 65.6459 44.3201 65.5809 44.3213Z" fill="#DFEAEF"/>
<path d="M29.236 78.0829C29.1745 78.0922 29.112 78.0922 29.0506 78.0829C28.8941 78.0345 28.7632 77.9259 28.6867 77.7811C28.6103 77.6362 28.5944 77.4669 28.6427 77.3104C29.1101 75.8399 29.6568 74.3958 30.2804 72.9844C31.3063 70.6916 32.5485 70.3084 33.4199 70.3949C34.7053 70.5185 35.4593 71.7236 35.8919 72.6197C36.3245 73.5158 36.7447 74.2018 37.3813 74.3563C37.6302 74.3914 37.884 74.3677 38.1222 74.2872C38.3604 74.2067 38.5765 74.0717 38.7532 73.8928C39.1943 73.4322 39.5593 72.9045 39.8347 72.3293L43.0731 66.4273C43.155 66.2831 43.2909 66.1773 43.4509 66.1333C43.6108 66.0892 43.7817 66.1105 43.9259 66.1925C44.0702 66.2744 44.1759 66.4103 44.22 66.5703C44.264 66.7302 44.2427 66.9011 44.1608 67.0453L40.9224 72.9411C40.5799 73.6268 40.1292 74.2528 39.5875 74.7951C39.266 75.1191 38.8687 75.3576 38.4316 75.4893C37.9946 75.621 37.5316 75.6415 37.0846 75.5491C35.8486 75.2463 35.2306 74.0041 34.7918 73.176C34.4643 72.5579 33.9575 71.6804 33.2715 71.6186C32.394 71.5197 31.7142 72.7495 31.3866 73.4726C30.7781 74.8422 30.2479 76.2453 29.7984 77.675C29.7563 77.7915 29.6802 77.8927 29.5799 77.9655C29.4796 78.0382 29.3598 78.0791 29.236 78.0829Z" fill="#DFEAEF"/>
<path d="M115.954 85.4064C115.861 84.98 109.156 39.3156 104.83 31.8563C101.4 25.9729 87.8099 26.251 85.5109 26.9122C83.2119 27.5735 67.9658 35.2677 67.1994 35.9166C65.3825 37.4678 65.0117 41.423 69.7085 41.2685C71.4172 42.4512 73.0537 43.7348 74.6093 45.1125C77.4892 47.6216 77.7859 48.4559 77.7859 48.4559C77.7859 48.4559 84.9114 55.2539 87.9768 57.1821C87.9768 57.1821 86.0795 61.6812 88.1436 63.7268C89.6107 65.0878 91.2782 66.2154 93.0877 67.0702L94.9108 85.4126L115.954 85.4064Z" fill="#FFC9B0"/>
<path d="M115.954 86.0244H94.8987C94.744 86.025 94.5947 85.9676 94.4802 85.8635C94.3658 85.7593 94.2946 85.6161 94.2807 85.462L92.4885 67.4719C90.7333 66.6136 89.1167 65.4971 87.6928 64.1594C85.7646 62.2497 86.7534 58.7086 87.2107 57.4169C83.96 55.1798 77.6255 49.1666 77.3226 48.9008C77.2525 48.8329 77.1978 48.7507 77.162 48.6598C77.162 48.6598 76.7664 47.8379 74.1646 45.5698C72.6733 44.2477 71.1093 43.0098 69.4802 41.8618C66.7239 41.9174 65.803 40.564 65.494 39.7605C65.2531 38.9977 65.2419 38.1809 65.4616 37.4117C65.6814 36.6425 66.1225 35.9549 66.73 35.4345C67.6818 34.6249 82.9897 26.9493 85.2702 26.3004C87.7422 25.6082 101.666 25.324 105.294 31.5349C108.816 37.5852 113.735 67.2061 116.356 84.331C116.436 84.8872 116.492 85.221 116.498 85.2766C116.516 85.3664 116.513 85.4589 116.491 85.5476C116.468 85.6363 116.426 85.719 116.368 85.7895C116.318 85.8541 116.256 85.9081 116.185 85.9484C116.114 85.9887 116.035 86.0145 115.954 86.0244ZM95.4611 84.7884H115.237L115.2 84.5226C110.769 55.5382 106.789 36.4542 104.292 32.1653C102.58 29.2298 98.1123 28.0308 94.6515 27.5426C90.6036 26.9679 86.7163 27.2027 85.6719 27.4993C83.3296 28.1606 68.3677 35.7621 67.5891 36.3862C67.1732 36.7419 66.8669 37.2084 66.7061 37.7314C66.5452 38.2545 66.5364 38.8124 66.6806 39.3403C67.1256 40.4836 68.5346 40.6814 69.6841 40.6505C69.8113 40.6418 69.9377 40.6767 70.0425 40.7494C71.7699 41.9432 73.4211 43.2435 74.9866 44.6428C77.335 46.6884 78.0766 47.6772 78.262 48.0789C79.0592 48.8329 85.4741 54.8769 88.2799 56.6506C88.4022 56.7294 88.4929 56.8488 88.5359 56.9879C88.5788 57.1269 88.5713 57.2767 88.5147 57.4108C88.0327 58.5602 87.0995 61.848 88.5456 63.2818C89.9643 64.5868 91.5704 65.6721 93.3104 66.5016C93.4087 66.5464 93.4935 66.6163 93.5564 66.7041C93.6193 66.7919 93.6581 66.8947 93.6689 67.0022L95.4611 84.7884Z" fill="#333333"/>
<path d="M72.9596 56.6012L63.8008 47.0777L82.9898 28.9331L92.1425 38.4566L72.9596 56.6012Z" fill="#9B5DE5"/>
<path d="M72.9595 57.2189C72.8766 57.2194 72.7946 57.2032 72.7182 57.1714C72.6417 57.1395 72.5725 57.0927 72.5145 57.0335L63.3557 47.5101C63.2456 47.3879 63.184 47.2296 63.1826 47.0651C63.1854 46.9835 63.2043 46.9033 63.2382 46.829C63.2722 46.7548 63.3205 46.688 63.3804 46.6325L82.5385 28.4817C82.6543 28.3666 82.811 28.302 82.9742 28.302C83.1375 28.302 83.2941 28.3666 83.4099 28.4817L92.5873 38.0052C92.7007 38.1228 92.7629 38.2806 92.7603 38.4439C92.7592 38.5261 92.7416 38.6073 92.7087 38.6826C92.6758 38.758 92.6283 38.826 92.5687 38.8827L73.3797 57.0273C73.2696 57.1431 73.119 57.2118 72.9595 57.2189ZM64.6782 47.1022L72.978 55.7543L91.2647 38.4501L82.965 29.7981L64.6782 47.1022Z" fill="#333333"/>
<path d="M72.9536 56.601L63.3374 60.7478L55.668 64.0603L59.2771 56.5268L63.8009 47.0837L72.9536 56.601Z" fill="white"/>
<path d="M55.6678 64.6724C55.585 64.6729 55.503 64.6567 55.4265 64.6249C55.3501 64.593 55.2808 64.5461 55.2229 64.487C55.1351 64.396 55.0774 64.2802 55.0575 64.1553C55.0376 64.0304 55.0565 63.9024 55.1116 63.7886L63.226 46.8121C63.2693 46.7224 63.3336 46.6445 63.4135 46.585C63.4933 46.5255 63.5864 46.4862 63.6847 46.4705C63.783 46.4547 63.8837 46.4629 63.9781 46.4944C64.0726 46.5259 64.158 46.5797 64.2272 46.6514L73.3798 56.1748C73.449 56.2466 73.4997 56.334 73.5277 56.4296C73.5558 56.5253 73.5602 56.6262 73.5408 56.724C73.5214 56.8217 73.4786 56.9133 73.4162 56.9909C73.3537 57.0685 73.2734 57.1299 73.1821 57.1698L55.878 64.623C55.8114 64.6516 55.7402 64.6684 55.6678 64.6724ZM63.9738 48.1531L56.9347 62.8369L71.8781 56.3911L63.9738 48.1531Z" fill="#FEE440"/>
<path d="M116.763 26.5228C118.551 24.8067 119.887 22.6763 120.655 20.3203C121.422 17.9643 121.596 15.4554 121.162 13.0158C120.729 10.5763 119.7 8.28139 118.167 6.33447C116.634 4.38755 114.645 2.84868 112.375 1.85419C110.106 0.859702 107.626 0.440282 105.156 0.633088C102.686 0.825894 100.301 1.62497 98.2132 2.95954C96.1255 4.29411 94.3991 6.12296 93.187 8.28411C91.975 10.4453 91.3146 12.872 91.2644 15.3493C91.177 18.1025 90.3207 20.7764 88.7924 23.0682L88.502 23.5131L97.772 33.1602L98.3221 32.8327C100.76 31.4158 103.537 30.6875 106.356 30.7253C110.238 30.7234 113.968 29.2172 116.763 26.5228Z" fill="#FEE440"/>
<path d="M97.7781 33.7782C97.6938 33.7787 97.6103 33.762 97.5327 33.729C97.4552 33.6961 97.3851 33.6476 97.327 33.5866L88.0569 23.9458C87.9606 23.8445 87.9015 23.7136 87.8891 23.5745C87.8768 23.4353 87.912 23.296 87.9889 23.1794L88.2732 22.7345C89.7421 20.533 90.5643 17.9637 90.6463 15.3184C90.7055 12.7448 91.3975 10.2254 92.661 7.98267C93.9246 5.7399 95.721 3.84275 97.8916 2.45876C100.062 1.07476 102.54 0.246501 105.107 0.0471077C107.673 -0.152285 110.249 0.283322 112.607 1.31547C114.966 2.34762 117.034 3.94455 118.628 5.96525C120.223 7.98596 121.296 10.3683 121.752 12.9018C122.208 15.4353 122.033 18.0422 121.243 20.4921C120.452 22.942 119.071 25.1597 117.221 26.9493C114.308 29.757 110.42 31.3255 106.375 31.3247C103.67 31.291 101.008 31.9893 98.6681 33.3456L98.118 33.6731C98.0166 33.7388 97.8989 33.7752 97.7781 33.7782ZM89.2867 23.439L97.8832 32.3753L98.013 32.3012C100.544 30.8325 103.424 30.0745 106.35 30.1073C110.075 30.1083 113.655 28.6638 116.337 26.0779C119.137 23.4982 120.806 19.9174 120.981 16.114C121.156 12.3105 119.822 8.59185 117.27 5.76625C114.718 2.94065 111.154 1.23654 107.352 1.02435C103.551 0.812167 99.8191 2.10906 96.9685 4.63311C95.4136 5.95883 94.1567 7.5984 93.2801 9.44419C92.4035 11.29 91.9272 13.3003 91.8824 15.3431C91.7898 18.2082 90.8994 20.9906 89.3115 23.3772L89.2867 23.439Z" fill="#333333"/>
<path d="M97.4801 32.8504L88.7986 23.8196C88.2664 23.2659 87.3862 23.2486 86.8325 23.7808L86.6098 23.9949C86.0561 24.5272 86.0388 25.4074 86.571 25.961L95.2525 34.9919C95.7847 35.5455 96.6649 35.5629 97.2186 35.0307L97.4413 34.8165C97.995 34.2843 98.0123 33.4041 97.4801 32.8504Z" fill="white"/>
<path d="M96.2574 36.0402H96.2142C95.95 36.0358 95.6894 35.979 95.4475 35.8729C95.2056 35.7668 94.9872 35.6136 94.8051 35.4222L86.1221 26.3931C85.7536 26.0083 85.5525 25.493 85.5629 24.9602C85.5733 24.4274 85.7944 23.9205 86.1778 23.5503L86.4064 23.334C86.7902 22.9658 87.3045 22.7649 87.8362 22.7753C88.368 22.7857 88.874 23.0066 89.2431 23.3896L97.8951 32.4249C98.2633 32.8087 98.4643 33.3229 98.4538 33.8547C98.4434 34.3865 98.2225 34.8924 97.8395 35.2615L97.617 35.484C97.2503 35.8344 96.7646 36.0331 96.2574 36.0402ZM87.7969 24.0138C87.5974 24.0124 87.4049 24.0876 87.2593 24.2239L87.0368 24.4402C86.893 24.586 86.8124 24.7824 86.8124 24.9872C86.8124 25.1919 86.893 25.3884 87.0368 25.5341L95.7197 34.5693C95.7905 34.6423 95.8749 34.7007 95.9683 34.741C96.0616 34.7813 96.1619 34.8027 96.2636 34.8042C96.4682 34.8072 96.6658 34.7295 96.8136 34.5879L97.0361 34.3716C97.108 34.2998 97.1651 34.2146 97.2041 34.1207C97.243 34.0269 97.2631 33.9262 97.2631 33.8246C97.2631 33.723 97.243 33.6224 97.2041 33.5286C97.1651 33.4347 97.108 33.3495 97.0361 33.2777L88.384 24.2487C88.3078 24.1709 88.2163 24.1099 88.1152 24.0695C88.0141 24.0291 87.9057 24.0101 87.7969 24.0138Z" fill="#333333"/>
<path d="M95.2565 34.9964L86.575 25.9656C86.0428 25.4119 85.1625 25.3946 84.6089 25.9268L84.3861 26.1409C83.8325 26.6732 83.8151 27.5534 84.3473 28.107L93.0288 37.1379C93.561 37.6915 94.4413 37.7089 94.9949 37.1767L95.2177 36.9625C95.7713 36.4303 95.7887 35.5501 95.2565 34.9964Z" fill="white"/>
<path d="M94.0273 38.1846C93.756 38.1858 93.4872 38.1315 93.2375 38.0253C92.9878 37.919 92.7624 37.763 92.575 37.5666L83.8921 28.5376C83.525 28.1519 83.3249 27.637 83.3353 27.1047C83.3458 26.5724 83.5658 26.0657 83.9477 25.6948L84.1764 25.4785C84.3626 25.2916 84.5857 25.1456 84.8315 25.0498C85.0773 24.9541 85.3404 24.9106 85.604 24.9223C85.8681 24.9262 86.1289 24.983 86.3708 25.0891C86.6128 25.1952 86.8311 25.3486 87.013 25.5403L95.696 34.5755C95.879 34.7651 96.0228 34.9891 96.1192 35.2345C96.2155 35.4798 96.2624 35.7418 96.2572 36.0054C96.2521 36.2689 96.1949 36.5288 96.089 36.7703C95.9832 37.0117 95.8307 37.2298 95.6403 37.4121L95.4179 37.6284C95.0445 37.9878 94.5456 38.1874 94.0273 38.1846ZM93.465 36.7138C93.6094 36.859 93.8041 36.9431 94.0088 36.9486C94.1103 36.9515 94.2114 36.9338 94.3059 36.8966C94.4004 36.8594 94.4865 36.8036 94.5588 36.7323L94.7875 36.516C94.9313 36.3703 95.0119 36.1738 95.0119 35.9691C95.0119 35.7644 94.9313 35.5679 94.7875 35.4222L86.1045 26.3931C86.0332 26.3204 85.9481 26.2627 85.8542 26.2233C85.7603 26.1838 85.6594 26.1635 85.5576 26.1635C85.4557 26.1635 85.3549 26.1838 85.261 26.2233C85.1671 26.2627 85.082 26.3204 85.0107 26.3931L84.7882 26.6094C84.6459 26.7559 84.5662 26.9521 84.5662 27.1563C84.5662 27.3606 84.6459 27.5568 84.7882 27.7033L93.465 36.7138Z" fill="#333333"/>
<path d="M93.0231 37.1361L84.3416 28.1052C83.8094 27.5516 82.9291 27.5342 82.3755 28.0664L82.1527 28.2806C81.5991 28.8128 81.5817 29.6931 82.1139 30.2467L90.7954 39.2775C91.3276 39.8312 92.2079 39.8485 92.7615 39.3163L92.9843 39.1022C93.5379 38.57 93.5553 37.6897 93.0231 37.1361Z" fill="#F15BB5"/>
<path d="M91.7959 40.329C91.5246 40.329 91.2562 40.2743 91.0067 40.1681C90.7571 40.0619 90.5316 39.9065 90.3435 39.711L81.6915 30.682C81.3229 30.2971 81.1218 29.7819 81.1322 29.2491C81.1426 28.7163 81.3637 28.2093 81.7471 27.8391L81.9758 27.6228C82.3596 27.2546 82.8738 27.0537 83.4056 27.0641C83.9374 27.0745 84.4433 27.2955 84.8124 27.6784L93.4954 36.7137C93.6792 36.9029 93.8237 37.1267 93.9205 37.3722C94.0172 37.6176 94.0644 37.8798 94.0592 38.1436C94.0541 38.4074 93.9966 38.6675 93.8903 38.909C93.784 39.1504 93.6308 39.3684 93.4398 39.5503L93.2173 39.7666C93.0291 39.9494 92.8066 40.0932 92.5627 40.1897C92.3188 40.2863 92.0582 40.3336 91.7959 40.329ZM91.2396 38.852C91.3109 38.9237 91.3956 38.9807 91.4889 39.0195C91.5823 39.0584 91.6824 39.0784 91.7835 39.0784C91.8846 39.0784 91.9847 39.0584 92.078 39.0195C92.1714 38.9807 92.2561 38.9237 92.3273 38.852L92.556 38.6357C92.6998 38.4899 92.7804 38.2935 92.7804 38.0887C92.7804 37.884 92.6998 37.6875 92.556 37.5418L83.873 28.5128C83.7273 28.369 83.5308 28.2883 83.3261 28.2883C83.1214 28.2883 82.9249 28.369 82.7792 28.5128L82.5567 28.7291C82.4847 28.8008 82.4277 28.8861 82.3887 28.9799C82.3498 29.0738 82.3297 29.1744 82.3297 29.276C82.3297 29.3776 82.3498 29.4782 82.3887 29.5721C82.4277 29.6659 82.4847 29.7512 82.5567 29.8229L91.2396 38.852Z" fill="#333333"/>
<path d="M94.6013 29.9157C94.4778 29.9165 94.3569 29.8802 94.2542 29.8115C94.1515 29.7429 94.0718 29.6451 94.0252 29.5307C93.9786 29.4163 93.9674 29.2905 93.993 29.1697C94.0186 29.0489 94.0798 28.9385 94.1687 28.8527C96.1711 26.8875 98.229 24.947 100.349 22.9755C99.7177 22.4655 99.123 21.9121 98.5689 21.3193C96.8437 23.5242 95.0058 25.6385 93.0625 27.6538C92.9465 27.7581 92.7954 27.8147 92.6395 27.8122C92.4835 27.8098 92.3343 27.7484 92.2217 27.6405C92.109 27.5326 92.0414 27.3861 92.0323 27.2304C92.0232 27.0747 92.0733 26.9213 92.1726 26.801C94.1403 24.7554 95.997 22.6057 97.7346 20.3614L97.6667 20.281C95.3615 17.3022 95.003 14.5212 96.6346 11.7649C97.1392 10.783 97.9075 9.96125 98.8532 9.39178C99.2073 9.20632 99.5959 9.09579 99.9946 9.06709C100.393 9.03838 100.794 9.09211 101.171 9.22492C101.598 9.37645 101.99 9.61278 102.323 9.91971C102.657 10.2266 102.925 10.5978 103.111 11.011C103.865 12.6734 103.043 14.4903 102.357 15.7078C101.444 17.3078 100.433 18.8496 99.3291 20.3243C99.9201 20.9747 100.563 21.5761 101.251 22.1227C103.908 19.6507 106.918 18.1674 109.705 17.9882C110.348 17.923 110.997 18.0142 111.596 18.254C112.167 18.5237 112.65 18.9483 112.991 19.4793C113.332 20.0104 113.517 20.6265 113.525 21.2575C113.522 21.8544 113.398 22.4446 113.161 22.9926C112.924 23.5406 112.579 24.0351 112.146 24.4464C111.555 25.0062 110.858 25.4435 110.096 25.733C109.335 26.0225 108.524 26.1587 107.709 26.1335C105.534 26.0964 103.272 25.1015 101.331 23.7357C99.1746 25.7442 97.0672 27.728 95.0278 29.7365C94.9142 29.8492 94.7613 29.9134 94.6013 29.9157ZM102.265 22.8643C103.862 24.0436 105.76 24.7483 107.74 24.8975C108.389 24.9213 109.036 24.8161 109.644 24.5881C110.252 24.36 110.808 24.0135 111.281 23.5688C111.591 23.28 111.84 22.9323 112.014 22.546C112.188 22.1598 112.284 21.7428 112.295 21.3193C112.292 20.9249 112.18 20.539 111.972 20.2042C111.764 19.8693 111.467 19.5986 111.114 19.422C110.693 19.2621 110.24 19.2049 109.792 19.2551C107.345 19.3787 104.681 20.7013 102.265 22.8643ZM100.2 10.2941C99.9285 10.2941 99.6608 10.362 99.4218 10.4918C98.6859 10.9592 98.0901 11.6169 97.6975 12.3953C96.3503 14.6695 96.5975 16.814 98.5071 19.3417C99.5165 17.9856 100.443 16.5698 101.282 15.1021C101.9 14.033 102.518 12.6301 101.986 11.5239C101.869 11.2607 101.699 11.0245 101.486 10.8299C101.273 10.6354 101.023 10.4866 100.75 10.3929C100.574 10.3294 100.388 10.296 100.2 10.2941Z" fill="#333333"/>
<path d="M63.3374 60.754L55.668 64.0603L59.2771 56.5269L63.3374 60.754Z" fill="#333333"/>
<path d="M55.6678 64.6784C55.5846 64.6781 55.5022 64.661 55.4258 64.6281C55.3493 64.5951 55.2803 64.5471 55.2229 64.4868C55.1364 64.3963 55.0795 64.2817 55.0596 64.1581C55.0397 64.0345 55.0579 63.9077 55.1116 63.7947L58.7208 56.2612C58.7633 56.1708 58.8272 56.0922 58.9068 56.0319C58.9865 55.9716 59.0796 55.9316 59.1781 55.9151C59.277 55.8997 59.3781 55.9085 59.4729 55.9408C59.5676 55.9731 59.6531 56.0279 59.7219 56.1005L63.7822 60.3215C63.8513 60.3933 63.9021 60.4807 63.9301 60.5763C63.9581 60.6719 63.9626 60.7729 63.9432 60.8706C63.9238 60.9684 63.881 61.06 63.8185 61.1376C63.7561 61.2152 63.6758 61.2766 63.5845 61.3165L55.915 64.629C55.8364 64.6607 55.7526 64.6775 55.6678 64.6784ZM59.45 57.5961L56.9409 62.8368L62.2743 60.5378L59.45 57.5961Z" fill="#333333"/>
<path d="M66.6374 50.6498C66.5136 50.6493 66.3928 50.6118 66.2906 50.5419C66.1884 50.472 66.1096 50.373 66.0643 50.2578C66.019 50.1426 66.0094 50.0165 66.0366 49.8958C66.0639 49.775 66.1268 49.6652 66.2171 49.5806L84.2876 32.5052C84.4034 32.39 84.56 32.3254 84.7233 32.3254C84.8865 32.3254 85.0432 32.39 85.159 32.5052C85.2169 32.5626 85.2629 32.631 85.2942 32.7063C85.3256 32.7816 85.3418 32.8624 85.3418 32.9439C85.3418 33.0255 85.3256 33.1063 85.2942 33.1816C85.2629 33.2569 85.2169 33.3253 85.159 33.3827L67.0885 50.4582C67.0303 50.5192 66.9603 50.5677 66.8827 50.6006C66.8052 50.6336 66.7217 50.6503 66.6374 50.6498Z" fill="#333333"/>
<path d="M70.1169 54.2713C70.0332 54.2702 69.9506 54.2521 69.8741 54.2181C69.7976 54.1841 69.7288 54.1349 69.6719 54.0735C69.5568 53.9577 69.4922 53.8011 69.4922 53.6378C69.4922 53.4746 69.5568 53.3179 69.6719 53.2021L87.7671 36.1514C87.8829 36.0363 88.0395 35.9717 88.2028 35.9717C88.366 35.9717 88.5227 36.0363 88.6385 36.1514C88.6964 36.2088 88.7424 36.2772 88.7737 36.3525C88.8051 36.4278 88.8213 36.5086 88.8213 36.5902C88.8213 36.6718 88.8051 36.7525 88.7737 36.8278C88.7424 36.9032 88.6964 36.9715 88.6385 37.029L70.5433 54.0735C70.4327 54.193 70.2795 54.2641 70.1169 54.2713Z" fill="#333333"/>
<path d="M90.2202 44.6427C90.2202 44.6427 71.9272 38.0486 70.1598 39.5318C68.3923 41.015 68.0215 42.7825 71.1795 46.3298C74.3375 49.8772 82.5137 53.4554 82.5137 53.4554C82.5137 53.4554 79.2444 63.6463 93.0754 67.0515" fill="#FFC9B0"/>
<path d="M93.0752 67.6696H92.9269C87.9829 66.4336 84.5962 64.2521 82.8472 61.125C81.6202 58.897 81.2363 56.3018 81.7657 53.814C79.9426 52.9735 73.4968 49.8587 70.6973 46.7254C68.8803 44.6984 68.0831 43.1101 68.182 41.7196C68.2399 41.192 68.4085 40.6825 68.6769 40.2246C68.9453 39.7666 69.3073 39.3705 69.7394 39.0622C71.5934 37.5172 84.8063 42.041 90.4054 44.0619C90.5595 44.1176 90.685 44.2323 90.7546 44.3806C90.8241 44.529 90.8319 44.6988 90.7762 44.8529C90.7204 45.0055 90.6068 45.1299 90.4599 45.1993C90.313 45.2687 90.1447 45.2775 89.9914 45.2237C81.5185 42.1708 71.6737 39.3094 70.5242 40.0139C70.2253 40.2198 69.9721 40.4853 69.7807 40.7937C69.5892 41.1022 69.4637 41.4468 69.4118 41.8061C69.3438 42.8258 70.0298 44.1669 71.6181 45.9035C74.6525 49.2902 82.6618 52.8684 82.7422 52.8993C82.8809 52.9619 82.9916 53.0734 83.0532 53.2125C83.1147 53.3516 83.1228 53.5086 83.0759 53.6533C82.4829 55.9697 82.7807 58.4242 83.9102 60.5317C85.4923 63.3374 88.6132 65.3336 93.1803 66.4645C93.3442 66.4842 93.4936 66.5682 93.5956 66.698C93.6975 66.8278 93.7438 66.9928 93.7241 67.1567C93.7045 67.3206 93.6205 67.47 93.4907 67.572C93.3609 67.6739 93.1959 67.7202 93.032 67.7005L93.0752 67.6696Z" fill="#333333"/>
<path d="M49.0926 27.1902H28.785C28.6211 27.1902 28.4639 27.1251 28.348 27.0092C28.2321 26.8933 28.167 26.7361 28.167 26.5722V21.3192C28.167 21.1553 28.2321 20.9981 28.348 20.8822C28.4639 20.7663 28.6211 20.7012 28.785 20.7012H49.0926C49.2565 20.7012 49.4137 20.7663 49.5296 20.8822C49.6455 20.9981 49.7106 21.1553 49.7106 21.3192V26.566C49.7114 26.6477 49.6961 26.7287 49.6654 26.8044C49.6347 26.8801 49.5893 26.949 49.5318 27.007C49.4744 27.0651 49.406 27.1112 49.3306 27.1426C49.2552 27.174 49.1743 27.1902 49.0926 27.1902ZM29.403 25.9542H48.4746V21.9372H29.403V25.9542Z" fill="#DFEAEF"/>
<path d="M42.5102 68.5163C42.492 68.0687 42.3274 67.6394 42.0415 67.2944C41.7557 66.9495 41.3646 66.7078 40.9281 66.6067C40.1618 66.4398 39.3893 66.3162 38.6168 66.1988C38.509 66.1919 38.4062 66.1511 38.323 66.0823C38.2398 66.0135 38.1804 65.9202 38.1533 65.8157C37.9246 65.1976 37.6712 64.5796 37.3993 63.9925C37.3571 63.9216 37.3385 63.839 37.3463 63.7568C37.3541 63.6746 37.3878 63.597 37.4426 63.5352C37.9061 62.9172 38.3819 62.2559 38.8146 61.5885C39.0613 61.2143 39.1776 60.7691 39.1451 60.322C39.1127 59.875 38.9335 59.4512 38.6353 59.1165C37.9246 58.3378 37.1707 57.6085 36.4291 56.8608C36.0622 56.448 35.5517 56.1906 35.0016 56.1412C34.4515 56.0919 33.9033 56.2542 33.4688 56.595C32.8879 56.9967 32.3131 57.4046 31.7446 57.831C31.6821 57.8865 31.6038 57.921 31.5207 57.9299C31.4377 57.9387 31.3539 57.9215 31.2811 57.8805C30.626 57.59 29.9647 57.3181 29.2973 57.0585C29.2168 57.0369 29.1449 56.9908 29.0918 56.9266C29.0386 56.8624 29.0068 56.7832 29.0006 56.7001C28.8894 55.9956 28.772 55.291 28.6484 54.5803C28.5827 54.0789 28.3409 53.6171 27.9662 53.2775C27.5915 52.9379 27.1082 52.7426 26.6028 52.7263C25.5151 52.7263 24.4274 52.7263 23.3335 52.7263C22.8699 52.7349 22.4227 52.8993 22.064 53.193C21.7052 53.4867 21.4558 53.8927 21.3559 54.3455C21.1829 55.1365 21.0593 55.9399 20.9295 56.7372C20.9234 56.8203 20.8915 56.8995 20.8384 56.9637C20.7852 57.0279 20.7134 57.074 20.6329 57.0956C20.0149 57.349 19.3598 57.6209 18.7356 57.899C18.6684 57.9415 18.5892 57.9609 18.51 57.9542C18.4307 57.9475 18.3559 57.9151 18.2968 57.8619C17.6788 57.3984 17.0608 56.9287 16.3872 56.5023C16.0121 56.2454 15.5617 56.1216 15.108 56.1508C14.6543 56.1799 14.2234 56.3602 13.8842 56.663C13.0561 57.4232 12.2465 58.2142 11.4864 59.0361C11.1244 59.4021 10.9099 59.8886 10.8837 60.4026C10.8574 60.9167 11.0214 61.4224 11.3442 61.8233C11.7707 62.4413 12.2095 63.0593 12.6297 63.6774C12.6583 63.7264 12.6764 63.7808 12.6828 63.8372C12.6892 63.8936 12.6837 63.9507 12.6668 64.0049C12.401 64.6909 12.1291 65.3707 11.8387 66.0443C11.8143 66.0957 11.779 66.1412 11.7353 66.1775C11.6915 66.2138 11.6403 66.24 11.5853 66.2544C10.8807 66.3842 10.17 66.5016 9.46551 66.6129C8.96622 66.6697 8.50275 66.9001 8.156 67.2638C7.80924 67.6275 7.60122 68.1014 7.56824 68.6028C7.53116 69.74 7.56824 70.8771 7.56824 72.0142C7.58868 72.4573 7.75298 72.8815 8.03624 73.2228C8.3195 73.564 8.70628 73.8037 9.13797 73.9053C9.94756 74.0907 10.7695 74.2143 11.61 74.3503C11.6888 74.3575 11.7636 74.3886 11.8243 74.4394C11.8851 74.4902 11.9289 74.5583 11.9499 74.6346C12.2033 75.2526 12.4814 75.92 12.7657 76.5566C12.8028 76.6199 12.8191 76.6933 12.8125 76.7665C12.8058 76.8396 12.7765 76.9088 12.7286 76.9645C12.296 77.5516 11.8695 78.1387 11.4555 78.7381C11.1324 79.1611 10.9787 79.6894 11.0244 80.2197C11.0701 80.75 11.312 81.2442 11.7027 81.6057C12.3825 82.302 13.0726 82.99 13.773 83.6698C14.1415 84.0745 14.6508 84.323 15.1966 84.3643C15.7423 84.4057 16.2832 84.2368 16.7085 83.8923C17.3265 83.4782 17.8951 83.058 18.4822 82.6563C18.5351 82.6123 18.6003 82.5857 18.6689 82.5801C18.7375 82.5746 18.8061 82.5904 18.8654 82.6254C19.4834 82.8849 20.1014 83.1445 20.7194 83.3732C20.8127 83.4003 20.8951 83.4561 20.955 83.5326C21.0149 83.6091 21.0492 83.7025 21.0531 83.7996C21.1643 84.4979 21.2756 85.1963 21.3992 85.8946C21.4584 86.3825 21.6857 86.8345 22.0422 87.1729C22.3986 87.5113 22.8618 87.7149 23.3521 87.7486C24.4954 87.7857 25.6449 87.7795 26.7882 87.7486C27.2366 87.726 27.6654 87.5574 28.009 87.2684C28.3527 86.9794 28.5924 86.5859 28.6916 86.148C28.8647 85.3755 28.9821 84.5906 29.1057 83.8119C29.1129 83.7189 29.148 83.6302 29.2064 83.5574C29.2649 83.4846 29.3439 83.4312 29.4332 83.4041C30.0513 83.1569 30.7063 82.8911 31.3367 82.6192C31.4013 82.5825 31.4755 82.5663 31.5495 82.5729C31.6235 82.5796 31.6937 82.6086 31.7508 82.6563C32.3317 83.0889 32.9311 83.5029 33.5182 83.8923C33.9299 84.1969 34.4343 84.3498 34.9458 84.3249C35.4188 84.3253 35.8733 84.1413 36.2127 83.8119C36.9667 83.1012 37.6898 82.3658 38.419 81.6366C38.8428 81.2673 39.1071 80.7483 39.1567 80.1883C39.2062 79.6284 39.0371 79.0711 38.6848 78.6331C38.2831 78.0583 37.8752 77.4774 37.4488 76.9088C37.4011 76.8518 37.3721 76.7816 37.3654 76.7076C37.3588 76.6336 37.3749 76.5593 37.4117 76.4948C37.6918 75.8603 37.9576 75.2176 38.2089 74.5666C38.2335 74.4872 38.2814 74.417 38.3465 74.3652C38.4115 74.3134 38.4906 74.2823 38.5735 74.2761L40.6933 73.9301C41.1917 73.8649 41.651 73.6258 41.9903 73.2549C42.3295 72.884 42.5268 72.4052 42.5473 71.903C42.5411 70.7597 42.5349 69.6349 42.5102 68.5163ZM25.0269 77.7555C23.5344 77.7531 22.0763 77.3081 20.8367 76.4769C19.5972 75.6458 18.6319 74.4657 18.0631 73.0859C17.4942 71.7062 17.3473 70.1887 17.6408 68.7254C17.9344 67.2622 18.6552 65.9188 19.7123 64.8652C20.7693 63.8117 22.115 63.0952 23.5792 62.8064C25.0435 62.5177 26.5604 62.6696 27.9383 63.243C29.3162 63.8164 30.4931 64.7855 31.3202 66.0277C32.1473 67.27 32.5875 68.7296 32.5851 70.222C32.5834 71.213 32.3867 72.1939 32.0059 73.1087C31.6252 74.0236 31.068 74.8546 30.3662 75.5541C29.6644 76.2537 28.8316 76.8081 27.9155 77.1858C26.9994 77.5636 26.0178 77.7571 25.0269 77.7555Z" fill="#F15BB5" stroke="#333333" stroke-width="2.03" stroke-linecap="round" stroke-linejoin="round"/>
<path d="M28.5433 37.0722C28.5301 36.7313 28.4049 36.4043 28.187 36.1417C27.9691 35.8792 27.6708 35.6958 27.3382 35.6199C26.7573 35.4902 26.1702 35.3975 25.5892 35.3109C25.5077 35.3049 25.43 35.2737 25.367 35.2217C25.3039 35.1696 25.2585 35.0994 25.237 35.0205C25.0639 34.5508 24.8662 34.0935 24.6684 33.6361C24.6325 33.5844 24.6133 33.523 24.6133 33.46C24.6133 33.3971 24.6325 33.3356 24.6684 33.2839C25.0268 32.8018 25.3853 32.3198 25.7128 31.813C25.8945 31.5311 25.9794 31.1977 25.9549 30.8633C25.9304 30.5288 25.7977 30.2114 25.5769 29.959C25.0392 29.341 24.4645 28.8157 23.9021 28.2533C23.6252 27.9392 23.239 27.7425 22.8221 27.7035C22.4052 27.6644 21.9891 27.7859 21.6587 28.0432C21.2199 28.3522 20.7812 28.6612 20.3486 28.9764C20.3016 29.0196 20.242 29.0466 20.1786 29.0533C20.1151 29.06 20.0512 29.046 19.9963 29.0135C19.5019 28.7972 19.0013 28.587 18.4945 28.3955C18.4331 28.3792 18.3781 28.3443 18.3372 28.2956C18.2963 28.247 18.2714 28.1869 18.2659 28.1235C18.1855 27.5859 18.0928 27.0482 18.0001 26.5167C17.9454 26.14 17.7601 25.7944 17.4766 25.5403C17.1931 25.2862 16.8294 25.1396 16.4489 25.1262C15.6208 25.1262 14.7927 25.1262 13.9769 25.1262C13.6241 25.1335 13.284 25.2594 13.0116 25.4836C12.7391 25.7079 12.5501 26.0174 12.4752 26.3622C12.3392 26.9802 12.2465 27.5982 12.1476 28.1792C12.1438 28.2428 12.1203 28.3037 12.0805 28.3535C12.0407 28.4033 11.9864 28.4395 11.9252 28.4573C11.4369 28.6427 10.9611 28.8528 10.4852 29.0753C10.4363 29.1096 10.3781 29.128 10.3183 29.128C10.2586 29.128 10.2004 29.1096 10.1515 29.0753C9.67561 28.723 9.19975 28.3646 8.70535 28.037C8.41926 27.8437 8.07704 27.7509 7.73248 27.7733C7.38793 27.7957 7.06058 27.9319 6.80189 28.1606C6.18389 28.7354 5.56589 29.3348 4.98496 29.9652C4.71158 30.2419 4.54924 30.6093 4.52874 30.9977C4.50824 31.3862 4.63099 31.7686 4.87372 32.0726C5.20126 32.5423 5.53498 32.9934 5.85635 33.4631C5.88737 33.5426 5.88737 33.6308 5.85635 33.7103C5.65859 34.2294 5.44846 34.7424 5.23834 35.2553C5.22117 35.2952 5.1949 35.3305 5.16163 35.3584C5.12836 35.3863 5.08902 35.406 5.04676 35.416C4.5091 35.5149 3.97762 35.6014 3.43995 35.6879C3.06123 35.7306 2.70953 35.9049 2.44632 36.1806C2.18312 36.4562 2.02514 36.8156 2 37.1958C2 38.0611 2 38.9263 2 39.7853C2.01515 40.1224 2.13979 40.4453 2.35503 40.7052C2.57028 40.965 2.86438 41.1476 3.19275 41.2252C3.81075 41.3612 4.42876 41.4539 5.04676 41.559C5.10662 41.5651 5.16328 41.589 5.20952 41.6275C5.25575 41.6661 5.28945 41.7175 5.30632 41.7753C5.4979 42.2635 5.70803 42.7517 5.92433 43.2338C5.95744 43.2785 5.97532 43.3326 5.97532 43.3883C5.97532 43.4439 5.95744 43.4981 5.92433 43.5428C5.59679 43.9877 5.26924 44.4327 4.96024 44.8838C4.71516 45.2057 4.59842 45.6072 4.63268 46.0103C4.66694 46.4134 4.84975 46.7895 5.14564 47.0654C5.66476 47.5907 6.18389 48.116 6.71537 48.6289C6.99512 48.9367 7.38186 49.126 7.79653 49.1582C8.21121 49.1904 8.62251 49.0629 8.94637 48.802C9.39751 48.4868 9.84866 48.184 10.2874 47.8441C10.3306 47.8129 10.3825 47.7961 10.4358 47.7961C10.489 47.7961 10.5409 47.8129 10.5841 47.8441C11.0414 48.0418 11.4987 48.2396 11.9684 48.4126C12.0398 48.4314 12.1032 48.4729 12.1489 48.5309C12.1946 48.5889 12.2202 48.6602 12.2218 48.734C12.3021 49.2655 12.3948 49.797 12.4875 50.3223C12.5365 50.6895 12.711 51.0285 12.9813 51.2819C13.2516 51.5353 13.6011 51.6875 13.9707 51.7128C14.836 51.7128 15.7073 51.7128 16.5787 51.7128C16.9214 51.6942 17.2483 51.5629 17.5087 51.3394C17.7691 51.1159 17.9484 50.8126 18.0187 50.4768C18.1485 49.8958 18.235 49.2964 18.3339 48.7031C18.3385 48.6325 18.3647 48.565 18.4089 48.5098C18.4531 48.4545 18.5132 48.4141 18.5811 48.3941C19.0693 48.2087 19.5452 48.0109 20.0272 47.7761C20.0751 47.7472 20.1311 47.7347 20.1868 47.7402C20.2425 47.7458 20.2949 47.7692 20.3362 47.807L21.6773 48.7711C21.9933 48.9982 22.376 49.1135 22.765 49.0986C23.1248 49.0936 23.4693 48.9522 23.729 48.7031C24.2976 48.1654 24.8476 47.6092 25.3976 47.0592C25.7201 46.7793 25.9214 46.3854 25.9595 45.9601C25.9975 45.5349 25.8692 45.1114 25.6016 44.7788C25.2926 44.34 24.9836 43.9012 24.6684 43.4686C24.6318 43.4254 24.6092 43.3722 24.6037 43.3158C24.5982 43.2595 24.61 43.2029 24.6375 43.1534C24.8476 42.6714 25.0516 42.1831 25.2555 41.6887C25.274 41.6279 25.3105 41.5742 25.3601 41.5345C25.4098 41.4947 25.4702 41.471 25.5336 41.4663C26.0713 41.3859 26.6089 41.2994 27.1404 41.2067C27.519 41.1575 27.868 40.9761 28.1259 40.6945C28.3837 40.4129 28.5337 40.0493 28.5495 39.6679C28.566 38.7862 28.5639 37.921 28.5433 37.0722ZM15.2747 44.0804C14.1432 44.078 13.0377 43.7401 12.0981 43.1095C11.1585 42.479 10.4269 41.584 9.99587 40.5377C9.56481 39.4914 9.4536 38.3409 9.67631 37.2314C9.89902 36.122 10.4456 35.1034 11.2471 34.3046C12.0485 33.5057 13.0688 32.9624 14.179 32.7433C15.2892 32.5242 16.4394 32.6391 17.4842 33.0736C18.5291 33.508 19.4217 34.2425 20.0492 35.1841C20.6768 36.1257 21.011 37.2323 21.0098 38.3639C21.0049 39.8817 20.3985 41.3357 19.3235 42.4072C18.2485 43.4787 16.7926 44.0804 15.2747 44.0804Z" fill="#F15BB5" stroke="#333333" stroke-width="2.03" stroke-linecap="round" stroke-linejoin="round"/>
</svg>
