<svg width="100" height="86" viewBox="0 0 100 86" fill="none" xmlns="http://www.w3.org/2000/svg">
<path d="M0.55957 29.898L50.0003 0.555664L99.441 29.898V84.45H0.55957V29.898Z" fill="#00BBF9"/>
<path d="M99.4406 85.0038H0.559221C0.410906 85.0038 0.26867 84.9449 0.163796 84.84C0.0589216 84.7351 0 84.5929 0 84.4445V29.8982C1.69263e-05 29.8011 0.0252931 29.7057 0.0733371 29.6214C0.121381 29.5371 0.190542 29.4667 0.274021 29.4172L49.7147 0.07492C49.7997 0.0258381 49.8962 0 49.9943 0C50.0925 0 50.1889 0.0258381 50.2739 0.07492L99.7146 29.4172C99.7981 29.4667 99.8673 29.5371 99.9153 29.6214C99.9634 29.7057 99.9886 29.8011 99.9887 29.8982V84.4445C99.9887 84.5909 99.9313 84.7315 99.8288 84.8361C99.7264 84.9406 99.587 85.0008 99.4406 85.0038ZM1.11844 83.8853H98.8814V30.2001L49.9999 1.20455L1.11844 30.2001V83.8853Z" fill="#333333"/>
<path d="M92.5008 0.555664H7.50488V74.2889H92.5008V0.555664Z" fill="white"/>
<path d="M92.4992 74.8483H7.4977C7.34938 74.8483 7.20714 74.7894 7.10227 74.6845C6.99739 74.5796 6.93848 74.4374 6.93848 74.2891V0.561418C6.93848 0.413103 6.99739 0.270863 7.10227 0.165989C7.20714 0.0611146 7.34938 0.00219727 7.4977 0.00219727H92.4992C92.6476 0.00219727 92.7898 0.0611146 92.8947 0.165989C92.9995 0.270863 93.0585 0.413103 93.0585 0.561418V74.2891C93.0585 74.4374 92.9995 74.5796 92.8947 74.6845C92.7898 74.7894 92.6476 74.8483 92.4992 74.8483ZM8.05692 73.7299H91.94V1.12064H8.05692V73.7299Z" fill="#333333"/>
<path d="M99.4407 29.8979L50 68.2549L99.4407 84.4499V29.8979Z" fill="#00BBF9"/>
<path d="M99.4412 85.0038C99.3839 85.0145 99.3251 85.0145 99.2678 85.0038L49.8271 68.7864C49.73 68.7553 49.6432 68.6982 49.5762 68.6213C49.5091 68.5444 49.4644 68.4507 49.4468 68.3502C49.4257 68.2464 49.4344 68.1388 49.472 68.0398C49.5096 67.9408 49.5746 67.8545 49.6593 67.791L99.1 29.434C99.1824 29.37 99.2811 29.3303 99.3849 29.3195C99.4886 29.3086 99.5934 29.327 99.6872 29.3725C99.7813 29.4186 99.8606 29.4902 99.916 29.5792C99.9714 29.6682 100.001 29.771 100 29.8758V84.4446C100.001 84.5328 99.98 84.6198 99.9401 84.6986C99.9003 84.7773 99.8424 84.8455 99.7711 84.8975C99.6752 84.967 99.5596 85.0042 99.4412 85.0038ZM51.1748 68.0482L98.882 83.6784V31.039L51.1748 68.0482Z" fill="#333333"/>
<path d="M0.55957 29.8979L50.0003 68.2549L0.55957 84.4499V29.8979Z" fill="#00BBF9"/>
<path d="M0.559223 85.0036C0.440765 85.004 0.325235 84.9668 0.229284 84.8974C0.158041 84.8453 0.100129 84.7771 0.0602792 84.6984C0.0204299 84.6197 -0.000227032 84.5326 1.88199e-06 84.4444V29.898C-0.000207867 29.7932 0.029044 29.6905 0.0844149 29.6015C0.139786 29.5125 0.21905 29.4408 0.313168 29.3947C0.403504 29.3546 0.502845 29.3392 0.601077 29.35C0.69931 29.3608 0.792925 29.3975 0.872389 29.4562L50.3131 67.8132C50.3978 67.8767 50.4628 67.963 50.5004 68.062C50.538 68.161 50.5468 68.2686 50.5256 68.3724C50.508 68.4729 50.4633 68.5666 50.3963 68.6435C50.3292 68.7204 50.2425 68.7775 50.1453 68.8086L0.732584 85.0036C0.675298 85.0144 0.616508 85.0144 0.559223 85.0036ZM1.11844 31.0332V83.6727L48.8256 68.0425L1.11844 31.0332Z" fill="#333333"/>
<path d="M99.441 84.4446H0.55957L46.0522 49.9575C47.1887 49.0975 48.575 48.6321 50.0003 48.6321C51.4255 48.6321 52.8118 49.0975 53.9484 49.9575L99.441 84.4446Z" fill="#00BBF9"/>
<path d="M99.4408 85.0038H0.559437C0.443002 85.0035 0.329587 84.9668 0.235007 84.8989C0.140427 84.831 0.0694023 84.7352 0.0318441 84.625C-0.00571421 84.5148 -0.0079322 84.3956 0.0254955 84.2841C0.0589232 84.1725 0.126332 84.0742 0.218316 84.0028L45.7109 49.5101C46.9471 48.5792 48.4526 48.0757 50.0001 48.0757C51.5477 48.0757 53.0532 48.5792 54.2894 49.5101L99.7708 84.0084C99.8628 84.0798 99.9302 84.1781 99.9636 84.2897C99.997 84.4012 99.9948 84.5204 99.9573 84.6306C99.9197 84.7408 99.8487 84.8366 99.7541 84.9045C99.6595 84.9724 99.5461 85.0091 99.4297 85.0094L99.4408 85.0038ZM2.22032 83.8854H97.78L53.6015 50.4049C52.5607 49.62 51.2925 49.1955 49.989 49.1955C48.6854 49.1955 47.4173 49.62 46.3764 50.4049L2.22032 83.8854Z" fill="#333333"/>
<path d="M35.6006 47.4957L34.8494 47.6955C34.1141 47.891 33.3312 47.7864 32.673 47.4047C32.0148 47.023 31.5352 46.3955 31.3397 45.6602L27.8133 32.3977L34.1095 30.7236L37.6359 43.9861C37.8314 44.7214 37.7268 45.5042 37.3451 46.1624C36.9634 46.8206 36.3359 47.3002 35.6006 47.4957Z" fill="#333333"/>
<path d="M34.1123 48.3468C33.3566 48.3467 32.622 48.0973 32.0225 47.6373C31.4229 47.1773 30.9919 46.5323 30.7962 45.8023L27.2731 32.5376C27.254 32.4666 27.2491 32.3925 27.2587 32.3196C27.2683 32.2466 27.2922 32.1763 27.329 32.1126C27.4042 31.9851 27.5268 31.8926 27.6701 31.8554L33.9669 30.1777C34.11 30.1402 34.2622 30.1609 34.3901 30.2353C34.5179 30.3097 34.6111 30.4318 34.6492 30.5748L38.1779 43.8395C38.2936 44.2746 38.3225 44.7283 38.2628 45.1745C38.2032 45.6208 38.0562 46.051 37.8304 46.4405C37.6045 46.8299 37.304 47.1711 36.9463 47.4445C36.5885 47.7178 36.1804 47.918 35.7453 48.0336L34.9903 48.235C34.7039 48.3108 34.4086 48.3484 34.1123 48.3468ZM28.5201 32.7893L31.8754 45.5116C31.9527 45.8049 32.0872 46.0801 32.2711 46.3213C32.455 46.5626 32.6848 46.7651 32.9472 46.9174C33.2095 47.0696 33.4994 47.1685 33.8001 47.2085C34.1008 47.2484 34.4065 47.2286 34.6995 47.1501L35.4601 46.9767C36.0521 46.818 36.5571 46.431 36.8643 45.9006C37.1714 45.3701 37.2557 44.7395 37.0986 44.1471L33.7153 31.4248L28.5201 32.7893Z" fill="#333333"/>
<path d="M71.0211 33.6955C75.5303 33.6955 79.1857 30.04 79.1857 25.5308C79.1857 21.0216 75.5303 17.3662 71.0211 17.3662C66.5119 17.3662 62.8564 21.0216 62.8564 25.5308C62.8564 30.04 66.5119 33.6955 71.0211 33.6955Z" fill="#FEE440"/>
<path d="M71.0212 34.2545C69.2942 34.2556 67.6057 33.7445 66.1692 32.7857C64.7328 31.8269 63.6131 30.4636 62.9517 28.8683C62.2903 27.273 62.1169 25.5173 62.4536 23.8234C62.7902 22.1296 63.6218 20.5736 64.8429 19.3524C66.0641 18.1313 67.6201 17.2998 69.3139 16.9631C71.0078 16.6265 72.7634 16.7998 74.3588 17.4612C75.9541 18.1226 77.3174 19.2424 78.2762 20.6788C79.2349 22.1152 79.7461 23.8037 79.745 25.5307C79.7421 27.8435 78.822 30.0607 77.1866 31.6961C75.5512 33.3315 73.334 34.2516 71.0212 34.2545ZM71.0212 17.9197C69.5156 17.9186 68.0436 18.364 66.7912 19.1997C65.5388 20.0353 64.5624 21.2236 63.9855 22.6142C63.4086 24.0048 63.2571 25.5353 63.5501 27.0121C63.8432 28.4888 64.5676 29.8455 65.6318 30.9105C66.696 31.9755 68.0521 32.7009 69.5287 32.995C71.0052 33.2892 72.5358 33.1388 73.9269 32.5629C75.3179 31.987 76.5069 31.0114 77.3435 29.7597C78.18 28.508 78.6266 27.0362 78.6266 25.5307C78.6288 24.53 78.4338 23.5387 78.0527 22.6134C77.6716 21.6881 77.1119 20.8469 76.4056 20.1381C75.6993 19.4292 74.8602 18.8664 73.9364 18.4819C73.0125 18.0974 72.0219 17.8988 71.0212 17.8973V17.9197Z" fill="#333333"/>
<path d="M40.04 16.1805V34.8697L66.4968 42.503L73.4982 44.5218V6.53394L66.4968 8.55272L40.04 16.1805Z" fill="white"/>
<path d="M73.4865 45.0808C73.4365 45.0889 73.3855 45.0889 73.3355 45.0808L39.8774 35.4287C39.7564 35.3948 39.6504 35.3213 39.5763 35.2198C39.5022 35.1184 39.4645 34.9949 39.4691 34.8694V16.1803C39.4645 16.0548 39.5022 15.9313 39.5763 15.8299C39.6504 15.7284 39.7564 15.6549 39.8774 15.621L73.3355 5.97449C73.4204 5.95064 73.5096 5.94717 73.5961 5.96437C73.6825 5.98157 73.7636 6.01895 73.8329 6.07347C73.9021 6.12798 73.9575 6.19809 73.9945 6.27808C74.0315 6.35806 74.049 6.44565 74.0457 6.53371V44.5216C74.0457 44.6084 74.0255 44.694 73.9867 44.7717C73.9479 44.8493 73.8915 44.9169 73.8221 44.969C73.7253 45.0416 73.6075 45.0808 73.4865 45.0808ZM40.5876 34.4556L72.9273 43.7778V7.27189L40.5876 16.5997V34.4556Z" fill="#333333"/>
<path d="M40.04 34.8359H30.1362C27.6638 34.8359 25.2927 33.8538 23.5444 32.1055C21.7962 30.3573 20.814 27.9861 20.814 25.5137C20.814 23.0413 21.7962 20.6702 23.5444 18.9219C25.2927 17.1737 27.6638 16.1915 30.1362 16.1915H40.04V34.8359Z" fill="#FE4C40"/>
<path d="M40.0391 35.412H30.1353C27.5545 35.3506 25.1002 34.2823 23.2966 32.4353C21.4931 30.5884 20.4834 28.1093 20.4834 25.5278C20.4834 22.9463 21.4931 20.4672 23.2966 18.6202C25.1002 16.7733 27.5545 15.7049 30.1353 15.6436H40.0391C40.1874 15.6436 40.3297 15.7025 40.4345 15.8073C40.5394 15.9122 40.5983 16.0545 40.5983 16.2028V34.8528C40.5983 35.0011 40.5394 35.1433 40.4345 35.2482C40.3297 35.3531 40.1874 35.412 40.0391 35.412ZM30.1353 16.7788C27.8488 16.8365 25.6754 17.7854 24.0786 19.423C22.4818 21.0606 21.5881 23.2573 21.5881 25.5446C21.5881 27.8318 22.4818 30.0285 24.0786 31.6661C25.6754 33.3037 27.8488 34.2526 30.1353 34.3103H39.4799V16.7788H30.1353Z" fill="#333333"/>
<path d="M66.4971 8.55272V42.503L73.4985 44.5218V6.53394L66.4971 8.55272Z" fill="#9B5DE5"/>
<path d="M73.4874 45.0808C73.4374 45.0889 73.3864 45.0889 73.3364 45.0808L66.3406 43.062C66.2207 43.0271 66.1159 42.9531 66.0429 42.8518C65.9699 42.7504 65.933 42.6276 65.9379 42.5028V8.5525C65.933 8.42771 65.9699 8.30485 66.0429 8.2035C66.1159 8.10215 66.2207 8.02815 66.3406 7.99328L73.3476 5.97449C73.4325 5.95064 73.5217 5.94717 73.6081 5.96437C73.6946 5.98157 73.7757 6.01895 73.845 6.07347C73.9142 6.12798 73.9696 6.19809 74.0066 6.27808C74.0435 6.35806 74.0611 6.44565 74.0578 6.53371V44.5216C74.0578 44.6084 74.0376 44.694 73.9988 44.7717C73.96 44.8493 73.9036 44.9169 73.8341 44.969C73.7343 45.0439 73.6122 45.0833 73.4874 45.0808ZM67.0452 42.0834L72.9282 43.761V7.27189L67.0564 8.94955L67.0452 42.0834Z" fill="#333333"/>
<path d="M35.8743 20.5479H29.6725C29.5242 20.5479 29.3819 20.489 29.2771 20.3841C29.1722 20.2792 29.1133 20.137 29.1133 19.9887C29.1133 19.8403 29.1722 19.6981 29.2771 19.5932C29.3819 19.4884 29.5242 19.4294 29.6725 19.4294H35.8743C36.0226 19.4294 36.1648 19.4884 36.2697 19.5932C36.3746 19.6981 36.4335 19.8403 36.4335 19.9887C36.4335 20.137 36.3746 20.2792 36.2697 20.3841C36.1648 20.489 36.0226 20.5479 35.8743 20.5479Z" fill="#333333"/>
<path d="M35.8743 22.8911H29.6725C29.5242 22.8911 29.3819 22.8322 29.2771 22.7274C29.1722 22.6225 29.1133 22.4802 29.1133 22.3319C29.1133 22.1836 29.1722 22.0414 29.2771 21.9365C29.3819 21.8316 29.5242 21.7727 29.6725 21.7727H35.8743C36.0226 21.7727 36.1648 21.8316 36.2697 21.9365C36.3746 22.0414 36.4335 22.1836 36.4335 22.3319C36.4335 22.4802 36.3746 22.6225 36.2697 22.7274C36.1648 22.8322 36.0226 22.8911 35.8743 22.8911Z" fill="#333333"/>
<path d="M35.8743 25.2288H29.6725C29.5242 25.2288 29.3819 25.1699 29.2771 25.065C29.1722 24.9601 29.1133 24.8179 29.1133 24.6696C29.1133 24.5213 29.1722 24.379 29.2771 24.2741C29.3819 24.1693 29.5242 24.1104 29.6725 24.1104H35.8743C36.0226 24.1104 36.1648 24.1693 36.2697 24.2741C36.3746 24.379 36.4335 24.5213 36.4335 24.6696C36.4335 24.8179 36.3746 24.9601 36.2697 25.065C36.1648 25.1699 36.0226 25.2288 35.8743 25.2288Z" fill="#333333"/>
</svg>
