<svg width="154" height="34" viewBox="0 0 154 34" fill="none" xmlns="http://www.w3.org/2000/svg">
<path d="M7.74135 16.4372H14.3443L14.5719 16.6624V20.265C14.5719 24.9935 10.4736 27.02 7.28597 27.02C4.09836 27.02 0 24.9935 0 20.4902V14.1856C0 9.68225 4.09836 7.65576 7.28597 7.65576C10.4736 7.65576 14.5719 9.68225 14.5719 14.1856V14.6359L14.3443 15.0862H10.7013L10.2459 14.8611C10.2459 13.0597 8.87978 11.7087 7.28597 11.7087C5.46448 11.7087 4.32605 13.0597 4.32605 14.8611V19.8147C4.32605 21.616 5.46448 22.967 7.28597 22.967C9.10747 22.967 10.2459 21.8412 10.2459 20.265H7.74135L7.51366 20.0399V16.8875L7.74135 16.4372Z" fill="#0E293A"/>
<path d="M25.5008 8.10596C27.7777 8.10596 29.5992 8.55629 30.7376 9.68212C32.1037 10.5828 32.7868 12.1589 32.7868 14.1854V20.4901C32.7868 22.5166 32.1037 24.0927 30.7376 24.9934C29.3715 25.894 27.55 26.5695 25.5008 26.5695H18.4425L18.2148 26.3444V8.33112L18.4425 8.10596H25.5008ZM28.4607 14.6358C28.4607 12.8344 27.3223 11.9338 25.5008 11.9338H22.5409V22.7417H25.5008C27.3223 22.7417 28.4607 21.8411 28.4607 20.0397V14.6358Z" fill="#0E293A"/>
<path d="M153.436 34L143.19 0H142.051L152.297 34H153.436Z" fill="#1E4563"/>
<path d="M109.409 26.4118H109.55V26.2707V8.39453V8.25342H109.409H105.112H104.971V8.39453V26.2707V26.4118H105.112H109.409Z" fill="#2196F3" stroke="#2196F3" stroke-width="0.282231"/>
<path d="M102.039 22.9557V22.8146H101.898H94.5375V8.39453V8.25342H94.3963H90.0869H89.9458V8.39453V26.2707V26.4118H90.0869H101.898H102.039V26.2707V22.9557Z" fill="#2196F3" stroke="#2196F3" stroke-width="0.282231"/>
<path d="M84.7923 26.4118H84.9334V26.2707V8.39453V8.25342H84.7923H80.4952H80.3541V8.39453V18.9842L74.2949 8.3248L74.2543 8.25342H74.1722H69.8628H69.7217V8.39453V26.2707V26.4118H69.8628H74.1722H74.3133V26.2707V15.6801L80.3848 26.3405L80.4254 26.4118H80.5075H84.7923Z" fill="#2196F3" stroke="#2196F3" stroke-width="0.282231"/>
<mask id="path-7-outside-1" maskUnits="userSpaceOnUse" x="113.704" y="7.39453" width="32" height="20" fill="black">
<rect fill="white" x="113.704" y="7.39453" width="32" height="20"/>
<path fill-rule="evenodd" clip-rule="evenodd" d="M139.47 8.39453H133.41V26.2707H144.855L143.856 22.9557H137.719V18.6954H142.573L141.608 15.491H137.719V11.7218H140.472L139.47 8.39453ZM125.349 26.2707H129.634V8.39453H125.336V19.518L119.014 8.39453H114.704V26.2707H119.014V15.1472L125.349 26.2707Z"/>
</mask>
<path fill-rule="evenodd" clip-rule="evenodd" d="M139.47 8.39453H133.41V26.2707H144.855L143.856 22.9557H137.719V18.6954H142.573L141.608 15.491H137.719V11.7218H140.472L139.47 8.39453ZM125.349 26.2707H129.634V8.39453H125.336V19.518L119.014 8.39453H114.704V26.2707H119.014V15.1472L125.349 26.2707Z" fill="#2196F3"/>
<path d="M133.41 8.39453V8.1123H133.127V8.39453H133.41ZM139.47 8.39453L139.74 8.31312L139.679 8.1123H139.47V8.39453ZM133.41 26.2707H133.127V26.5529H133.41V26.2707ZM144.855 26.2707V26.5529H145.235L145.125 26.1893L144.855 26.2707ZM143.856 22.9557L144.127 22.8743L144.066 22.6735H143.856V22.9557ZM137.719 22.9557H137.437V23.238H137.719V22.9557ZM137.719 18.6954V18.4132H137.437V18.6954H137.719ZM142.573 18.6954V18.9776H142.953L142.843 18.614L142.573 18.6954ZM141.608 15.491L141.878 15.4096L141.817 15.2087H141.608V15.491ZM137.719 15.491H137.437V15.7732H137.719V15.491ZM137.719 11.7218V11.4395H137.437V11.7218H137.719ZM140.472 11.7218V12.004H140.852L140.742 11.6403L140.472 11.7218ZM129.634 26.2707V26.5529H129.916V26.2707H129.634ZM125.349 26.2707L125.104 26.4104L125.185 26.5529H125.349V26.2707ZM129.634 8.39453H129.916V8.1123H129.634V8.39453ZM125.336 8.39453V8.1123H125.054V8.39453H125.336ZM125.336 19.518L125.091 19.6575L125.619 20.5856V19.518H125.336ZM119.014 8.39453L119.259 8.25506L119.178 8.1123H119.014V8.39453ZM114.704 8.39453V8.1123H114.422V8.39453H114.704ZM114.704 26.2707H114.422V26.5529H114.704V26.2707ZM119.014 26.2707V26.5529H119.296V26.2707H119.014ZM119.014 15.1472L119.259 15.0075L118.731 14.0814V15.1472H119.014ZM133.41 8.67676H139.47V8.1123H133.41V8.67676ZM133.692 26.2707V8.39453H133.127V26.2707H133.692ZM144.855 25.9885H133.41V26.5529H144.855V25.9885ZM145.125 26.1893L144.127 22.8743L143.586 23.0371L144.585 26.3521L145.125 26.1893ZM137.719 23.238H143.856V22.6735H137.719V23.238ZM137.437 18.6954V22.9557H138.001V18.6954H137.437ZM142.573 18.4132H137.719V18.9776H142.573V18.4132ZM142.843 18.614L141.878 15.4096L141.337 15.5724L142.303 18.7768L142.843 18.614ZM137.719 15.7732H141.608V15.2087H137.719V15.7732ZM137.437 11.7218V15.491H138.001V11.7218H137.437ZM140.472 11.4395H137.719V12.004H140.472V11.4395ZM140.742 11.6403L139.74 8.31312L139.2 8.47594L140.202 11.8032L140.742 11.6403ZM129.634 25.9885H125.349V26.5529H129.634V25.9885ZM129.351 8.39453V26.2707H129.916V8.39453H129.351ZM125.336 8.67676H129.634V8.1123H125.336V8.67676ZM125.619 19.518V8.39453H125.054V19.518H125.619ZM118.768 8.534L125.091 19.6575L125.582 19.3785L119.259 8.25506L118.768 8.534ZM114.704 8.67676H119.014V8.1123H114.704V8.67676ZM114.986 26.2707V8.39453H114.422V26.2707H114.986ZM119.014 25.9885H114.704V26.5529H119.014V25.9885ZM118.731 15.1472V26.2707H119.296V15.1472H118.731ZM125.594 26.131L119.259 15.0075L118.768 15.2869L125.104 26.4104L125.594 26.131Z" fill="#2196F3" mask="url(#path-7-outside-1)"/>
<path fill-rule="evenodd" clip-rule="evenodd" d="M43.0329 8.10599L43.0328 8.10596H36.6576L36.4299 8.33112V26.3444L36.6576 26.5695H48.5612L47.3402 22.5166H40.756V18.6887H46.187L45.0338 14.8609H40.756V12.1589H44.2199L42.9989 8.10599L43.0329 8.10599Z" fill="#0E293A"/>
<mask id="path-10-outside-2" maskUnits="userSpaceOnUse" x="52.4795" y="7.33154" width="15" height="20" fill="black">
<rect fill="white" x="52.4795" y="7.33154" width="15" height="20"/>
<path fill-rule="evenodd" clip-rule="evenodd" d="M66.649 17.8835C66.649 19.6269 66.3257 21.1698 65.6791 22.5121C65.0325 23.8545 64.1116 24.8899 62.9166 25.6184C61.7298 26.3387 60.3752 26.6988 58.8527 26.6988C58.6963 26.6988 58.5416 26.6951 58.3887 26.6878L57.257 22.9312C57.7082 23.2002 58.2401 23.3347 58.8527 23.3347C59.9413 23.3347 60.7803 22.8723 61.3696 21.9474C61.959 21.0225 62.2577 19.6924 62.2659 17.9572V17.1346C62.2659 15.3584 61.9671 14.012 61.3696 13.0952C60.7803 12.1703 59.9332 11.7079 58.8282 11.7079C56.6673 11.7079 55.5255 13.3285 55.4027 16.5698L55.4009 16.7698L53.4795 10.392C53.8556 10.0247 54.2716 9.70216 54.7275 9.42425C55.9307 8.69578 57.2976 8.33154 58.8282 8.33154C60.3424 8.33154 61.693 8.69169 62.8798 9.41197C64.0666 10.1323 64.9874 11.1595 65.6422 12.4936C66.3052 13.8196 66.6408 15.342 66.649 17.0609V17.8835Z"/>
</mask>
<path fill-rule="evenodd" clip-rule="evenodd" d="M66.649 17.8835C66.649 19.6269 66.3257 21.1698 65.6791 22.5121C65.0325 23.8545 64.1116 24.8899 62.9166 25.6184C61.7298 26.3387 60.3752 26.6988 58.8527 26.6988C58.6963 26.6988 58.5416 26.6951 58.3887 26.6878L57.257 22.9312C57.7082 23.2002 58.2401 23.3347 58.8527 23.3347C59.9413 23.3347 60.7803 22.8723 61.3696 21.9474C61.959 21.0225 62.2577 19.6924 62.2659 17.9572V17.1346C62.2659 15.3584 61.9671 14.012 61.3696 13.0952C60.7803 12.1703 59.9332 11.7079 58.8282 11.7079C56.6673 11.7079 55.5255 13.3285 55.4027 16.5698L55.4009 16.7698L53.4795 10.392C53.8556 10.0247 54.2716 9.70216 54.7275 9.42425C55.9307 8.69578 57.2976 8.33154 58.8282 8.33154C60.3424 8.33154 61.693 8.69169 62.8798 9.41197C64.0666 10.1323 64.9874 11.1595 65.6422 12.4936C66.3052 13.8196 66.6408 15.342 66.649 17.0609V17.8835Z" fill="#2196F3"/>
<path d="M62.9166 25.6184L63.063 25.8596L63.0635 25.8594L62.9166 25.6184ZM58.3887 26.6878L58.1185 26.7692L58.176 26.9601L58.3752 26.9697L58.3887 26.6878ZM57.257 22.9312L57.4016 22.6888L56.7771 22.3164L56.9868 23.0126L57.257 22.9312ZM61.3696 21.9474L61.1316 21.7957L61.3696 21.9474ZM62.2659 17.9572L62.5481 17.9585V17.9572H62.2659ZM61.3696 13.0952L61.1316 13.2469L61.1332 13.2494L61.3696 13.0952ZM55.4027 16.5698L55.1206 16.5591L55.1205 16.5672L55.4027 16.5698ZM55.4009 16.7698L55.1306 16.8513L55.6831 16.7725L55.4009 16.7698ZM53.4795 10.392L53.2823 10.1901L53.1599 10.3096L53.2093 10.4734L53.4795 10.392ZM54.7275 9.42425L54.5813 9.18282L54.5806 9.18326L54.7275 9.42425ZM62.8798 9.41197L63.0262 9.1707L62.8798 9.41197ZM65.6422 12.4936L65.3889 12.618L65.3898 12.6199L65.6422 12.4936ZM66.649 17.0609H66.9312L66.9312 17.0596L66.649 17.0609ZM65.9333 22.6346C66.6012 21.2481 66.9312 19.6621 66.9312 17.8835H66.3668C66.3668 19.5917 66.0501 21.0915 65.4248 22.3897L65.9333 22.6346ZM63.0635 25.8594C64.308 25.1007 65.2647 24.0227 65.9333 22.6346L65.4248 22.3897C64.8002 23.6863 63.9152 24.6791 62.7697 25.3774L63.0635 25.8594ZM58.8527 26.981C60.4216 26.981 61.8279 26.6093 63.063 25.8596L62.7702 25.3771C61.6317 26.068 60.3287 26.4166 58.8527 26.4166V26.981ZM58.3752 26.9697C58.5326 26.9772 58.6918 26.981 58.8527 26.981V26.4166C58.7007 26.4166 58.5505 26.413 58.4023 26.4059L58.3752 26.9697ZM56.9868 23.0126L58.1185 26.7692L58.659 26.6064L57.5273 22.8498L56.9868 23.0126ZM58.8527 23.0525C58.2825 23.0525 57.8022 22.9277 57.4016 22.6888L57.1125 23.1736C57.6142 23.4728 58.1978 23.617 58.8527 23.617V23.0525ZM61.1316 21.7957C60.5936 22.64 59.844 23.0525 58.8527 23.0525V23.617C60.0387 23.617 60.967 23.1045 61.6077 22.099L61.1316 21.7957ZM61.9837 17.9558C61.9756 19.6661 61.6802 20.9348 61.1316 21.7957L61.6077 22.099C62.2378 21.1101 62.5398 19.7187 62.5481 17.9585L61.9837 17.9558ZM61.9837 17.1346V17.9572H62.5481V17.1346H61.9837ZM61.1332 13.2494C61.6875 14.0998 61.9837 15.3822 61.9837 17.1346H62.5481C62.5481 15.3346 62.2468 13.9241 61.6061 12.9411L61.1332 13.2494ZM58.8282 11.9901C59.8376 11.9901 60.5946 12.4041 61.1316 13.2469L61.6077 12.9436C60.966 11.9366 60.0287 11.4256 58.8282 11.4256V11.9901ZM55.6848 16.5805C55.7453 14.983 56.0566 13.8315 56.5819 13.0859C57.0946 12.3582 57.8299 11.9901 58.8282 11.9901V11.4256C57.6656 11.4256 56.7496 11.8679 56.1205 12.7608C55.504 13.6358 55.183 14.9153 55.1207 16.5591L55.6848 16.5805ZM55.6831 16.7725L55.685 16.5724L55.1205 16.5672L55.1187 16.7672L55.6831 16.7725ZM53.2093 10.4734L55.1306 16.8513L55.6711 16.6884L53.7497 10.3106L53.2093 10.4734ZM54.5806 9.18326C54.1068 9.47208 53.6739 9.80771 53.2823 10.1901L53.6767 10.5939C54.0373 10.2418 54.4364 9.93224 54.8744 9.66523L54.5806 9.18326ZM58.8282 8.04931C57.2507 8.04931 55.8324 8.42532 54.5813 9.18282L54.8736 9.66568C56.0289 8.96623 57.3444 8.61377 58.8282 8.61377V8.04931ZM63.0262 9.1707C61.7913 8.42121 60.3892 8.04931 58.8282 8.04931V8.61377C60.2956 8.61377 61.5946 8.96216 62.7334 9.65324L63.0262 9.1707ZM65.8956 12.3693C65.2188 10.9903 64.2624 9.92094 63.0262 9.1707L62.7334 9.65324C63.8708 10.3436 64.7561 11.3286 65.3889 12.618L65.8956 12.3693ZM66.9312 17.0596C66.9229 15.3042 66.5799 13.7379 65.8947 12.3674L65.3898 12.6199C66.0305 13.9013 66.3588 15.3798 66.3668 17.0622L66.9312 17.0596ZM66.9312 17.8835V17.0609H66.3668V17.8835H66.9312Z" fill="#2196F3" mask="url(#path-10-outside-2)"/>
<path d="M56.0111 34L45.7651 0H44.6267L54.8726 34H56.0111Z" fill="#1E4563"/>
</svg>
