<svg width="100" height="40" viewBox="0 0 100 40" fill="none" xmlns="http://www.w3.org/2000/svg">
<g clip-path="url(#clip0)">
<path d="M46.2199 17.3313C45.0846 17.3313 44.1461 17.7063 43.4043 18.4564C42.6778 19.1916 42.2842 20.1517 42.2842 21.2769C42.2842 22.447 42.6929 23.3922 43.4951 24.1272C44.2974 24.8624 45.3419 25.2224 46.6286 25.2224C47.6276 25.2224 48.6116 24.9674 49.4895 24.5773V23.0621C48.6418 23.5422 47.6428 23.7972 46.6286 23.7972C45.3722 23.7972 44.1763 23.2571 43.919 21.8169H49.8074C49.8528 21.6819 49.8831 21.2918 49.8831 20.9318C49.8831 20.2117 49.7014 19.3116 48.9446 18.4864C48.2785 17.7363 47.2946 17.3313 46.2199 17.3313ZM46.1745 18.8165C47.1432 18.8165 48.1726 19.4016 48.324 20.5717H43.9341C44.1612 19.3716 45.1451 18.8165 46.1745 18.8165Z" fill="black"/>
<path d="M72.0077 17.4033C71.2205 17.4033 70.282 17.7334 69.7066 18.3184V17.5533H68.1328V25.0544H69.7066V21.2889C69.7066 19.5336 70.8116 18.9336 72.0987 18.9336C72.1742 18.9336 72.2803 18.9485 72.3859 18.9636V17.4333C72.2501 17.4183 72.0837 17.4033 72.0077 17.4033Z" fill="black"/>
<path d="M54.6607 21.1991L57.476 17.5386H55.5689L52.7988 21.2291L55.7355 25.0396H57.5972L54.6304 21.2141L54.6607 21.1991Z" fill="black"/>
<path d="M52.7402 14.4934H51.166V25.0399H52.7402V14.4934Z" fill="black"/>
<path d="M32.2942 19.8591V19.454H27.3595V20.9392H30.6443V23.1295C29.9177 23.4146 29.1306 23.5646 28.3132 23.5646C27.1779 23.5646 26.2394 23.1895 25.4977 22.4694C24.8013 21.7644 24.438 20.8942 24.438 19.7841C24.438 18.6889 24.7862 17.8188 25.4977 17.0987C26.2091 16.3936 27.3141 16.0035 28.7219 16.0035C29.8269 16.0035 30.8865 16.2586 31.7947 16.7386V15.0284C30.8411 14.6084 29.8117 14.3833 28.7219 14.3833C26.9357 14.3983 25.3008 14.9534 24.3169 15.9435C23.2876 16.9637 22.7275 18.2689 22.7275 19.7841C22.7275 21.2993 23.2876 22.6045 24.3169 23.6396C25.3463 24.6598 26.7237 25.1848 28.298 25.1848C29.7361 25.1848 31.0984 24.7798 32.2791 24.0747V23.3996V19.8591H32.2942Z" fill="black"/>
<path d="M40.1921 18.4264C39.5109 17.7214 38.5573 17.3313 37.5128 17.3313C36.3775 17.3313 35.439 17.7063 34.6973 18.4564C33.9707 19.1916 33.5771 20.1517 33.5771 21.2769C33.5771 22.447 33.9859 23.3922 34.7882 24.1272C35.0303 24.3373 35.2877 24.5323 35.5752 24.6824C36.2413 25.0424 37.0284 25.2224 37.9367 25.2224C38.9358 25.2224 39.9197 24.9674 40.7976 24.5773V23.0621C40.6008 23.1671 40.4041 23.2721 40.2073 23.3471C39.5109 23.6472 38.7238 23.7822 37.9367 23.7822C36.6803 23.7822 35.4845 23.2421 35.2271 21.8019H40.1921H41.1004C41.1458 21.6669 41.176 21.2769 41.176 20.9168C41.176 20.1967 40.9944 19.2966 40.2375 18.4715C40.2224 18.4715 40.2073 18.4564 40.1921 18.4264ZM39.6018 20.5717H35.212C35.4542 19.3866 36.4381 18.8165 37.4523 18.8165C38.4211 18.8165 39.4504 19.4016 39.6018 20.5717Z" fill="black"/>
<path d="M84.1319 17.5386H82.5576V25.0396H84.1319V17.5386Z" fill="black"/>
<path d="M83.3446 14.2681C83.0569 14.2681 82.815 14.358 82.6334 14.553C82.4362 14.748 82.3457 14.9881 82.3457 15.273C82.3457 15.558 82.4362 15.798 82.6334 15.993C82.8301 16.188 83.0569 16.278 83.3446 16.278C83.6323 16.278 83.8742 16.188 84.0558 15.993C84.2524 15.798 84.3435 15.558 84.3435 15.273C84.3435 14.9881 84.2524 14.748 84.0558 14.553C83.8742 14.358 83.6323 14.2681 83.3446 14.2681Z" fill="black"/>
<path d="M99.6788 22.9545C99.6788 22.4894 99.5582 22.1293 99.3308 21.8293C98.8615 21.1692 97.9532 20.8392 96.9543 20.5841C96.5459 20.4791 96.0917 20.3741 95.7587 20.194C95.4861 20.029 95.3498 19.864 95.3498 19.5639H95.3196H95.3498C95.3498 19.0539 95.9856 18.8138 96.7576 18.8138C97.6811 18.8138 98.5587 19.0239 99.3308 19.4439V17.8837C98.5286 17.5387 97.6509 17.3586 96.7576 17.3586C95.9554 17.3586 95.123 17.5387 94.5777 17.9587C94.033 18.3788 93.8057 18.9339 93.8057 19.639C93.8057 21.0942 95.0772 21.6492 96.5308 22.0093C96.9392 22.1143 97.3934 22.2193 97.7263 22.3993C97.999 22.5644 98.1353 22.7294 98.1353 23.0294C98.1353 23.5545 97.5749 23.8096 96.6515 23.8096C95.6677 23.8096 94.7442 23.6446 93.9118 23.3445V24.7997C94.7744 25.0847 95.6978 25.2498 96.6515 25.2498C97.5146 25.2498 98.2867 25.0397 98.8766 24.6347C99.0738 24.4997 99.2252 24.3346 99.3459 24.1696C99.5733 23.8245 99.6788 23.4195 99.6788 22.9545Z" fill="black"/>
<path d="M65.3814 19.5188C66.0775 18.9937 66.411 18.3486 66.411 17.4635C66.411 16.6383 66.0775 15.9032 65.4875 15.3481C64.897 14.7931 64.0037 14.5081 63.1562 14.5081H58.6758V25.0395H63.5344C64.4277 25.0395 65.306 24.7545 65.9266 24.1844C66.5317 23.6293 66.8495 22.8792 66.8495 22.0241C66.8495 20.974 66.3199 20.0138 65.3814 19.5188ZM60.2953 15.9482H63.3227C64.1702 15.9482 64.806 16.6083 64.806 17.4484C64.806 18.3035 64.1551 18.9487 63.3227 18.9487H60.2953V15.9482ZM63.6104 23.6143H60.2953V20.3739H63.6104C64.4881 20.3739 65.1847 21.0789 65.1847 21.9941C65.1847 22.8942 64.4881 23.6143 63.6104 23.6143Z" fill="black"/>
<path d="M89.2919 18.7835C90.0187 18.7835 90.488 19.0385 90.7757 19.4285C91.0628 19.8186 91.1237 20.3137 91.1237 20.7187V25.0393H92.698V20.6587C92.698 19.7436 92.4706 18.9634 91.941 18.3634C91.9259 18.3484 91.9259 18.3484 91.9109 18.3334C91.3807 17.7483 90.6695 17.3433 89.7008 17.3433C88.7773 17.3433 88.0204 17.6733 87.4757 18.1083V17.5383H85.9014V25.0393H87.4757V20.7187C87.4757 20.3137 87.5813 19.8636 87.869 19.4886C88.0053 19.3235 88.1416 19.1735 88.3232 19.0685C88.5807 18.8885 88.8986 18.7835 89.2919 18.7835Z" fill="black"/>
<path d="M79.2141 18.2584C78.5482 17.6433 77.6097 17.3433 76.6711 17.3433C75.5812 17.3433 74.6577 17.7183 73.8856 18.4834C73.6739 18.6935 73.4923 18.9034 73.3409 19.1435C73.3102 19.1885 73.28 19.2485 73.2499 19.2935C72.9018 19.8786 72.7354 20.5537 72.7354 21.2888C72.7354 22.384 73.1136 23.3291 73.8856 24.0942C74.6577 24.8593 75.5812 25.2343 76.6711 25.2343C77.6247 25.2343 78.5633 24.9343 79.2141 24.3042V25.0393H80.7884V17.5383H79.2141V18.2584ZM78.5024 23.0741C78.0331 23.5391 77.4432 23.7642 76.7465 23.7642C76.0504 23.7642 75.4599 23.5391 74.9907 23.0741C74.5214 22.594 74.2946 22.0089 74.2946 21.3038C74.2946 20.5987 74.5214 20.0136 74.9907 19.5486C75.4599 19.0685 76.0504 18.8435 76.7465 18.8435C77.4432 18.8435 78.0331 19.0685 78.5024 19.5486C78.9717 20.0136 79.199 20.5987 79.199 21.3038C79.199 22.0089 78.9717 22.594 78.5024 23.0741Z" fill="black"/>
<path d="M10.1525 13.7004C9.85822 14.0982 9.65883 14.7396 9.65883 15.6551V16.8359C9.65883 17.2195 9.79056 17.5916 10.0323 17.8912L11.1921 19.328C11.248 19.3196 11.3051 19.3153 11.3634 19.3153C11.991 19.3153 12.4997 19.8195 12.4997 20.4415C12.4997 21.0635 11.991 21.5677 11.3634 21.5677C10.7358 21.5677 10.227 21.0635 10.227 20.4415C10.227 20.2968 10.2545 20.1585 10.3047 20.0314L9.14498 18.5947C8.74201 18.0955 8.52246 17.4752 8.52246 16.8359V15.6551C8.52246 14.5997 8.74916 13.6926 9.23615 13.0345C9.73961 12.354 10.4822 11.9949 11.3634 11.9949C12.7887 11.9949 14.0086 12.8614 14.518 14.091C15.8145 14.4684 16.7611 15.6556 16.7611 17.0628C16.7611 17.3472 16.7552 17.651 16.671 17.9533C17.5694 18.426 18.1816 19.3625 18.1816 20.4415C18.1816 21.5206 17.5694 22.457 16.6709 22.9298C16.7551 23.232 16.761 23.5357 16.761 23.8201C16.761 25.2273 15.8145 26.4145 14.518 26.7919C14.0085 28.0215 12.7886 28.888 11.3632 28.888C10.9921 28.888 10.6337 28.829 10.2978 28.7196L10.6527 27.6497C10.8756 27.7223 11.1142 27.7618 11.3632 27.7618C12.3917 27.7618 13.2619 27.0844 13.5417 26.1541L13.6418 25.8212L13.9868 25.7605C14.9178 25.5965 15.6246 24.7895 15.6246 23.8201C15.6246 23.3305 15.5863 23.1515 15.449 22.986C15.2613 22.76 15.0083 22.6753 14.7336 22.7044C14.4458 22.7348 14.1462 22.8928 13.942 23.1458L13.2742 23.973C13.3244 24.1002 13.352 24.2385 13.352 24.3833C13.352 25.0053 12.8432 25.5095 12.2156 25.5095C11.588 25.5095 11.0793 25.0053 11.0793 24.3833C11.0793 23.7613 11.588 23.2571 12.2156 23.2571C12.2738 23.2571 12.3309 23.2614 12.3867 23.2697L13.0546 22.4423C13.443 21.9612 14.0156 21.6477 14.613 21.5845C15.1032 21.5327 15.6158 21.651 16.0355 21.9847C16.6307 21.7211 17.0452 21.1288 17.0452 20.4415C17.0452 19.7543 16.6307 19.1619 16.0355 18.8983C15.6157 19.2319 15.1032 19.3502 14.613 19.2984C14.0156 19.2352 13.443 18.9217 13.0547 18.4407L12.3868 17.6133C12.331 17.6216 12.2739 17.6259 12.2156 17.6259C11.588 17.6259 11.0793 17.1217 11.0793 16.4997C11.0793 15.8778 11.588 15.3735 12.2156 15.3735C12.8432 15.3735 13.352 15.8778 13.352 16.4997C13.352 16.6445 13.3245 16.7827 13.2743 16.9099L13.9421 17.7371C14.1463 17.9901 14.4459 18.1481 14.7336 18.1785C15.0083 18.2076 15.2613 18.1229 15.4491 17.8969C15.5864 17.7315 15.6248 17.5525 15.6248 17.0628C15.6248 16.0934 14.9178 15.2864 13.9869 15.1224L13.6419 15.0617L13.5418 14.7289C13.262 13.7985 12.3917 13.1211 11.3634 13.1211C10.824 13.1211 10.4303 13.3251 10.1525 13.7004Z" fill="black"/>
<path d="M4.90724 23.9733C4.85708 24.1004 4.82955 24.2387 4.82955 24.3834C4.82955 25.0054 5.33831 25.5096 5.96592 25.5096C6.59352 25.5096 7.10229 25.0054 7.10229 24.3834C7.10229 23.7614 6.59352 23.2572 5.96592 23.2572C5.90771 23.2572 5.85056 23.2615 5.79469 23.2699L5.12684 22.4425C4.7385 21.9614 4.16593 21.648 3.56851 21.5848C3.07834 21.5329 2.56582 21.6512 2.14604 21.9849C1.55083 21.7212 1.13636 21.1289 1.13636 20.4416C1.13636 19.7544 1.55082 19.1621 2.14602 18.8985C2.56578 19.2321 3.07831 19.3505 3.5685 19.2986C4.16596 19.2355 4.73856 18.922 5.12693 18.4409L5.79486 17.6135C5.85067 17.6218 5.90776 17.6261 5.96592 17.6261C6.59352 17.6261 7.10229 17.1219 7.10229 16.4999C7.10229 15.8779 6.59352 15.3737 5.96592 15.3737C5.33831 15.3737 4.82955 15.8779 4.82955 16.4999C4.82955 16.6446 4.8571 16.783 4.9073 16.9102L4.23958 17.7373C4.03532 17.9904 3.73576 18.1483 3.44793 18.1788C3.1733 18.2078 2.92022 18.1231 2.73256 17.8971C2.5952 17.7317 2.55691 17.5527 2.55691 17.0631C2.55691 16.0936 3.26379 15.2866 4.1947 15.1227L4.53974 15.0619L4.63984 14.7291C4.91963 13.7987 5.78989 13.1213 6.81827 13.1213C7.06732 13.1213 7.30598 13.1608 7.52877 13.2335L7.88369 12.1636C7.54777 12.0541 7.18939 11.9951 6.81827 11.9951C5.39292 11.9951 4.17306 12.8617 3.66356 14.0912C2.36709 14.4687 1.42055 15.6558 1.42055 17.0631C1.42055 17.3474 1.42645 17.6512 1.51066 17.9534C0.612156 18.4261 0 19.3625 0 20.4416C0 21.5207 0.612128 22.4571 1.5106 22.9299C1.42636 23.2321 1.42045 23.5359 1.42045 23.8203C1.42045 25.2276 2.36701 26.4147 3.66347 26.7922C4.17296 28.0217 5.39283 28.8883 6.81816 28.8883C7.69933 28.8883 8.4419 28.5291 8.94542 27.8487C9.43235 27.1906 9.65911 26.2835 9.65911 25.2281V24.0473C9.65911 23.408 9.43955 22.7877 9.03654 22.2885L7.87687 20.8518C7.92704 20.7246 7.95452 20.5864 7.95452 20.4416C7.95452 19.8197 7.44575 19.3154 6.81816 19.3154C6.19056 19.3154 5.68184 19.8197 5.68184 20.4416C5.68184 21.0636 6.19056 21.5678 6.81816 21.5678C6.87637 21.5678 6.93358 21.5635 6.98939 21.5552L8.14922 22.992C8.39101 23.2915 8.52274 23.6637 8.52274 24.0473V25.2281C8.52274 26.1435 8.3233 26.785 8.02905 27.1827C7.75128 27.5581 7.35749 27.7621 6.81816 27.7621C5.78978 27.7621 4.91954 27.0847 4.63975 26.1543L4.53965 25.8215L4.19461 25.7607C3.2637 25.5968 2.55682 24.7898 2.55682 23.8203C2.55682 23.3307 2.59512 23.1517 2.73251 22.9862C2.9202 22.7602 3.17327 22.6756 3.44789 22.7046C3.7357 22.7351 4.03523 22.893 4.23949 23.1461L4.90724 23.9733Z" fill="black"/>
</g>
<defs>
<clipPath id="clip0">
<rect width="100" height="16.8831" fill="white" transform="translate(0 12)"/>
</clipPath>
</defs>
</svg>
