<svg width="100" height="40" viewBox="0 0 100 40" fill="none" xmlns="http://www.w3.org/2000/svg">
<g clip-path="url(#clip0)">
<path d="M5.63255 19.6433C6.30198 20.201 6.76366 20.782 7.01761 21.363C7.27152 21.9439 7.41004 22.6876 7.41004 23.5939V26.6846C7.41004 29.3106 6.25584 30.6352 3.97049 30.6352H3.39339C1.13113 30.6352 0 29.3339 0 26.7544V22.2926H2.05449V26.8473C2.05449 27.9163 2.51618 28.4508 3.46263 28.4508H3.87815C4.80152 28.4508 5.2863 27.9163 5.2863 26.8473V23.6636C5.2863 23.1524 5.21704 22.7573 5.07852 22.4784C4.94004 22.1996 4.70918 21.9207 4.36292 21.6186L1.77749 19.4574C1.10805 18.8997 0.646362 18.342 0.392435 17.7378C0.138508 17.1335 0 16.3899 0 15.5068V12.9506C0 10.3246 1.15421 9 3.43955 9H3.97049C6.23276 9 7.36387 10.3014 7.36387 12.8809V16.7152H5.30938V12.7879C5.30938 11.7189 4.8477 11.1844 3.90123 11.1844H3.53188C2.60851 11.1844 2.12375 11.7189 2.12375 12.7879V15.4836C2.12375 15.9949 2.193 16.3899 2.3546 16.6688C2.4931 16.9476 2.74702 17.2265 3.0702 17.5286L5.63255 19.6433Z" fill="black"/>
<path d="M17.7001 30.4959H15.3686L11.906 22.1106V30.4959H9.78223V12.6951H11.906V20.941L15.5533 12.6951H17.7925L13.9836 21.456L17.7001 30.4959Z" fill="black"/>
<path d="M21.5954 12.6951V30.4959H19.4717V12.6951H21.5954Z" fill="black"/>
<path d="M24.0205 12.6951H26.1442V28.6136H29.6299V30.4959H24.0205V12.6951Z" fill="black"/>
<path d="M31.1221 12.6951H33.2458V28.6136H36.7315V30.4959H31.1221V12.6951Z" fill="black"/>
<path d="M38.7535 9.02319H45.7381V10.9055H40.8542V16.8546H44.2936V18.7138H40.8542V30.4958H38.7305V9.02319H38.7535Z" fill="black"/>
<path d="M50.6647 12.6484L53.5269 30.4958H51.4495L51.0108 27.5212H47.5944L47.1787 30.4958H45.1475L48.01 12.6484H50.6647ZM49.2796 15.8321L47.8252 25.6854H50.7108L49.2796 15.8321Z" fill="black"/>
<path d="M60.8031 23.6404H62.8578V27.3353C62.8578 29.543 61.7035 30.6352 59.4183 30.6352H58.7257C56.4401 30.6352 55.2861 29.543 55.2861 27.3353V15.8321C55.2861 13.6244 56.4401 12.5322 58.7257 12.5322H59.4183C61.6805 12.5322 62.8118 13.6244 62.8118 15.7857V18.9926H60.757V15.7392C60.757 14.8329 60.2953 14.3913 59.3487 14.3913H58.8179C57.8944 14.3913 57.4096 14.8329 57.4096 15.7392V27.4283C57.4096 28.3346 57.8714 28.7761 58.8179 28.7761H59.3952C60.3183 28.7761 60.8031 28.3346 60.8031 27.4283V23.6404Z" fill="black"/>
<path d="M69.4036 30.4959H67.2801V14.5774H64.5098V12.6951H72.174V14.5774H69.4036V30.4959Z" fill="black"/>
<path d="M81.3835 27.3353C81.3835 29.543 80.2296 30.6352 77.944 30.6352H77.1592C74.874 30.6352 73.7197 29.543 73.7197 27.3353V15.8321C73.7197 13.6244 74.874 12.5322 77.1592 12.5322H77.944C80.2296 12.5322 81.3835 13.6244 81.3835 15.8321V27.3353ZM79.2601 15.7392C79.2601 14.8329 78.7983 14.3913 77.8518 14.3913H77.2284C76.3053 14.3913 75.8206 14.8329 75.8206 15.7392V27.4283C75.8206 28.3346 76.2823 28.7761 77.2284 28.7761H77.8518C78.7753 28.7761 79.2601 28.3346 79.2601 27.4283V15.7392Z" fill="black"/>
<path d="M89.1032 22.1067C90.2114 22.3856 90.7654 23.199 90.7654 24.5004V30.4959H88.6419V24.57C88.6419 23.5476 88.1106 23.0131 87.0258 23.0131H85.4559V30.4959H83.3555V12.6951H87.3028C89.588 12.6951 90.7423 13.7873 90.7423 15.995V19.2948C90.7423 20.7357 90.1884 21.6652 89.1032 22.1067ZM88.6184 15.902C88.6184 14.9957 88.1571 14.5542 87.2106 14.5542H85.4559V21.2237H87.0489C88.0876 21.2237 88.6184 20.7124 88.6184 19.7131V15.902Z" fill="black"/>
<path d="M95.9247 21.4096L97.8868 12.6951H99.9642L96.9864 24.3609V30.4959H94.863V24.3842L91.8848 12.6951H94.0547L95.9247 21.4096Z" fill="black"/>
</g>
<defs>
<clipPath id="clip0">
<rect width="100" height="21.6667" fill="white" transform="translate(0 9)"/>
</clipPath>
</defs>
</svg>
