<svg width="12" height="14" viewBox="0 0 12 14" fill="none" xmlns="http://www.w3.org/2000/svg">
<path d="M0.0666815 9.69231C0.435842 12.4336 3.21993 13.7063 4.56582 14C3.87365 13.2168 3.18147 11.5524 3.52756 10.5734C3.87365 9.59441 4.56582 8.06061 4.56582 7.34266C5.7656 8.43916 5.681 9.4965 5.48872 9.88811C6.78079 8.79161 6.48853 6.4289 6.1809 5.38462C10.2417 8.90909 8.71888 12.5967 7.44989 14C14.4639 10.8671 11.8337 5.12354 9.64178 2.64336C9.82636 3.8965 9.25724 4.53613 8.9496 4.6993C8.67273 2.27133 6.21935 0.554779 5.02727 0C5.14264 2.05594 2.83538 6.06993 2.72002 5.38462C2.62773 4.83636 2.14321 4.04662 1.91248 3.72028C1.68176 6.55944 -0.394769 6.26573 0.0666815 9.69231Z" fill="white"/>
</svg>
