<svg width="24" height="24" viewBox="0 0 24 24" fill="none" xmlns="http://www.w3.org/2000/svg">
<g clip-path="url(#clip0)">
<path d="M19.7134 22.9141L19.7314 22.9159L22.0014 19.92H23.0014V19.918V16.9312C23.0162 16.2003 22.7636 15.489 22.2909 14.931C21.8152 14.3696 21.1497 14.0026 20.4211 13.8998L20.4211 13.8997L20.4122 13.8986C19.5272 13.7818 18.6583 13.5654 17.822 13.2535C17.2855 13.052 16.7025 13.0085 16.1419 13.1281C15.581 13.2477 15.0661 13.5256 14.6583 13.9289L14.6543 13.9329L13.9372 14.65C12.0926 13.4741 10.5273 11.9088 9.35141 10.0642L10.0685 9.34708L10.0685 9.34709L10.0725 9.34311C10.4757 8.93528 10.7537 8.42038 10.8733 7.85943C10.9928 7.29896 10.9493 6.71599 10.748 6.17948C10.436 5.34314 10.2195 4.4742 10.1028 3.58922L10.1029 3.58921L10.1016 3.58002C9.99967 2.85919 9.63915 2.2 9.0872 1.72532C8.53661 1.25182 7.83301 0.994138 7.10697 0.999975L4.1114 0.999974L4.11046 0.999975C3.69397 1.00037 3.28212 1.08748 2.90114 1.25576C2.52016 1.42404 2.1784 1.66981 1.89761 1.97741C1.61681 2.28501 1.40314 2.64771 1.27021 3.04241C1.13727 3.43712 1.08797 3.85518 1.12546 4.26998L1.12699 4.28557C1.47166 7.53129 2.5757 10.6502 4.34971 13.39C5.96268 15.9271 8.11397 18.0784 10.6511 19.6915C13.3784 21.4593 16.4822 22.563 19.7134 22.9141Z" fill="#A6CEFF" stroke="white" stroke-width="2" stroke-linecap="round" stroke-linejoin="round"/>
</g>
<defs>
<clipPath id="clip0">
<rect width="24" height="24" fill="white"/>
</clipPath>
</defs>
</svg>
