<svg width="20" height="18" viewBox="0 0 20 18" fill="none" xmlns="http://www.w3.org/2000/svg">
	<path fill-rule="evenodd" clip-rule="evenodd" d="M18.0627 0H1.98492C0.893212 0 0 0.877692 0 1.95043V16.8224C0 17.8952 1.2902 18.3828 2.03454 17.6514L3.96983 15.7497H18.0131C19.1048 15.7497 19.998 14.872 19.998 13.7993V1.95043C20.0477 0.877692 19.1544 0 18.0627 0ZM3.57913 5.50003C3.57913 4.86278 4.09572 4.34618 4.73298 4.34618L15.3096 4.34618C15.9468 4.34618 16.4634 4.86278 16.4634 5.50003C16.4634 6.13728 15.9468 6.65388 15.3096 6.65388L4.73298 6.65388C4.09572 6.65388 3.57913 6.13728 3.57913 5.50003ZM4.73298 8.99999C4.09572 8.99999 3.57913 9.51659 3.57913 10.1538C3.57913 10.7911 4.09572 11.3077 4.73298 11.3077L12.2611 11.3077C12.8983 11.3077 13.4149 10.7911 13.4149 10.1538C13.4149 9.51659 12.8983 8.99999 12.2611 8.99999L4.73298 8.99999Z" fill="#A6CEFF"/>
</svg>
