<?xml version="1.0" encoding="utf-8"?>
<svg width="14" height="14" viewBox="0 0 14 14" fill="none" xmlns="http://www.w3.org/2000/svg">
	<path d="M13.6787 6.60223C13.927 6.35387 14.0335 5.96359 13.927 5.6088C13.8206 5.254 13.5368 5.00564 13.1465 4.97016L9.91783 4.50892C9.77591 4.47344 9.66947 4.40249 9.59851 4.29605L8.14384 1.38671C8.03741 1.03191 7.71809 0.819031 7.32781 0.819031C6.97301 0.819031 6.61822 1.03191 6.4763 1.35123L5.02163 4.26057C4.95067 4.40248 4.84423 4.47344 4.70231 4.47344L1.47365 4.93468C1.11886 4.97016 0.835018 5.254 0.693099 5.57332C0.586659 5.92811 0.657619 6.28291 0.941457 6.56675L3.28312 8.83745C3.38956 8.94389 3.42504 9.08581 3.38956 9.22773L2.85736 12.4209C2.82188 12.7047 2.89284 12.9886 3.07024 13.2015C3.35408 13.5208 3.8508 13.6272 4.24107 13.4498L7.11493 11.9242C7.22137 11.8532 7.39877 11.8532 7.50521 11.9242L10.3791 13.4498C10.521 13.5208 10.6629 13.5563 10.8403 13.5563C11.1241 13.5563 11.3725 13.4143 11.5854 13.2015C11.7628 12.9886 11.8337 12.7047 11.7983 12.4209L11.2661 9.22773C11.2306 9.08581 11.3015 8.94389 11.3725 8.83745L13.6787 6.60223Z" fill="#A6CEFF"></path>
</svg>