<svg width="32" height="24" viewBox="0 0 32 24" fill="#407BE7" xmlns="http://www.w3.org/2000/svg">
<path  d="M28.5714 0.571411H3.42857C1.53502 0.571411 0 2.10643 0 3.99998V19.9999C0 21.8935 1.53502 23.4285 3.42857 23.4285H28.5714C30.465 23.4285 32 21.8935 32 19.9999V3.99998C32 2.10643 30.465 0.571411 28.5714 0.571411ZM29.7142 13.8125L22.5223 6.62056C22.076 6.17438 21.3526 6.17438 20.9063 6.62056L11.4286 16.0982L7.66513 12.3348C7.21888 11.8886 6.4954 11.8886 6.04915 12.3348L2.28569 16.0982V3.99998C2.28569 3.36878 2.79736 2.8571 3.42857 2.8571H28.5714C29.2026 2.8571 29.7143 3.36878 29.7143 3.99998V13.8125H29.7142Z" fill="#407BE7"/>
</svg>
