<svg width="48" height="48" viewBox="0 0 48 48" fill="none" xmlns="http://www.w3.org/2000/svg">
<rect width="48" height="48" rx="12" fill="#1DA1F2"/>
<path d="M18.4344 36.1907C29.7552 36.1907 35.9472 26.8115 35.9472 18.6779C35.9472 18.4115 35.9472 18.1463 35.9292 17.8823C37.134 17.0111 38.1732 15.9323 39 14.6963C37.8768 15.1943 36.6852 15.5207 35.4648 15.6647C36.75 14.8955 37.7112 13.6859 38.1708 12.2603C36.9624 12.9767 35.6412 13.4831 34.2624 13.7543C31.932 11.2751 28.032 11.1563 25.554 13.4867C23.9556 14.9903 23.2776 17.2295 23.7732 19.3679C18.8244 19.1195 14.2128 16.7819 11.088 12.9371C9.4548 15.7499 10.2888 19.3475 12.9936 21.1535C12.0144 21.1247 11.0556 20.8607 10.2 20.3831C10.2 20.4083 10.2 20.4347 10.2 20.4611C10.2012 23.3915 12.2664 25.9151 15.138 26.4947C14.232 26.7419 13.2816 26.7779 12.3588 26.6003C13.1652 29.1071 15.4764 30.8255 18.1092 30.8747C15.93 32.5871 13.2372 33.5171 10.4652 33.5147C9.9756 33.5135 9.486 33.4847 9 33.4259C11.8152 35.2319 15.09 36.1907 18.4344 36.1859" fill="white"/>
</svg>

