<svg width="11" height="16" viewBox="0 0 11 16" fill="none" xmlns="http://www.w3.org/2000/svg">
<path d="M4.584 15.1111C4.584 15.602 4.99441 16 5.50067 16C6.00693 16 6.41734 15.602 6.41734 15.1111L6.41734 0.888889C6.41734 0.397969 6.00693 2.22222e-09 5.50067 2.22222e-09C4.99441 2.22222e-09 4.584 0.397969 4.584 0.888889L4.584 15.1111ZM9.43582 5.59368C9.7938 5.94082 10.3742 5.94082 10.7322 5.59368C11.0902 5.24655 11.0902 4.68374 10.7322 4.3366L6.79703 0.520699C6.08107 -0.173566 4.92027 -0.173566 4.20431 0.520699L0.269157 4.3366C-0.0888236 4.68374 -0.0888236 5.24655 0.269157 5.59368C0.627138 5.94082 1.20754 5.94082 1.56552 5.59368L5.50067 1.77778L9.43582 5.59368Z" fill="black" fill-opacity="0.2"/>
</svg>
