<svg width="239" height="167" viewBox="0 0 239 167" fill="none" xmlns="http://www.w3.org/2000/svg">
<path d="M14.3921 118.751L14.5383 118.5L14.3921 118.249L0.869262 95H173.5V142H0.869262L14.3921 118.751Z" fill="white" stroke="#E9E9E9"/>
<path d="M224.608 118.751L224.462 118.5L224.608 118.249L238.131 95H65.5V142H238.131L224.608 118.751Z" fill="white" stroke="#E9E9E9"/>
<path d="M52.8057 94.7363L30.5742 119.236V124.736H208.426V119.236L186.195 94.7363H52.8057Z" fill="#E6E6E6" stroke="#E9E9E9"/>
<circle cx="120" cy="82" r="82" fill="white"/>
<path d="M120 5.33422C120 2.38821 122.391 -0.0180851 125.331 0.173367C142.648 1.30114 159.214 7.90121 172.598 19.0916C187.35 31.4256 197.298 48.5516 200.704 67.4763C204.109 86.401 200.756 105.921 191.23 122.624C181.704 139.327 166.61 152.151 148.588 158.855C130.566 165.559 110.761 165.716 92.6344 159.299C74.508 152.882 59.2133 140.299 49.4234 123.749C39.6335 107.199 35.9711 87.7345 39.0763 68.7581C41.8935 51.5413 50.1189 35.7196 62.4896 23.5486C64.5896 21.4825 67.9718 21.7414 69.8971 23.9712C71.8224 26.2011 71.5592 29.5562 69.4794 31.6426C58.9923 42.1632 52.0178 55.7338 49.6047 70.4809C46.9035 86.9884 50.0894 103.92 58.6057 118.317C67.1219 132.714 80.4267 143.66 96.1948 149.242C111.963 154.824 129.191 154.688 144.869 148.856C160.546 143.024 173.676 131.869 181.963 117.339C190.249 102.809 193.166 85.8285 190.204 69.3659C187.241 52.9033 178.587 38.0055 165.755 27.2762C154.291 17.691 140.143 11.9774 125.33 10.8678C122.392 10.6477 120 8.28025 120 5.33422Z" fill="#FF6557"/>
<rect x="30.5" y="119.5" width="178" height="47" fill="#F9F9F9" stroke="#E9E9E9"/>
</svg>
