<svg width="20" height="20" viewBox="0 0 20 20" fill="none" xmlns="http://www.w3.org/2000/svg">
<path d="M6.07568 17.3534L1.66651 18.3334L2.64651 13.9242C2.00112 12.7171 1.66445 11.369 1.66651 10.0001C1.66651 5.39758 5.39735 1.66675 9.99985 1.66675C14.6023 1.66675 18.3332 5.39758 18.3332 10.0001C18.3332 14.6026 14.6023 18.3334 9.99985 18.3334C8.63098 18.3355 7.28286 17.9988 6.07568 17.3534ZM6.31735 15.5926L6.86151 15.8842C7.82697 16.4002 8.90517 16.669 9.99985 16.6667C11.3184 16.6667 12.6073 16.2758 13.7036 15.5432C14.8 14.8107 15.6545 13.7695 16.159 12.5513C16.6636 11.3331 16.7957 9.99269 16.5384 8.69948C16.2812 7.40627 15.6462 6.21839 14.7139 5.28604C13.7815 4.35369 12.5937 3.71875 11.3004 3.46151C10.0072 3.20428 8.6668 3.3363 7.44862 3.84088C6.23045 4.34547 5.18926 5.19995 4.45672 6.29628C3.72417 7.39261 3.33318 8.68154 3.33318 10.0001C3.33318 11.1117 3.60401 12.1817 4.11651 13.1384L4.40735 13.6826L3.86151 16.1384L6.31735 15.5926Z" fill="black"/>
</svg>
