<svg width="24" height="24" viewBox="0 0 24 24" fill="none" xmlns="http://www.w3.org/2000/svg">
<circle cx="12" cy="12" r="12" fill="#208DD7"/>
<path d="M18.75 8.25C18.75 7.83579 18.4142 7.5 18 7.5L7.5 7.5L9.21967 5.78033C9.51256 5.48744 9.51256 5.01256 9.21967 4.71967C8.92678 4.42678 8.4519 4.42678 8.15901 4.71967L5.68934 7.18934C5.10355 7.77513 5.10355 8.72487 5.68934 9.31066L8.15901 11.7803C8.4519 12.0732 8.92678 12.0732 9.21967 11.7803C9.51256 11.4874 9.51256 11.0126 9.21967 10.7197L7.5 9L18 9C18.4142 9 18.75 8.66421 18.75 8.25Z" fill="white"/>
<path d="M5.25 15.75C5.25 16.1642 5.58579 16.5 6 16.5L16.5 16.5L14.7803 18.2197C14.4874 18.5126 14.4874 18.9874 14.7803 19.2803C15.0732 19.5732 15.5481 19.5732 15.841 19.2803L18.3107 16.8107C18.603 16.5183 18.7494 16.1354 18.75 15.7522L18.75 15.75L18.75 15.7478C18.7494 15.3646 18.603 14.9817 18.3107 14.6893L15.841 12.2197C15.5481 11.9268 15.0732 11.9268 14.7803 12.2197C14.4874 12.5126 14.4874 12.9874 14.7803 13.2803L16.5 15L6 15C5.58579 15 5.25 15.3358 5.25 15.75Z" fill="white"/>
</svg>
