<svg width="20" height="20" viewBox="0 0 20 20" fill="none" xmlns="http://www.w3.org/2000/svg">
<path d="M12.1668 6.66675H17.5002C17.9422 6.66675 18.3661 6.84234 18.6787 7.1549C18.9912 7.46746 19.1668 7.89139 19.1668 8.33342V10.0867C19.1671 10.3045 19.1246 10.5203 19.0418 10.7217L16.4627 16.9842C16.3997 17.1369 16.2929 17.2675 16.1556 17.3593C16.0184 17.4512 15.857 17.5002 15.6918 17.5001H1.66683C1.44582 17.5001 1.23385 17.4123 1.07757 17.256C0.921293 17.0997 0.833496 16.8878 0.833496 16.6667V8.33342C0.833496 8.1124 0.921293 7.90044 1.07757 7.74416C1.23385 7.58788 1.44582 7.50008 1.66683 7.50008H4.5685C4.70191 7.50012 4.83338 7.46812 4.95186 7.40678C5.07033 7.34544 5.17235 7.25655 5.24933 7.14758L9.7935 0.708416C9.85094 0.62701 9.93565 0.568883 10.0323 0.544574C10.1289 0.520266 10.231 0.531385 10.3202 0.575916L11.8318 1.33175C12.2572 1.54438 12.5971 1.89618 12.7949 2.32868C12.9928 2.76118 13.0367 3.24835 12.9193 3.70925L12.1668 6.66675ZM5.8335 8.82342V15.8334H15.1335L17.5002 10.0867V8.33342H12.1668C11.913 8.33338 11.6625 8.27536 11.4345 8.1638C11.2065 8.05223 11.007 7.89006 10.8512 7.68965C10.6954 7.48925 10.5875 7.25591 10.5356 7.00744C10.4837 6.75896 10.4893 6.50192 10.5518 6.25592L11.3043 3.29925C11.3279 3.20702 11.3191 3.10951 11.2796 3.02294C11.24 2.93637 11.172 2.86596 11.0868 2.82342L10.536 2.54842L6.611 8.10841C6.40266 8.40341 6.136 8.64508 5.8335 8.82342ZM4.16683 9.16675H2.50016V15.8334H4.16683V9.16675Z" fill="#9B5DE5"/>
</svg>
