<svg width="15" height="13" viewBox="0 0 15 13" fill="none" xmlns="http://www.w3.org/2000/svg">
<path d="M13.7136 5.90251C13.9608 5.64902 14.0668 5.2507 13.9608 4.88858C13.8549 4.52646 13.5723 4.27298 13.1837 4.23677L9.96924 3.76602C9.82795 3.7298 9.72197 3.65738 9.65133 3.54875L8.20305 0.579387C8.09708 0.21727 7.77917 0 7.3906 0C7.03737 0 6.68413 0.21727 6.54283 0.543175L5.09456 3.51253C5.02391 3.65738 4.91794 3.7298 4.77664 3.7298L1.56218 4.20056C1.20894 4.23677 0.92635 4.52646 0.785055 4.85237C0.679084 5.21448 0.749731 5.5766 1.03232 5.86629L3.36369 8.18384C3.46966 8.29248 3.50499 8.43733 3.46966 8.58217L2.93981 11.8412C2.90448 12.1309 2.97513 12.4206 3.15175 12.6379C3.43434 12.9638 3.92887 13.0724 4.31743 12.8914L7.17866 11.3343C7.28463 11.2618 7.46125 11.2618 7.56722 11.3343L10.4284 12.8914C10.5697 12.9638 10.711 13 10.8877 13C11.1702 13 11.4175 12.8552 11.6295 12.6379C11.8061 12.4206 11.8767 12.1309 11.8414 11.8412L11.3115 8.58217C11.2762 8.43733 11.3469 8.29248 11.4175 8.18384L13.7136 5.90251Z" fill="#E9EFFF"/>
</svg>
