<svg width="16" height="17" viewBox="0 0 16 17" fill="none" xmlns="http://www.w3.org/2000/svg">
<path d="M13.68 2.82C12.16 1.38 10.16 0.5 8 0.5C3.6 0.5 0 4.1 0 8.5C0 12.9 3.6 16.5 8 16.5C12.4 16.5 16 12.9 16 8.5C16 6.34 15.12 4.34 13.68 2.82ZM8.8 12.5H7.2V10.9H8.8V12.5ZM9.2 8.9C8.96 9.06 8.72 9.38 8.8 9.62V9.7H7.2V9.62C7.2 8.74 7.68 7.86 8.56 7.46C8.96 7.3 9.2 6.82 9.2 6.42C9.2 5.78 8.64 5.3 8 5.3C7.36 5.3 6.8 5.78 6.8 6.42H5.2C5.2 4.9 6.48 3.7 8 3.7C9.52 3.7 10.8 4.9 10.8 6.42C10.8 7.46 10.16 8.42 9.2 8.9Z" fill="#B8B8B8"/>
</svg>
