<svg width="30" height="23" viewBox="0 0 30 23" fill="none" xmlns="http://www.w3.org/2000/svg">
<path d="M27.3615 2.13169C29.0782 3.95502 29.9999 6.00002 29.9999 9.31502C29.9999 15.1484 25.9049 20.3767 19.9499 22.9617L18.4615 20.665C24.0199 17.6584 25.1065 13.7567 25.5399 11.2967C24.6449 11.76 23.4732 11.9217 22.3249 11.815C19.3182 11.5367 16.9482 9.06835 16.9482 6.00002C16.9482 4.45292 17.5628 2.96919 18.6567 1.87523C19.7507 0.781269 21.2344 0.166687 22.7815 0.166687C24.5699 0.166687 26.2799 0.983354 27.3615 2.13169ZM10.6949 2.13169C12.4115 3.95502 13.3332 6.00002 13.3332 9.31502C13.3332 15.1484 9.2382 20.3767 3.2832 22.9617L1.79487 20.665C7.3532 17.6584 8.43987 13.7567 8.8732 11.2967C7.9782 11.76 6.80654 11.9217 5.6582 11.815C2.65154 11.5367 0.283203 9.06835 0.283203 6.00002C0.283203 4.45292 0.897784 2.96919 1.99175 1.87523C3.08571 0.781269 4.56944 0.166687 6.11654 0.166687C7.90487 0.166687 9.61487 0.983354 10.6965 2.13169H10.6949Z" fill="#9B5DE5"/>
</svg>

