<svg width="60" height="60" viewBox="0 0 60 60" fill="none" xmlns="http://www.w3.org/2000/svg">
<path d="M30 0L34.2237 3.33241L39.2705 1.4683L42.2577 5.94283L47.6336 5.72949L49.0919 10.9081L54.2705 12.3664L54.0572 17.7423L58.5317 20.7295L56.6676 25.7763L60 30L56.6676 34.2237L58.5317 39.2705L54.0572 42.2577L54.2705 47.6336L49.0919 49.0919L47.6336 54.2705L42.2577 54.0572L39.2705 58.5317L34.2237 56.6676L30 60L25.7763 56.6676L20.7295 58.5317L17.7423 54.0572L12.3664 54.2705L10.9081 49.0919L5.72949 47.6336L5.94283 42.2577L1.4683 39.2705L3.33241 34.2237L0 30L3.33241 25.7763L1.4683 20.7295L5.94283 17.7423L5.72949 12.3664L10.9081 10.9081L12.3664 5.72949L17.7423 5.94283L20.7295 1.4683L25.7763 3.33241L30 0Z" fill="#FEE440"/>
</svg>
