<svg width="15" height="14" viewBox="0 0 15 14" fill="none" xmlns="http://www.w3.org/2000/svg">
<path d="M14.6741 6.35655C14.9537 6.08356 15.0736 5.6546 14.9537 5.26462C14.8339 4.87465 14.5143 4.60167 14.0749 4.56267L10.4395 4.05571C10.2797 4.01671 10.1599 3.93872 10.08 3.82173L8.4421 0.623955C8.32226 0.233983 7.96272 0 7.52329 0C7.1238 0 6.72431 0.233983 6.56452 0.584958L4.92663 3.78273C4.84673 3.93872 4.72688 4.01671 4.56709 4.01671L0.931767 4.52368C0.532281 4.56267 0.212692 4.87465 0.0528978 5.22563C-0.066948 5.6156 0.0129492 6.00557 0.332538 6.31755L2.96915 8.81337C3.08899 8.93036 3.12894 9.08635 3.08899 9.24234L2.48976 12.7521C2.44981 13.0641 2.52971 13.376 2.72945 13.61C3.04904 13.961 3.60832 14.078 4.04776 13.883L7.28359 12.2061C7.40344 12.1281 7.60318 12.1281 7.72303 12.2061L10.9589 13.883C11.1187 13.961 11.2785 14 11.4782 14C11.7978 14 12.0774 13.844 12.3171 13.61C12.5169 13.376 12.5968 13.0641 12.5568 12.7521L11.9576 9.24234C11.9176 9.08635 11.9975 8.93036 12.0774 8.81337L14.6741 6.35655Z" fill="#FF6557"/>
</svg>
